%TF.GenerationSoftware,KiCad,Pcbnew,5.1.9-73d0e3b20d~88~ubuntu18.04.1*%
%TF.CreationDate,2021-01-24T01:48:54+01:00*%
%TF.ProjectId,rugzak-ledboard-pcb,7275677a-616b-42d6-9c65-64626f617264,rev?*%
%TF.SameCoordinates,Original*%
%TF.FileFunction,Copper,L2,Bot*%
%TF.FilePolarity,Positive*%
%FSLAX46Y46*%
G04 Gerber Fmt 4.6, Leading zero omitted, Abs format (unit mm)*
G04 Created by KiCad (PCBNEW 5.1.9-73d0e3b20d~88~ubuntu18.04.1) date 2021-01-24 01:48:54*
%MOMM*%
%LPD*%
G01*
G04 APERTURE LIST*
%TA.AperFunction,ComponentPad*%
%ADD10O,1.700000X1.700000*%
%TD*%
%TA.AperFunction,ComponentPad*%
%ADD11R,1.700000X1.700000*%
%TD*%
%TA.AperFunction,ViaPad*%
%ADD12C,0.800000*%
%TD*%
%TA.AperFunction,Conductor*%
%ADD13C,0.250000*%
%TD*%
%TA.AperFunction,Conductor*%
%ADD14C,0.500000*%
%TD*%
%TA.AperFunction,Conductor*%
%ADD15C,0.254000*%
%TD*%
%TA.AperFunction,Conductor*%
%ADD16C,0.100000*%
%TD*%
G04 APERTURE END LIST*
%TO.P,J1,15*%
%TO.N,Net-(ESP321-Pad14)*%
%TA.AperFunction,ComponentPad*%
G36*
G01*
X52350000Y-111805000D02*
X52350000Y-112655000D01*
G75*
G02*
X51925000Y-113080000I-425000J0D01*
G01*
X49775000Y-113080000D01*
G75*
G02*
X49350000Y-112655000I0J425000D01*
G01*
X49350000Y-111805000D01*
G75*
G02*
X49775000Y-111380000I425000J0D01*
G01*
X51925000Y-111380000D01*
G75*
G02*
X52350000Y-111805000I0J-425000D01*
G01*
G37*
%TD.AperFunction*%
%TO.P,J1,14*%
%TO.N,Net-(ESP321-Pad23)*%
%TA.AperFunction,ComponentPad*%
G36*
G01*
X52350000Y-114345000D02*
X52350000Y-115195000D01*
G75*
G02*
X51925000Y-115620000I-425000J0D01*
G01*
X49775000Y-115620000D01*
G75*
G02*
X49350000Y-115195000I0J425000D01*
G01*
X49350000Y-114345000D01*
G75*
G02*
X49775000Y-113920000I425000J0D01*
G01*
X51925000Y-113920000D01*
G75*
G02*
X52350000Y-114345000I0J-425000D01*
G01*
G37*
%TD.AperFunction*%
%TO.P,J1,13*%
%TO.N,Net-(ESP321-Pad24)*%
%TA.AperFunction,ComponentPad*%
G36*
G01*
X52350000Y-116885000D02*
X52350000Y-117735000D01*
G75*
G02*
X51925000Y-118160000I-425000J0D01*
G01*
X49775000Y-118160000D01*
G75*
G02*
X49350000Y-117735000I0J425000D01*
G01*
X49350000Y-116885000D01*
G75*
G02*
X49775000Y-116460000I425000J0D01*
G01*
X51925000Y-116460000D01*
G75*
G02*
X52350000Y-116885000I0J-425000D01*
G01*
G37*
%TD.AperFunction*%
%TO.P,J1,12*%
%TO.N,Net-(ESP321-Pad25)*%
%TA.AperFunction,ComponentPad*%
G36*
G01*
X52350000Y-119425000D02*
X52350000Y-120275000D01*
G75*
G02*
X51925000Y-120700000I-425000J0D01*
G01*
X49775000Y-120700000D01*
G75*
G02*
X49350000Y-120275000I0J425000D01*
G01*
X49350000Y-119425000D01*
G75*
G02*
X49775000Y-119000000I425000J0D01*
G01*
X51925000Y-119000000D01*
G75*
G02*
X52350000Y-119425000I0J-425000D01*
G01*
G37*
%TD.AperFunction*%
%TO.P,J1,11*%
%TO.N,Net-(ESP321-Pad7)*%
%TA.AperFunction,ComponentPad*%
G36*
G01*
X52350000Y-121965000D02*
X52350000Y-122815000D01*
G75*
G02*
X51925000Y-123240000I-425000J0D01*
G01*
X49775000Y-123240000D01*
G75*
G02*
X49350000Y-122815000I0J425000D01*
G01*
X49350000Y-121965000D01*
G75*
G02*
X49775000Y-121540000I425000J0D01*
G01*
X51925000Y-121540000D01*
G75*
G02*
X52350000Y-121965000I0J-425000D01*
G01*
G37*
%TD.AperFunction*%
%TO.P,J1,10*%
%TO.N,Net-(ESP321-Pad12)*%
%TA.AperFunction,ComponentPad*%
G36*
G01*
X52350000Y-124505000D02*
X52350000Y-125355000D01*
G75*
G02*
X51925000Y-125780000I-425000J0D01*
G01*
X49775000Y-125780000D01*
G75*
G02*
X49350000Y-125355000I0J425000D01*
G01*
X49350000Y-124505000D01*
G75*
G02*
X49775000Y-124080000I425000J0D01*
G01*
X51925000Y-124080000D01*
G75*
G02*
X52350000Y-124505000I0J-425000D01*
G01*
G37*
%TD.AperFunction*%
%TO.P,J1,9*%
%TO.N,Net-(ESP321-Pad14)*%
%TA.AperFunction,ComponentPad*%
G36*
G01*
X52350000Y-127045000D02*
X52350000Y-127895000D01*
G75*
G02*
X51925000Y-128320000I-425000J0D01*
G01*
X49775000Y-128320000D01*
G75*
G02*
X49350000Y-127895000I0J425000D01*
G01*
X49350000Y-127045000D01*
G75*
G02*
X49775000Y-126620000I425000J0D01*
G01*
X51925000Y-126620000D01*
G75*
G02*
X52350000Y-127045000I0J-425000D01*
G01*
G37*
%TD.AperFunction*%
%TO.P,J1,8*%
%TO.N,Net-(ESP321-Pad13)*%
%TA.AperFunction,ComponentPad*%
G36*
G01*
X52350000Y-129585000D02*
X52350000Y-130435000D01*
G75*
G02*
X51925000Y-130860000I-425000J0D01*
G01*
X49775000Y-130860000D01*
G75*
G02*
X49350000Y-130435000I0J425000D01*
G01*
X49350000Y-129585000D01*
G75*
G02*
X49775000Y-129160000I425000J0D01*
G01*
X51925000Y-129160000D01*
G75*
G02*
X52350000Y-129585000I0J-425000D01*
G01*
G37*
%TD.AperFunction*%
%TO.P,J1,7*%
%TO.N,Net-(ESP321-Pad9)*%
%TA.AperFunction,ComponentPad*%
G36*
G01*
X52350000Y-132125000D02*
X52350000Y-132975000D01*
G75*
G02*
X51925000Y-133400000I-425000J0D01*
G01*
X49775000Y-133400000D01*
G75*
G02*
X49350000Y-132975000I0J425000D01*
G01*
X49350000Y-132125000D01*
G75*
G02*
X49775000Y-131700000I425000J0D01*
G01*
X51925000Y-131700000D01*
G75*
G02*
X52350000Y-132125000I0J-425000D01*
G01*
G37*
%TD.AperFunction*%
%TO.P,J1,6*%
%TO.N,Net-(ESP321-Pad8)*%
%TA.AperFunction,ComponentPad*%
G36*
G01*
X52350000Y-134665000D02*
X52350000Y-135515000D01*
G75*
G02*
X51925000Y-135940000I-425000J0D01*
G01*
X49775000Y-135940000D01*
G75*
G02*
X49350000Y-135515000I0J425000D01*
G01*
X49350000Y-134665000D01*
G75*
G02*
X49775000Y-134240000I425000J0D01*
G01*
X51925000Y-134240000D01*
G75*
G02*
X52350000Y-134665000I0J-425000D01*
G01*
G37*
%TD.AperFunction*%
%TO.P,J1,5*%
%TO.N,Net-(ESP321-Pad14)*%
%TA.AperFunction,ComponentPad*%
G36*
G01*
X52350000Y-137205000D02*
X52350000Y-138055000D01*
G75*
G02*
X51925000Y-138480000I-425000J0D01*
G01*
X49775000Y-138480000D01*
G75*
G02*
X49350000Y-138055000I0J425000D01*
G01*
X49350000Y-137205000D01*
G75*
G02*
X49775000Y-136780000I425000J0D01*
G01*
X51925000Y-136780000D01*
G75*
G02*
X52350000Y-137205000I0J-425000D01*
G01*
G37*
%TD.AperFunction*%
%TO.P,J1,4*%
%TO.N,Net-(J1-Pad4)*%
%TA.AperFunction,ComponentPad*%
G36*
G01*
X52350000Y-139745000D02*
X52350000Y-140595000D01*
G75*
G02*
X51925000Y-141020000I-425000J0D01*
G01*
X49775000Y-141020000D01*
G75*
G02*
X49350000Y-140595000I0J425000D01*
G01*
X49350000Y-139745000D01*
G75*
G02*
X49775000Y-139320000I425000J0D01*
G01*
X51925000Y-139320000D01*
G75*
G02*
X52350000Y-139745000I0J-425000D01*
G01*
G37*
%TD.AperFunction*%
%TO.P,J1,3*%
%TO.N,Net-(J1-Pad3)*%
%TA.AperFunction,ComponentPad*%
G36*
G01*
X52350000Y-142285000D02*
X52350000Y-143135000D01*
G75*
G02*
X51925000Y-143560000I-425000J0D01*
G01*
X49775000Y-143560000D01*
G75*
G02*
X49350000Y-143135000I0J425000D01*
G01*
X49350000Y-142285000D01*
G75*
G02*
X49775000Y-141860000I425000J0D01*
G01*
X51925000Y-141860000D01*
G75*
G02*
X52350000Y-142285000I0J-425000D01*
G01*
G37*
%TD.AperFunction*%
%TO.P,J1,2*%
%TO.N,Net-(J1-Pad2)*%
%TA.AperFunction,ComponentPad*%
G36*
G01*
X52350000Y-144825000D02*
X52350000Y-145675000D01*
G75*
G02*
X51925000Y-146100000I-425000J0D01*
G01*
X49775000Y-146100000D01*
G75*
G02*
X49350000Y-145675000I0J425000D01*
G01*
X49350000Y-144825000D01*
G75*
G02*
X49775000Y-144400000I425000J0D01*
G01*
X51925000Y-144400000D01*
G75*
G02*
X52350000Y-144825000I0J-425000D01*
G01*
G37*
%TD.AperFunction*%
%TO.P,J1,1*%
%TO.N,Net-(J1-Pad1)*%
%TA.AperFunction,ComponentPad*%
G36*
G01*
X52350000Y-147365000D02*
X52350000Y-148215000D01*
G75*
G02*
X51925000Y-148640000I-425000J0D01*
G01*
X49775000Y-148640000D01*
G75*
G02*
X49350000Y-148215000I0J425000D01*
G01*
X49350000Y-147365000D01*
G75*
G02*
X49775000Y-146940000I425000J0D01*
G01*
X51925000Y-146940000D01*
G75*
G02*
X52350000Y-147365000I0J-425000D01*
G01*
G37*
%TD.AperFunction*%
%TD*%
%TO.P,J4,15*%
%TO.N,Net-(ESP321-Pad15)*%
%TA.AperFunction,ComponentPad*%
G36*
G01*
X117650000Y-148075000D02*
X117650000Y-147225000D01*
G75*
G02*
X118075000Y-146800000I425000J0D01*
G01*
X120225000Y-146800000D01*
G75*
G02*
X120650000Y-147225000I0J-425000D01*
G01*
X120650000Y-148075000D01*
G75*
G02*
X120225000Y-148500000I-425000J0D01*
G01*
X118075000Y-148500000D01*
G75*
G02*
X117650000Y-148075000I0J425000D01*
G01*
G37*
%TD.AperFunction*%
%TO.P,J4,14*%
%TA.AperFunction,ComponentPad*%
G36*
G01*
X117650000Y-145535000D02*
X117650000Y-144685000D01*
G75*
G02*
X118075000Y-144260000I425000J0D01*
G01*
X120225000Y-144260000D01*
G75*
G02*
X120650000Y-144685000I0J-425000D01*
G01*
X120650000Y-145535000D01*
G75*
G02*
X120225000Y-145960000I-425000J0D01*
G01*
X118075000Y-145960000D01*
G75*
G02*
X117650000Y-145535000I0J425000D01*
G01*
G37*
%TD.AperFunction*%
%TO.P,J4,13*%
%TA.AperFunction,ComponentPad*%
G36*
G01*
X117650000Y-142995000D02*
X117650000Y-142145000D01*
G75*
G02*
X118075000Y-141720000I425000J0D01*
G01*
X120225000Y-141720000D01*
G75*
G02*
X120650000Y-142145000I0J-425000D01*
G01*
X120650000Y-142995000D01*
G75*
G02*
X120225000Y-143420000I-425000J0D01*
G01*
X118075000Y-143420000D01*
G75*
G02*
X117650000Y-142995000I0J425000D01*
G01*
G37*
%TD.AperFunction*%
%TO.P,J4,12*%
%TA.AperFunction,ComponentPad*%
G36*
G01*
X117650000Y-140455000D02*
X117650000Y-139605000D01*
G75*
G02*
X118075000Y-139180000I425000J0D01*
G01*
X120225000Y-139180000D01*
G75*
G02*
X120650000Y-139605000I0J-425000D01*
G01*
X120650000Y-140455000D01*
G75*
G02*
X120225000Y-140880000I-425000J0D01*
G01*
X118075000Y-140880000D01*
G75*
G02*
X117650000Y-140455000I0J425000D01*
G01*
G37*
%TD.AperFunction*%
%TO.P,J4,11*%
%TO.N,Net-(J4-Pad11)*%
%TA.AperFunction,ComponentPad*%
G36*
G01*
X117650000Y-137915000D02*
X117650000Y-137065000D01*
G75*
G02*
X118075000Y-136640000I425000J0D01*
G01*
X120225000Y-136640000D01*
G75*
G02*
X120650000Y-137065000I0J-425000D01*
G01*
X120650000Y-137915000D01*
G75*
G02*
X120225000Y-138340000I-425000J0D01*
G01*
X118075000Y-138340000D01*
G75*
G02*
X117650000Y-137915000I0J425000D01*
G01*
G37*
%TD.AperFunction*%
%TO.P,J4,10*%
%TO.N,Net-(J4-Pad10)*%
%TA.AperFunction,ComponentPad*%
G36*
G01*
X117650000Y-135375000D02*
X117650000Y-134525000D01*
G75*
G02*
X118075000Y-134100000I425000J0D01*
G01*
X120225000Y-134100000D01*
G75*
G02*
X120650000Y-134525000I0J-425000D01*
G01*
X120650000Y-135375000D01*
G75*
G02*
X120225000Y-135800000I-425000J0D01*
G01*
X118075000Y-135800000D01*
G75*
G02*
X117650000Y-135375000I0J425000D01*
G01*
G37*
%TD.AperFunction*%
%TO.P,J4,9*%
%TO.N,Net-(ESP321-Pad14)*%
%TA.AperFunction,ComponentPad*%
G36*
G01*
X117650000Y-132835000D02*
X117650000Y-131985000D01*
G75*
G02*
X118075000Y-131560000I425000J0D01*
G01*
X120225000Y-131560000D01*
G75*
G02*
X120650000Y-131985000I0J-425000D01*
G01*
X120650000Y-132835000D01*
G75*
G02*
X120225000Y-133260000I-425000J0D01*
G01*
X118075000Y-133260000D01*
G75*
G02*
X117650000Y-132835000I0J425000D01*
G01*
G37*
%TD.AperFunction*%
%TO.P,J4,8*%
%TO.N,Net-(ESP321-Pad22)*%
%TA.AperFunction,ComponentPad*%
G36*
G01*
X117650000Y-130295000D02*
X117650000Y-129445000D01*
G75*
G02*
X118075000Y-129020000I425000J0D01*
G01*
X120225000Y-129020000D01*
G75*
G02*
X120650000Y-129445000I0J-425000D01*
G01*
X120650000Y-130295000D01*
G75*
G02*
X120225000Y-130720000I-425000J0D01*
G01*
X118075000Y-130720000D01*
G75*
G02*
X117650000Y-130295000I0J425000D01*
G01*
G37*
%TD.AperFunction*%
%TO.P,J4,7*%
%TO.N,Net-(ESP321-Pad10)*%
%TA.AperFunction,ComponentPad*%
G36*
G01*
X117650000Y-127755000D02*
X117650000Y-126905000D01*
G75*
G02*
X118075000Y-126480000I425000J0D01*
G01*
X120225000Y-126480000D01*
G75*
G02*
X120650000Y-126905000I0J-425000D01*
G01*
X120650000Y-127755000D01*
G75*
G02*
X120225000Y-128180000I-425000J0D01*
G01*
X118075000Y-128180000D01*
G75*
G02*
X117650000Y-127755000I0J425000D01*
G01*
G37*
%TD.AperFunction*%
%TO.P,J4,6*%
%TO.N,Net-(ESP321-Pad21)*%
%TA.AperFunction,ComponentPad*%
G36*
G01*
X117650000Y-125215000D02*
X117650000Y-124365000D01*
G75*
G02*
X118075000Y-123940000I425000J0D01*
G01*
X120225000Y-123940000D01*
G75*
G02*
X120650000Y-124365000I0J-425000D01*
G01*
X120650000Y-125215000D01*
G75*
G02*
X120225000Y-125640000I-425000J0D01*
G01*
X118075000Y-125640000D01*
G75*
G02*
X117650000Y-125215000I0J425000D01*
G01*
G37*
%TD.AperFunction*%
%TO.P,J4,5*%
%TO.N,Net-(ESP321-Pad14)*%
%TA.AperFunction,ComponentPad*%
G36*
G01*
X117650000Y-122675000D02*
X117650000Y-121825000D01*
G75*
G02*
X118075000Y-121400000I425000J0D01*
G01*
X120225000Y-121400000D01*
G75*
G02*
X120650000Y-121825000I0J-425000D01*
G01*
X120650000Y-122675000D01*
G75*
G02*
X120225000Y-123100000I-425000J0D01*
G01*
X118075000Y-123100000D01*
G75*
G02*
X117650000Y-122675000I0J425000D01*
G01*
G37*
%TD.AperFunction*%
%TO.P,J4,4*%
%TO.N,Net-(ESP321-Pad20)*%
%TA.AperFunction,ComponentPad*%
G36*
G01*
X117650000Y-120135000D02*
X117650000Y-119285000D01*
G75*
G02*
X118075000Y-118860000I425000J0D01*
G01*
X120225000Y-118860000D01*
G75*
G02*
X120650000Y-119285000I0J-425000D01*
G01*
X120650000Y-120135000D01*
G75*
G02*
X120225000Y-120560000I-425000J0D01*
G01*
X118075000Y-120560000D01*
G75*
G02*
X117650000Y-120135000I0J425000D01*
G01*
G37*
%TD.AperFunction*%
%TO.P,J4,3*%
%TO.N,Net-(ESP321-Pad18)*%
%TA.AperFunction,ComponentPad*%
G36*
G01*
X117650000Y-117595000D02*
X117650000Y-116745000D01*
G75*
G02*
X118075000Y-116320000I425000J0D01*
G01*
X120225000Y-116320000D01*
G75*
G02*
X120650000Y-116745000I0J-425000D01*
G01*
X120650000Y-117595000D01*
G75*
G02*
X120225000Y-118020000I-425000J0D01*
G01*
X118075000Y-118020000D01*
G75*
G02*
X117650000Y-117595000I0J425000D01*
G01*
G37*
%TD.AperFunction*%
%TO.P,J4,2*%
%TO.N,Net-(ESP321-Pad19)*%
%TA.AperFunction,ComponentPad*%
G36*
G01*
X117650000Y-115055000D02*
X117650000Y-114205000D01*
G75*
G02*
X118075000Y-113780000I425000J0D01*
G01*
X120225000Y-113780000D01*
G75*
G02*
X120650000Y-114205000I0J-425000D01*
G01*
X120650000Y-115055000D01*
G75*
G02*
X120225000Y-115480000I-425000J0D01*
G01*
X118075000Y-115480000D01*
G75*
G02*
X117650000Y-115055000I0J425000D01*
G01*
G37*
%TD.AperFunction*%
%TO.P,J4,1*%
%TO.N,Net-(ESP321-Pad14)*%
%TA.AperFunction,ComponentPad*%
G36*
G01*
X117650000Y-112515000D02*
X117650000Y-111665000D01*
G75*
G02*
X118075000Y-111240000I425000J0D01*
G01*
X120225000Y-111240000D01*
G75*
G02*
X120650000Y-111665000I0J-425000D01*
G01*
X120650000Y-112515000D01*
G75*
G02*
X120225000Y-112940000I-425000J0D01*
G01*
X118075000Y-112940000D01*
G75*
G02*
X117650000Y-112515000I0J425000D01*
G01*
G37*
%TD.AperFunction*%
%TD*%
D10*
%TO.P,J5,8*%
%TO.N,Net-(J5-Pad8)*%
X84570000Y-147900000D03*
%TO.P,J5,7*%
%TO.N,Net-(J5-Pad7)*%
X87110000Y-147900000D03*
%TO.P,J5,6*%
%TO.N,Net-(J5-Pad6)*%
X89650000Y-147900000D03*
%TO.P,J5,5*%
%TO.N,Net-(J5-Pad5)*%
X92190000Y-147900000D03*
%TO.P,J5,4*%
%TO.N,Net-(ESP321-Pad11)*%
X94730000Y-147900000D03*
%TO.P,J5,3*%
%TO.N,Net-(ESP321-Pad6)*%
X97270000Y-147900000D03*
%TO.P,J5,2*%
%TO.N,Net-(ESP321-Pad14)*%
X99810000Y-147900000D03*
D11*
%TO.P,J5,1*%
%TO.N,Net-(ESP321-Pad16)*%
X102350000Y-147900000D03*
%TD*%
D10*
%TO.P,ESP321,16*%
%TO.N,Net-(ESP321-Pad16)*%
X94360000Y-111800000D03*
%TO.P,ESP321,17*%
%TO.N,Net-(ESP321-Pad14)*%
X91820000Y-111800000D03*
%TO.P,ESP321,18*%
%TO.N,Net-(ESP321-Pad18)*%
X89280000Y-111800000D03*
%TO.P,ESP321,19*%
%TO.N,Net-(ESP321-Pad19)*%
X86740000Y-111800000D03*
%TO.P,ESP321,20*%
%TO.N,Net-(ESP321-Pad20)*%
X84200000Y-111800000D03*
%TO.P,ESP321,21*%
%TO.N,Net-(ESP321-Pad21)*%
X81660000Y-111800000D03*
%TO.P,ESP321,22*%
%TO.N,Net-(ESP321-Pad22)*%
X79120000Y-111800000D03*
%TO.P,ESP321,23*%
%TO.N,Net-(ESP321-Pad23)*%
X76580000Y-111800000D03*
%TO.P,ESP321,24*%
%TO.N,Net-(ESP321-Pad24)*%
X74040000Y-111800000D03*
%TO.P,ESP321,25*%
%TO.N,Net-(ESP321-Pad25)*%
X71500000Y-111800000D03*
%TO.P,ESP321,26*%
%TO.N,Net-(ESP321-Pad26)*%
X68960000Y-111800000D03*
%TO.P,ESP321,27*%
%TO.N,Net-(ESP321-Pad27)*%
X66420000Y-111800000D03*
%TO.P,ESP321,28*%
%TO.N,Net-(ESP321-Pad28)*%
X63880000Y-111800000D03*
%TO.P,ESP321,29*%
%TO.N,Net-(ESP321-Pad29)*%
X61340000Y-111800000D03*
D11*
%TO.P,ESP321,30*%
%TO.N,Net-(ESP321-Pad30)*%
X58800000Y-111800000D03*
X58800000Y-111800000D03*
D10*
%TO.P,ESP321,29*%
%TO.N,Net-(ESP321-Pad29)*%
X61340000Y-111800000D03*
%TO.P,ESP321,28*%
%TO.N,Net-(ESP321-Pad28)*%
X63880000Y-111800000D03*
%TO.P,ESP321,27*%
%TO.N,Net-(ESP321-Pad27)*%
X66420000Y-111800000D03*
%TO.P,ESP321,26*%
%TO.N,Net-(ESP321-Pad26)*%
X68960000Y-111800000D03*
%TO.P,ESP321,25*%
%TO.N,Net-(ESP321-Pad25)*%
X71500000Y-111800000D03*
%TO.P,ESP321,24*%
%TO.N,Net-(ESP321-Pad24)*%
X74040000Y-111800000D03*
%TO.P,ESP321,23*%
%TO.N,Net-(ESP321-Pad23)*%
X76580000Y-111800000D03*
%TO.P,ESP321,22*%
%TO.N,Net-(ESP321-Pad22)*%
X79120000Y-111800000D03*
%TO.P,ESP321,21*%
%TO.N,Net-(ESP321-Pad21)*%
X81660000Y-111800000D03*
%TO.P,ESP321,20*%
%TO.N,Net-(ESP321-Pad20)*%
X84200000Y-111800000D03*
%TO.P,ESP321,19*%
%TO.N,Net-(ESP321-Pad19)*%
X86740000Y-111800000D03*
%TO.P,ESP321,18*%
%TO.N,Net-(ESP321-Pad18)*%
X89280000Y-111800000D03*
%TO.P,ESP321,17*%
%TO.N,Net-(ESP321-Pad14)*%
X91820000Y-111800000D03*
%TO.P,ESP321,16*%
%TO.N,Net-(ESP321-Pad16)*%
X94360000Y-111800000D03*
%TO.P,ESP321,15*%
%TO.N,Net-(ESP321-Pad15)*%
X94460000Y-137500000D03*
%TO.P,ESP321,14*%
%TO.N,Net-(ESP321-Pad14)*%
X91920000Y-137500000D03*
%TO.P,ESP321,13*%
%TO.N,Net-(ESP321-Pad13)*%
X89380000Y-137500000D03*
%TO.P,ESP321,12*%
%TO.N,Net-(ESP321-Pad12)*%
X86840000Y-137500000D03*
%TO.P,ESP321,11*%
%TO.N,Net-(ESP321-Pad11)*%
X84300000Y-137500000D03*
%TO.P,ESP321,10*%
%TO.N,Net-(ESP321-Pad10)*%
X81760000Y-137500000D03*
%TO.P,ESP321,9*%
%TO.N,Net-(ESP321-Pad9)*%
X79220000Y-137500000D03*
%TO.P,ESP321,8*%
%TO.N,Net-(ESP321-Pad8)*%
X76680000Y-137500000D03*
%TO.P,ESP321,7*%
%TO.N,Net-(ESP321-Pad7)*%
X74140000Y-137500000D03*
%TO.P,ESP321,6*%
%TO.N,Net-(ESP321-Pad6)*%
X71600000Y-137500000D03*
%TO.P,ESP321,5*%
%TO.N,Net-(ESP321-Pad5)*%
X69060000Y-137500000D03*
%TO.P,ESP321,4*%
%TO.N,Net-(ESP321-Pad4)*%
X66520000Y-137500000D03*
%TO.P,ESP321,3*%
%TO.N,Net-(ESP321-Pad3)*%
X63980000Y-137500000D03*
%TO.P,ESP321,2*%
%TO.N,Net-(ESP321-Pad2)*%
X61440000Y-137500000D03*
D11*
%TO.P,ESP321,1*%
%TO.N,Net-(ESP321-Pad1)*%
X58900000Y-137500000D03*
X58900000Y-137500000D03*
D10*
%TO.P,ESP321,2*%
%TO.N,Net-(ESP321-Pad2)*%
X61440000Y-137500000D03*
%TO.P,ESP321,3*%
%TO.N,Net-(ESP321-Pad3)*%
X63980000Y-137500000D03*
%TO.P,ESP321,4*%
%TO.N,Net-(ESP321-Pad4)*%
X66520000Y-137500000D03*
%TO.P,ESP321,5*%
%TO.N,Net-(ESP321-Pad5)*%
X69060000Y-137500000D03*
%TO.P,ESP321,6*%
%TO.N,Net-(ESP321-Pad6)*%
X71600000Y-137500000D03*
%TO.P,ESP321,7*%
%TO.N,Net-(ESP321-Pad7)*%
X74140000Y-137500000D03*
%TO.P,ESP321,8*%
%TO.N,Net-(ESP321-Pad8)*%
X76680000Y-137500000D03*
%TO.P,ESP321,9*%
%TO.N,Net-(ESP321-Pad9)*%
X79220000Y-137500000D03*
%TO.P,ESP321,10*%
%TO.N,Net-(ESP321-Pad10)*%
X81760000Y-137500000D03*
%TO.P,ESP321,11*%
%TO.N,Net-(ESP321-Pad11)*%
X84300000Y-137500000D03*
%TO.P,ESP321,12*%
%TO.N,Net-(ESP321-Pad12)*%
X86840000Y-137500000D03*
%TO.P,ESP321,13*%
%TO.N,Net-(ESP321-Pad13)*%
X89380000Y-137500000D03*
%TO.P,ESP321,14*%
%TO.N,Net-(ESP321-Pad14)*%
X91920000Y-137500000D03*
%TO.P,ESP321,15*%
%TO.N,Net-(ESP321-Pad15)*%
X94460000Y-137500000D03*
%TD*%
D11*
%TO.P,J2,1*%
%TO.N,Net-(ESP321-Pad14)*%
X112250000Y-140100000D03*
D10*
%TO.P,J2,2*%
%TO.N,Net-(ESP321-Pad16)*%
X112250000Y-142640000D03*
%TO.P,J2,3*%
%TO.N,Net-(ESP321-Pad26)*%
X112250000Y-145180000D03*
%TO.P,J2,4*%
%TO.N,Net-(ESP321-Pad29)*%
X112250000Y-147720000D03*
%TD*%
%TO.P,J3,4*%
%TO.N,Net-(ESP321-Pad6)*%
X112150000Y-112280000D03*
%TO.P,J3,3*%
%TO.N,Net-(ESP321-Pad11)*%
X112150000Y-114820000D03*
%TO.P,J3,2*%
%TO.N,Net-(ESP321-Pad16)*%
X112150000Y-117360000D03*
D11*
%TO.P,J3,1*%
%TO.N,Net-(ESP321-Pad14)*%
X112150000Y-119900000D03*
%TD*%
D10*
%TO.P,J6,2*%
%TO.N,Net-(ESP321-Pad14)*%
X74690000Y-147800000D03*
D11*
%TO.P,J6,1*%
%TO.N,Net-(ESP321-Pad16)*%
X72150000Y-147800000D03*
%TD*%
%TO.P,J7,1*%
%TO.N,Net-(ESP321-Pad14)*%
X60450000Y-147800000D03*
D10*
%TO.P,J7,2*%
%TO.N,Net-(ESP321-Pad15)*%
X62990000Y-147800000D03*
%TD*%
D12*
%TO.N,Net-(ESP321-Pad16)*%
X108550000Y-117250000D03*
%TO.N,Net-(ESP321-Pad18)*%
X118300000Y-117100000D03*
X112150000Y-122250000D03*
X112150000Y-122250000D03*
X102400000Y-121550000D03*
%TO.N,Net-(ESP321-Pad19)*%
X118300000Y-114550000D03*
X113224999Y-122975001D03*
X115650305Y-115400305D03*
X115625000Y-119225000D03*
X103700000Y-122325010D03*
%TO.N,Net-(ESP321-Pad20)*%
X118300000Y-119650000D03*
X107400000Y-123550000D03*
X112200000Y-124050000D03*
%TO.N,Net-(ESP321-Pad21)*%
X118300000Y-124700000D03*
X115000000Y-125050000D03*
X110150000Y-124500000D03*
X101600000Y-125600000D03*
X94650000Y-124700000D03*
%TO.N,Net-(ESP321-Pad22)*%
X118300000Y-129800000D03*
X103900000Y-125850000D03*
X111237653Y-129537653D03*
X113312347Y-129537653D03*
%TO.N,Net-(ESP321-Pad23)*%
X51800000Y-114700000D03*
%TO.N,Net-(ESP321-Pad24)*%
X51800000Y-117250000D03*
X65150000Y-118450000D03*
%TO.N,Net-(ESP321-Pad25)*%
X51800000Y-119800000D03*
%TO.N,Net-(ESP321-Pad26)*%
X73400000Y-113750000D03*
X94250000Y-126750000D03*
X102150000Y-134950000D03*
X108800000Y-141650000D03*
%TO.N,Net-(ESP321-Pad29)*%
X61550000Y-118550000D03*
X101300000Y-135700000D03*
X106850000Y-141350000D03*
%TO.N,Net-(ESP321-Pad15)*%
X118250000Y-139950000D03*
X118250000Y-142500000D03*
X118250000Y-145050000D03*
X118250000Y-147550000D03*
X99550000Y-137850000D03*
X102150000Y-140450000D03*
X112600000Y-137050000D03*
%TO.N,Net-(ESP321-Pad14)*%
X97500000Y-126600000D03*
X118300000Y-132350000D03*
X118300000Y-122150000D03*
X118300000Y-112000000D03*
X51800000Y-137550000D03*
X51800000Y-127400000D03*
X51800000Y-112150000D03*
X53750000Y-118650000D03*
X101050000Y-131300000D03*
%TO.N,Net-(ESP321-Pad13)*%
X51800000Y-129950000D03*
%TO.N,Net-(ESP321-Pad12)*%
X51800000Y-124850000D03*
X64800000Y-124850000D03*
%TO.N,Net-(ESP321-Pad11)*%
X85000000Y-142050000D03*
X94000000Y-132750000D03*
X106600000Y-116650000D03*
X84250000Y-133700000D03*
%TO.N,Net-(ESP321-Pad10)*%
X118300000Y-127250000D03*
X113280000Y-127330000D03*
%TO.N,Net-(ESP321-Pad9)*%
X51800000Y-132500000D03*
%TO.N,Net-(ESP321-Pad8)*%
X51800000Y-135000000D03*
%TO.N,Net-(ESP321-Pad7)*%
X51800000Y-122300000D03*
X58890000Y-122250000D03*
%TO.N,Net-(ESP321-Pad6)*%
X88950000Y-144750000D03*
X95650000Y-143700000D03*
X97550000Y-134150000D03*
X95650000Y-132250000D03*
X103350000Y-117900000D03*
%TO.N,Net-(J1-Pad1)*%
X51800000Y-147700000D03*
%TO.N,Net-(J1-Pad2)*%
X51800000Y-145200000D03*
%TO.N,Net-(J1-Pad3)*%
X51800000Y-142650000D03*
%TO.N,Net-(J1-Pad4)*%
X51800000Y-140100000D03*
%TO.N,Net-(J4-Pad11)*%
X118250000Y-137400000D03*
%TO.N,Net-(J4-Pad10)*%
X118300000Y-134850000D03*
%TD*%
D13*
%TO.N,Net-(ESP321-Pad16)*%
X112800002Y-126100002D02*
X109250002Y-126100002D01*
X109250002Y-126100002D02*
X108550000Y-125400000D01*
X108550000Y-125400000D02*
X108550000Y-124100000D01*
X113750002Y-126100002D02*
X112800002Y-126100002D01*
X112250000Y-142640000D02*
X114400000Y-140490000D01*
X114400000Y-126750000D02*
X113750002Y-126100002D01*
X114400000Y-140490000D02*
X114400000Y-126750000D01*
X108550000Y-124100000D02*
X108550000Y-117250000D01*
%TO.N,Net-(ESP321-Pad18)*%
X114450000Y-121700000D02*
X113900000Y-122250000D01*
X113900000Y-122250000D02*
X112150000Y-122250000D01*
X114450000Y-117750000D02*
X114450000Y-121700000D01*
X115030000Y-117170000D02*
X114450000Y-117750000D01*
X119649990Y-117170000D02*
X115030000Y-117170000D01*
X99030000Y-121550000D02*
X98990000Y-121510000D01*
X102400000Y-121550000D02*
X99030000Y-121550000D01*
X89280000Y-111800000D02*
X98990000Y-121510000D01*
%TO.N,Net-(ESP321-Pad19)*%
X115625000Y-121525000D02*
X115650305Y-121525000D01*
X114174999Y-122975001D02*
X115625000Y-121525000D01*
X113224999Y-122975001D02*
X114174999Y-122975001D01*
X115650305Y-115400305D02*
X115650305Y-114749695D01*
X115770000Y-114630000D02*
X119649990Y-114630000D01*
X115650305Y-114749695D02*
X115770000Y-114630000D01*
X115625000Y-121525000D02*
X115625000Y-119225000D01*
X103700000Y-122325010D02*
X97265010Y-122325010D01*
X86740000Y-111800000D02*
X97095000Y-122155000D01*
X97265010Y-122325010D02*
X97095000Y-122155000D01*
%TO.N,Net-(ESP321-Pad20)*%
X95450010Y-123050010D02*
X105650010Y-123050010D01*
X84200000Y-111800000D02*
X95450010Y-123050010D01*
X105650010Y-123050010D02*
X106150000Y-123550000D01*
X106150000Y-123550000D02*
X107400000Y-123550000D01*
X112200000Y-124050000D02*
X114465685Y-124050000D01*
X114465685Y-124050000D02*
X116750000Y-121765685D01*
X116750000Y-121765685D02*
X116750000Y-120100000D01*
X117140000Y-119710000D02*
X119649990Y-119710000D01*
X116750000Y-120100000D02*
X117140000Y-119710000D01*
%TO.N,Net-(ESP321-Pad21)*%
X115000000Y-125050000D02*
X110700000Y-125050000D01*
X110700000Y-125050000D02*
X110150000Y-124500000D01*
X101600000Y-125600000D02*
X100950000Y-125600000D01*
X100950000Y-125600000D02*
X95550000Y-125600000D01*
X95550000Y-125600000D02*
X94650000Y-124700000D01*
%TO.N,Net-(ESP321-Pad22)*%
X79120000Y-118120000D02*
X79120000Y-111800000D01*
X83500000Y-122500000D02*
X79120000Y-118120000D01*
X89250000Y-122500000D02*
X83500000Y-122500000D01*
X90400010Y-123650010D02*
X89250000Y-122500000D01*
X103900000Y-125850000D02*
X101700010Y-123650010D01*
X101700010Y-123650010D02*
X90400010Y-123650010D01*
X111237653Y-129537653D02*
X113312347Y-129537653D01*
%TO.N,Net-(ESP321-Pad23)*%
X73610000Y-114770000D02*
X50350010Y-114770000D01*
X76580000Y-111800000D02*
X73610000Y-114770000D01*
%TO.N,Net-(ESP321-Pad24)*%
X53710000Y-117310000D02*
X50350010Y-117310000D01*
X65150000Y-118450000D02*
X63550000Y-118450000D01*
X63550000Y-118450000D02*
X61950000Y-116850000D01*
X54170000Y-116850000D02*
X53710000Y-117310000D01*
X61950000Y-116850000D02*
X54170000Y-116850000D01*
%TO.N,Net-(ESP321-Pad26)*%
X68960000Y-111800000D02*
X70910000Y-113750000D01*
X70910000Y-113750000D02*
X73400000Y-113750000D01*
X94250000Y-126750000D02*
X94250000Y-127050000D01*
X94250000Y-127050000D02*
X102150000Y-134950000D01*
X112250000Y-145100000D02*
X112250000Y-145180000D01*
X108800000Y-141650000D02*
X112250000Y-145100000D01*
%TO.N,Net-(ESP321-Pad29)*%
X61550000Y-118550000D02*
X66250000Y-123250000D01*
X66250000Y-123250000D02*
X88850000Y-123250000D01*
X88850000Y-123250000D02*
X101300000Y-135700000D01*
X106850000Y-142320000D02*
X112250000Y-147720000D01*
X106850000Y-141350000D02*
X106850000Y-142320000D01*
D14*
%TO.N,Net-(ESP321-Pad15)*%
X94460000Y-137500000D02*
X99200000Y-137500000D01*
D13*
X99200000Y-137500000D02*
X99550000Y-137850000D01*
D14*
X102150000Y-140450000D02*
X105550000Y-137050000D01*
X105550000Y-137050000D02*
X112600000Y-137050000D01*
D13*
%TO.N,Net-(ESP321-Pad14)*%
X99810000Y-147900000D02*
X99810000Y-145090000D01*
X104800000Y-140100000D02*
X112250000Y-140100000D01*
X99810000Y-145090000D02*
X104800000Y-140100000D01*
D14*
X54950000Y-145900000D02*
X53350000Y-144300000D01*
X53350000Y-144300000D02*
X53350000Y-138300000D01*
X53350000Y-138300000D02*
X52680000Y-137630000D01*
X51800000Y-127400000D02*
X53500000Y-129100000D01*
X53500000Y-136560000D02*
X52430000Y-137630000D01*
X53500000Y-129100000D02*
X53500000Y-136560000D01*
D13*
X52680000Y-137630000D02*
X52430000Y-137630000D01*
D14*
X52430000Y-137630000D02*
X51000000Y-137630000D01*
X51800000Y-127400000D02*
X52675010Y-126524990D01*
X52675010Y-126524990D02*
X53750000Y-125450000D01*
X53750000Y-125450000D02*
X53750000Y-123600000D01*
X53750000Y-121050000D02*
X53750000Y-118650000D01*
X53750000Y-123600000D02*
X53750000Y-121050000D01*
X58550000Y-145900000D02*
X60450000Y-147800000D01*
X54950000Y-145900000D02*
X58550000Y-145900000D01*
D13*
X97950000Y-128200000D02*
X101050000Y-131300000D01*
X97950000Y-127050000D02*
X97500000Y-126600000D01*
X97950000Y-128200000D02*
X97950000Y-127050000D01*
%TO.N,Net-(ESP321-Pad12)*%
X86840000Y-137500000D02*
X74190000Y-124850000D01*
X74190000Y-124850000D02*
X64800000Y-124850000D01*
%TO.N,Net-(ESP321-Pad11)*%
X88079002Y-142050000D02*
X89529002Y-143500000D01*
X85000000Y-142050000D02*
X88079002Y-142050000D01*
X90330000Y-143500000D02*
X94730000Y-147900000D01*
X89529002Y-143500000D02*
X90330000Y-143500000D01*
X94000000Y-132750000D02*
X94000000Y-132750000D01*
X108430000Y-114820000D02*
X112150000Y-114820000D01*
X106600000Y-116650000D02*
X108430000Y-114820000D01*
X84250000Y-133700000D02*
X85100000Y-132850000D01*
X93900000Y-132850000D02*
X94000000Y-132750000D01*
X85100000Y-132850000D02*
X93900000Y-132850000D01*
%TO.N,Net-(ESP321-Pad10)*%
X85110000Y-140850000D02*
X81760000Y-137500000D01*
X98900000Y-140850000D02*
X85110000Y-140850000D01*
X105850000Y-130150000D02*
X105850000Y-133900000D01*
X113280000Y-127330000D02*
X108670000Y-127330000D01*
X105850000Y-133900000D02*
X98900000Y-140850000D01*
X108670000Y-127330000D02*
X105850000Y-130150000D01*
%TO.N,Net-(ESP321-Pad7)*%
X74140000Y-137500000D02*
X58890000Y-122250000D01*
X58890000Y-122250000D02*
X58890000Y-122250000D01*
%TO.N,Net-(ESP321-Pad6)*%
X71600000Y-137500000D02*
X72500000Y-138400000D01*
X72500000Y-138400000D02*
X72600000Y-138400000D01*
X72600000Y-138400000D02*
X73750000Y-139550000D01*
X73750000Y-139550000D02*
X79450000Y-139550000D01*
X79450000Y-139550000D02*
X84650000Y-144750000D01*
X84650000Y-144750000D02*
X88950000Y-144750000D01*
X95650000Y-146280000D02*
X97270000Y-147900000D01*
X95650000Y-143700000D02*
X95650000Y-146280000D01*
X97550000Y-134150000D02*
X95650000Y-132250000D01*
X108970000Y-112280000D02*
X112150000Y-112280000D01*
X103350000Y-117900000D02*
X108970000Y-112280000D01*
%TD*%
D15*
%TO.N,Net-(ESP321-Pad14)*%
X61059744Y-117632795D02*
X60890226Y-117746063D01*
X60746063Y-117890226D01*
X60632795Y-118059744D01*
X60554774Y-118248102D01*
X60515000Y-118448061D01*
X60515000Y-118651939D01*
X60554774Y-118851898D01*
X60632795Y-119040256D01*
X60746063Y-119209774D01*
X60890226Y-119353937D01*
X61059744Y-119467205D01*
X61248102Y-119545226D01*
X61448061Y-119585000D01*
X61510199Y-119585000D01*
X65686200Y-123761002D01*
X65709999Y-123790001D01*
X65825724Y-123884974D01*
X65957753Y-123955546D01*
X66101014Y-123999003D01*
X66212667Y-124010000D01*
X66212675Y-124010000D01*
X66250000Y-124013676D01*
X66287325Y-124010000D01*
X88535199Y-124010000D01*
X95740198Y-131215000D01*
X95548061Y-131215000D01*
X95348102Y-131254774D01*
X95159744Y-131332795D01*
X94990226Y-131446063D01*
X94846063Y-131590226D01*
X94732795Y-131759744D01*
X94656519Y-131943888D01*
X94490256Y-131832795D01*
X94301898Y-131754774D01*
X94101939Y-131715000D01*
X93898061Y-131715000D01*
X93698102Y-131754774D01*
X93509744Y-131832795D01*
X93340226Y-131946063D01*
X93196289Y-132090000D01*
X85137333Y-132090000D01*
X85100000Y-132086323D01*
X85062667Y-132090000D01*
X84951014Y-132100997D01*
X84807753Y-132144454D01*
X84675724Y-132215026D01*
X84559999Y-132309999D01*
X84536201Y-132338997D01*
X84210198Y-132665000D01*
X84148061Y-132665000D01*
X83948102Y-132704774D01*
X83759744Y-132782795D01*
X83590226Y-132896063D01*
X83450545Y-133035744D01*
X74753804Y-124339003D01*
X74730001Y-124309999D01*
X74614276Y-124215026D01*
X74482247Y-124144454D01*
X74338986Y-124100997D01*
X74227333Y-124090000D01*
X74227322Y-124090000D01*
X74190000Y-124086324D01*
X74152678Y-124090000D01*
X65503711Y-124090000D01*
X65459774Y-124046063D01*
X65290256Y-123932795D01*
X65101898Y-123854774D01*
X64901939Y-123815000D01*
X64698061Y-123815000D01*
X64498102Y-123854774D01*
X64309744Y-123932795D01*
X64140226Y-124046063D01*
X63996063Y-124190226D01*
X63882795Y-124359744D01*
X63804774Y-124548102D01*
X63765000Y-124748061D01*
X63765000Y-124951939D01*
X63804774Y-125151898D01*
X63882795Y-125340256D01*
X63996063Y-125509774D01*
X64140226Y-125653937D01*
X64309744Y-125767205D01*
X64498102Y-125845226D01*
X64698061Y-125885000D01*
X64901939Y-125885000D01*
X65101898Y-125845226D01*
X65290256Y-125767205D01*
X65459774Y-125653937D01*
X65503711Y-125610000D01*
X73875199Y-125610000D01*
X84280198Y-136015000D01*
X84153740Y-136015000D01*
X83866842Y-136072068D01*
X83596589Y-136184010D01*
X83353368Y-136346525D01*
X83146525Y-136553368D01*
X83030000Y-136727760D01*
X82913475Y-136553368D01*
X82706632Y-136346525D01*
X82463411Y-136184010D01*
X82193158Y-136072068D01*
X81906260Y-136015000D01*
X81613740Y-136015000D01*
X81326842Y-136072068D01*
X81056589Y-136184010D01*
X80813368Y-136346525D01*
X80606525Y-136553368D01*
X80490000Y-136727760D01*
X80373475Y-136553368D01*
X80166632Y-136346525D01*
X79923411Y-136184010D01*
X79653158Y-136072068D01*
X79366260Y-136015000D01*
X79073740Y-136015000D01*
X78786842Y-136072068D01*
X78516589Y-136184010D01*
X78273368Y-136346525D01*
X78066525Y-136553368D01*
X77950000Y-136727760D01*
X77833475Y-136553368D01*
X77626632Y-136346525D01*
X77383411Y-136184010D01*
X77113158Y-136072068D01*
X76826260Y-136015000D01*
X76533740Y-136015000D01*
X76246842Y-136072068D01*
X75976589Y-136184010D01*
X75733368Y-136346525D01*
X75526525Y-136553368D01*
X75410000Y-136727760D01*
X75293475Y-136553368D01*
X75086632Y-136346525D01*
X74843411Y-136184010D01*
X74573158Y-136072068D01*
X74286260Y-136015000D01*
X73993740Y-136015000D01*
X73773592Y-136058790D01*
X59925000Y-122210199D01*
X59925000Y-122148061D01*
X59885226Y-121948102D01*
X59807205Y-121759744D01*
X59693937Y-121590226D01*
X59549774Y-121446063D01*
X59380256Y-121332795D01*
X59191898Y-121254774D01*
X58991939Y-121215000D01*
X58788061Y-121215000D01*
X58588102Y-121254774D01*
X58399744Y-121332795D01*
X58230226Y-121446063D01*
X58086063Y-121590226D01*
X57972795Y-121759744D01*
X57894774Y-121948102D01*
X57855000Y-122148061D01*
X57855000Y-122351939D01*
X57894774Y-122551898D01*
X57972795Y-122740256D01*
X58086063Y-122909774D01*
X58230226Y-123053937D01*
X58399744Y-123167205D01*
X58588102Y-123245226D01*
X58788061Y-123285000D01*
X58850199Y-123285000D01*
X71580198Y-136015000D01*
X71453740Y-136015000D01*
X71166842Y-136072068D01*
X70896589Y-136184010D01*
X70653368Y-136346525D01*
X70446525Y-136553368D01*
X70330000Y-136727760D01*
X70213475Y-136553368D01*
X70006632Y-136346525D01*
X69763411Y-136184010D01*
X69493158Y-136072068D01*
X69206260Y-136015000D01*
X68913740Y-136015000D01*
X68626842Y-136072068D01*
X68356589Y-136184010D01*
X68113368Y-136346525D01*
X67906525Y-136553368D01*
X67790000Y-136727760D01*
X67673475Y-136553368D01*
X67466632Y-136346525D01*
X67223411Y-136184010D01*
X66953158Y-136072068D01*
X66666260Y-136015000D01*
X66373740Y-136015000D01*
X66086842Y-136072068D01*
X65816589Y-136184010D01*
X65573368Y-136346525D01*
X65366525Y-136553368D01*
X65250000Y-136727760D01*
X65133475Y-136553368D01*
X64926632Y-136346525D01*
X64683411Y-136184010D01*
X64413158Y-136072068D01*
X64126260Y-136015000D01*
X63833740Y-136015000D01*
X63546842Y-136072068D01*
X63276589Y-136184010D01*
X63033368Y-136346525D01*
X62826525Y-136553368D01*
X62710000Y-136727760D01*
X62593475Y-136553368D01*
X62386632Y-136346525D01*
X62143411Y-136184010D01*
X61873158Y-136072068D01*
X61586260Y-136015000D01*
X61293740Y-136015000D01*
X61006842Y-136072068D01*
X60736589Y-136184010D01*
X60493368Y-136346525D01*
X60361513Y-136478380D01*
X60339502Y-136405820D01*
X60280537Y-136295506D01*
X60201185Y-136198815D01*
X60104494Y-136119463D01*
X59994180Y-136060498D01*
X59874482Y-136024188D01*
X59750000Y-136011928D01*
X58050000Y-136011928D01*
X57925518Y-136024188D01*
X57805820Y-136060498D01*
X57695506Y-136119463D01*
X57598815Y-136198815D01*
X57519463Y-136295506D01*
X57460498Y-136405820D01*
X57424188Y-136525518D01*
X57411928Y-136650000D01*
X57411928Y-138350000D01*
X57424188Y-138474482D01*
X57460498Y-138594180D01*
X57519463Y-138704494D01*
X57598815Y-138801185D01*
X57695506Y-138880537D01*
X57805820Y-138939502D01*
X57925518Y-138975812D01*
X58050000Y-138988072D01*
X59750000Y-138988072D01*
X59874482Y-138975812D01*
X59994180Y-138939502D01*
X60104494Y-138880537D01*
X60201185Y-138801185D01*
X60280537Y-138704494D01*
X60339502Y-138594180D01*
X60361513Y-138521620D01*
X60493368Y-138653475D01*
X60736589Y-138815990D01*
X61006842Y-138927932D01*
X61293740Y-138985000D01*
X61586260Y-138985000D01*
X61873158Y-138927932D01*
X62143411Y-138815990D01*
X62386632Y-138653475D01*
X62593475Y-138446632D01*
X62710000Y-138272240D01*
X62826525Y-138446632D01*
X63033368Y-138653475D01*
X63276589Y-138815990D01*
X63546842Y-138927932D01*
X63833740Y-138985000D01*
X64126260Y-138985000D01*
X64413158Y-138927932D01*
X64683411Y-138815990D01*
X64926632Y-138653475D01*
X65133475Y-138446632D01*
X65250000Y-138272240D01*
X65366525Y-138446632D01*
X65573368Y-138653475D01*
X65816589Y-138815990D01*
X66086842Y-138927932D01*
X66373740Y-138985000D01*
X66666260Y-138985000D01*
X66953158Y-138927932D01*
X67223411Y-138815990D01*
X67466632Y-138653475D01*
X67673475Y-138446632D01*
X67790000Y-138272240D01*
X67906525Y-138446632D01*
X68113368Y-138653475D01*
X68356589Y-138815990D01*
X68626842Y-138927932D01*
X68913740Y-138985000D01*
X69206260Y-138985000D01*
X69493158Y-138927932D01*
X69763411Y-138815990D01*
X70006632Y-138653475D01*
X70213475Y-138446632D01*
X70330000Y-138272240D01*
X70446525Y-138446632D01*
X70653368Y-138653475D01*
X70896589Y-138815990D01*
X71166842Y-138927932D01*
X71453740Y-138985000D01*
X71746260Y-138985000D01*
X71962435Y-138942000D01*
X72075724Y-139034974D01*
X72207753Y-139105546D01*
X72240756Y-139115557D01*
X73186200Y-140061002D01*
X73209999Y-140090001D01*
X73238997Y-140113799D01*
X73325724Y-140184974D01*
X73457753Y-140255546D01*
X73601014Y-140299003D01*
X73750000Y-140313677D01*
X73787333Y-140310000D01*
X79135199Y-140310000D01*
X84086201Y-145261003D01*
X84109999Y-145290001D01*
X84138997Y-145313799D01*
X84225724Y-145384974D01*
X84357753Y-145455546D01*
X84501014Y-145499003D01*
X84650000Y-145513677D01*
X84687333Y-145510000D01*
X88246289Y-145510000D01*
X88290226Y-145553937D01*
X88459744Y-145667205D01*
X88648102Y-145745226D01*
X88848061Y-145785000D01*
X89051939Y-145785000D01*
X89251898Y-145745226D01*
X89440256Y-145667205D01*
X89609774Y-145553937D01*
X89753937Y-145409774D01*
X89867205Y-145240256D01*
X89945226Y-145051898D01*
X89985000Y-144851939D01*
X89985000Y-144648061D01*
X89945226Y-144448102D01*
X89867311Y-144260000D01*
X90015199Y-144260000D01*
X92170198Y-146415000D01*
X92043740Y-146415000D01*
X91756842Y-146472068D01*
X91486589Y-146584010D01*
X91243368Y-146746525D01*
X91036525Y-146953368D01*
X90920000Y-147127760D01*
X90803475Y-146953368D01*
X90596632Y-146746525D01*
X90353411Y-146584010D01*
X90083158Y-146472068D01*
X89796260Y-146415000D01*
X89503740Y-146415000D01*
X89216842Y-146472068D01*
X88946589Y-146584010D01*
X88703368Y-146746525D01*
X88496525Y-146953368D01*
X88380000Y-147127760D01*
X88263475Y-146953368D01*
X88056632Y-146746525D01*
X87813411Y-146584010D01*
X87543158Y-146472068D01*
X87256260Y-146415000D01*
X86963740Y-146415000D01*
X86676842Y-146472068D01*
X86406589Y-146584010D01*
X86163368Y-146746525D01*
X85956525Y-146953368D01*
X85840000Y-147127760D01*
X85723475Y-146953368D01*
X85516632Y-146746525D01*
X85273411Y-146584010D01*
X85003158Y-146472068D01*
X84716260Y-146415000D01*
X84423740Y-146415000D01*
X84136842Y-146472068D01*
X83866589Y-146584010D01*
X83623368Y-146746525D01*
X83416525Y-146953368D01*
X83254010Y-147196589D01*
X83142068Y-147466842D01*
X83085000Y-147753740D01*
X83085000Y-148046260D01*
X83142068Y-148333158D01*
X83254010Y-148603411D01*
X83416525Y-148846632D01*
X83623368Y-149053475D01*
X83866589Y-149215990D01*
X84045266Y-149290000D01*
X50660000Y-149290000D01*
X50660000Y-149278072D01*
X51925000Y-149278072D01*
X52132395Y-149257645D01*
X52331820Y-149197150D01*
X52515611Y-149098912D01*
X52676705Y-148966705D01*
X52808912Y-148805611D01*
X52892087Y-148650000D01*
X58961928Y-148650000D01*
X58974188Y-148774482D01*
X59010498Y-148894180D01*
X59069463Y-149004494D01*
X59148815Y-149101185D01*
X59245506Y-149180537D01*
X59355820Y-149239502D01*
X59475518Y-149275812D01*
X59600000Y-149288072D01*
X60164250Y-149285000D01*
X60323000Y-149126250D01*
X60323000Y-147927000D01*
X59123750Y-147927000D01*
X58965000Y-148085750D01*
X58961928Y-148650000D01*
X52892087Y-148650000D01*
X52907150Y-148621820D01*
X52967645Y-148422395D01*
X52988072Y-148215000D01*
X52988072Y-147365000D01*
X52967645Y-147157605D01*
X52907150Y-146958180D01*
X52902778Y-146950000D01*
X58961928Y-146950000D01*
X58965000Y-147514250D01*
X59123750Y-147673000D01*
X60323000Y-147673000D01*
X60323000Y-146473750D01*
X60577000Y-146473750D01*
X60577000Y-147673000D01*
X60597000Y-147673000D01*
X60597000Y-147927000D01*
X60577000Y-147927000D01*
X60577000Y-149126250D01*
X60735750Y-149285000D01*
X61300000Y-149288072D01*
X61424482Y-149275812D01*
X61544180Y-149239502D01*
X61654494Y-149180537D01*
X61751185Y-149101185D01*
X61830537Y-149004494D01*
X61889502Y-148894180D01*
X61911513Y-148821620D01*
X62043368Y-148953475D01*
X62286589Y-149115990D01*
X62556842Y-149227932D01*
X62843740Y-149285000D01*
X63136260Y-149285000D01*
X63423158Y-149227932D01*
X63693411Y-149115990D01*
X63936632Y-148953475D01*
X64143475Y-148746632D01*
X64305990Y-148503411D01*
X64417932Y-148233158D01*
X64475000Y-147946260D01*
X64475000Y-147653740D01*
X64417932Y-147366842D01*
X64305990Y-147096589D01*
X64208043Y-146950000D01*
X70661928Y-146950000D01*
X70661928Y-148650000D01*
X70674188Y-148774482D01*
X70710498Y-148894180D01*
X70769463Y-149004494D01*
X70848815Y-149101185D01*
X70945506Y-149180537D01*
X71055820Y-149239502D01*
X71175518Y-149275812D01*
X71300000Y-149288072D01*
X73000000Y-149288072D01*
X73124482Y-149275812D01*
X73244180Y-149239502D01*
X73354494Y-149180537D01*
X73451185Y-149101185D01*
X73530537Y-149004494D01*
X73589502Y-148894180D01*
X73613966Y-148813534D01*
X73689731Y-148897588D01*
X73923080Y-149071641D01*
X74185901Y-149196825D01*
X74333110Y-149241476D01*
X74563000Y-149120155D01*
X74563000Y-147927000D01*
X74817000Y-147927000D01*
X74817000Y-149120155D01*
X75046890Y-149241476D01*
X75194099Y-149196825D01*
X75456920Y-149071641D01*
X75690269Y-148897588D01*
X75885178Y-148681355D01*
X76034157Y-148431252D01*
X76131481Y-148156891D01*
X76010814Y-147927000D01*
X74817000Y-147927000D01*
X74563000Y-147927000D01*
X74543000Y-147927000D01*
X74543000Y-147673000D01*
X74563000Y-147673000D01*
X74563000Y-146479845D01*
X74817000Y-146479845D01*
X74817000Y-147673000D01*
X76010814Y-147673000D01*
X76131481Y-147443109D01*
X76034157Y-147168748D01*
X75885178Y-146918645D01*
X75690269Y-146702412D01*
X75456920Y-146528359D01*
X75194099Y-146403175D01*
X75046890Y-146358524D01*
X74817000Y-146479845D01*
X74563000Y-146479845D01*
X74333110Y-146358524D01*
X74185901Y-146403175D01*
X73923080Y-146528359D01*
X73689731Y-146702412D01*
X73613966Y-146786466D01*
X73589502Y-146705820D01*
X73530537Y-146595506D01*
X73451185Y-146498815D01*
X73354494Y-146419463D01*
X73244180Y-146360498D01*
X73124482Y-146324188D01*
X73000000Y-146311928D01*
X71300000Y-146311928D01*
X71175518Y-146324188D01*
X71055820Y-146360498D01*
X70945506Y-146419463D01*
X70848815Y-146498815D01*
X70769463Y-146595506D01*
X70710498Y-146705820D01*
X70674188Y-146825518D01*
X70661928Y-146950000D01*
X64208043Y-146950000D01*
X64143475Y-146853368D01*
X63936632Y-146646525D01*
X63693411Y-146484010D01*
X63423158Y-146372068D01*
X63136260Y-146315000D01*
X62843740Y-146315000D01*
X62556842Y-146372068D01*
X62286589Y-146484010D01*
X62043368Y-146646525D01*
X61911513Y-146778380D01*
X61889502Y-146705820D01*
X61830537Y-146595506D01*
X61751185Y-146498815D01*
X61654494Y-146419463D01*
X61544180Y-146360498D01*
X61424482Y-146324188D01*
X61300000Y-146311928D01*
X60735750Y-146315000D01*
X60577000Y-146473750D01*
X60323000Y-146473750D01*
X60164250Y-146315000D01*
X59600000Y-146311928D01*
X59475518Y-146324188D01*
X59355820Y-146360498D01*
X59245506Y-146419463D01*
X59148815Y-146498815D01*
X59069463Y-146595506D01*
X59010498Y-146705820D01*
X58974188Y-146825518D01*
X58961928Y-146950000D01*
X52902778Y-146950000D01*
X52808912Y-146774389D01*
X52676705Y-146613295D01*
X52563025Y-146520000D01*
X52676705Y-146426705D01*
X52808912Y-146265611D01*
X52907150Y-146081820D01*
X52967645Y-145882395D01*
X52988072Y-145675000D01*
X52988072Y-144825000D01*
X52967645Y-144617605D01*
X52907150Y-144418180D01*
X52808912Y-144234389D01*
X52676705Y-144073295D01*
X52563025Y-143980000D01*
X52676705Y-143886705D01*
X52808912Y-143725611D01*
X52907150Y-143541820D01*
X52967645Y-143342395D01*
X52988072Y-143135000D01*
X52988072Y-142285000D01*
X52967645Y-142077605D01*
X52907150Y-141878180D01*
X52808912Y-141694389D01*
X52676705Y-141533295D01*
X52563025Y-141440000D01*
X52676705Y-141346705D01*
X52808912Y-141185611D01*
X52907150Y-141001820D01*
X52967645Y-140802395D01*
X52988072Y-140595000D01*
X52988072Y-139745000D01*
X52967645Y-139537605D01*
X52907150Y-139338180D01*
X52808912Y-139154389D01*
X52695014Y-139015604D01*
X52704494Y-139010537D01*
X52801185Y-138931185D01*
X52880537Y-138834494D01*
X52939502Y-138724180D01*
X52975812Y-138604482D01*
X52988072Y-138480000D01*
X52985000Y-137915750D01*
X52826250Y-137757000D01*
X50977000Y-137757000D01*
X50977000Y-137777000D01*
X50723000Y-137777000D01*
X50723000Y-137757000D01*
X50660000Y-137757000D01*
X50660000Y-137503000D01*
X50723000Y-137503000D01*
X50723000Y-137483000D01*
X50977000Y-137483000D01*
X50977000Y-137503000D01*
X52826250Y-137503000D01*
X52985000Y-137344250D01*
X52988072Y-136780000D01*
X52975812Y-136655518D01*
X52939502Y-136535820D01*
X52880537Y-136425506D01*
X52801185Y-136328815D01*
X52704494Y-136249463D01*
X52695014Y-136244396D01*
X52808912Y-136105611D01*
X52907150Y-135921820D01*
X52967645Y-135722395D01*
X52988072Y-135515000D01*
X52988072Y-134665000D01*
X52967645Y-134457605D01*
X52907150Y-134258180D01*
X52808912Y-134074389D01*
X52676705Y-133913295D01*
X52563025Y-133820000D01*
X52676705Y-133726705D01*
X52808912Y-133565611D01*
X52907150Y-133381820D01*
X52967645Y-133182395D01*
X52988072Y-132975000D01*
X52988072Y-132125000D01*
X52967645Y-131917605D01*
X52907150Y-131718180D01*
X52808912Y-131534389D01*
X52676705Y-131373295D01*
X52563025Y-131280000D01*
X52676705Y-131186705D01*
X52808912Y-131025611D01*
X52907150Y-130841820D01*
X52967645Y-130642395D01*
X52988072Y-130435000D01*
X52988072Y-129585000D01*
X52967645Y-129377605D01*
X52907150Y-129178180D01*
X52808912Y-128994389D01*
X52695014Y-128855604D01*
X52704494Y-128850537D01*
X52801185Y-128771185D01*
X52880537Y-128674494D01*
X52939502Y-128564180D01*
X52975812Y-128444482D01*
X52988072Y-128320000D01*
X52985000Y-127755750D01*
X52826250Y-127597000D01*
X50977000Y-127597000D01*
X50977000Y-127617000D01*
X50723000Y-127617000D01*
X50723000Y-127597000D01*
X50660000Y-127597000D01*
X50660000Y-127343000D01*
X50723000Y-127343000D01*
X50723000Y-127323000D01*
X50977000Y-127323000D01*
X50977000Y-127343000D01*
X52826250Y-127343000D01*
X52985000Y-127184250D01*
X52988072Y-126620000D01*
X52975812Y-126495518D01*
X52939502Y-126375820D01*
X52880537Y-126265506D01*
X52801185Y-126168815D01*
X52704494Y-126089463D01*
X52695014Y-126084396D01*
X52808912Y-125945611D01*
X52907150Y-125761820D01*
X52967645Y-125562395D01*
X52988072Y-125355000D01*
X52988072Y-124505000D01*
X52967645Y-124297605D01*
X52907150Y-124098180D01*
X52808912Y-123914389D01*
X52676705Y-123753295D01*
X52563025Y-123660000D01*
X52676705Y-123566705D01*
X52808912Y-123405611D01*
X52907150Y-123221820D01*
X52967645Y-123022395D01*
X52988072Y-122815000D01*
X52988072Y-121965000D01*
X52967645Y-121757605D01*
X52907150Y-121558180D01*
X52808912Y-121374389D01*
X52676705Y-121213295D01*
X52563025Y-121120000D01*
X52676705Y-121026705D01*
X52808912Y-120865611D01*
X52907150Y-120681820D01*
X52967645Y-120482395D01*
X52988072Y-120275000D01*
X52988072Y-119425000D01*
X52967645Y-119217605D01*
X52907150Y-119018180D01*
X52808912Y-118834389D01*
X52676705Y-118673295D01*
X52563025Y-118580000D01*
X52676705Y-118486705D01*
X52808912Y-118325611D01*
X52907150Y-118141820D01*
X52928936Y-118070000D01*
X53672678Y-118070000D01*
X53710000Y-118073676D01*
X53747322Y-118070000D01*
X53747333Y-118070000D01*
X53858986Y-118059003D01*
X54002247Y-118015546D01*
X54134276Y-117944974D01*
X54250001Y-117850001D01*
X54273804Y-117820997D01*
X54484801Y-117610000D01*
X61114776Y-117610000D01*
X61059744Y-117632795D01*
%TA.AperFunction,Conductor*%
D16*
G36*
X61059744Y-117632795D02*
G01*
X60890226Y-117746063D01*
X60746063Y-117890226D01*
X60632795Y-118059744D01*
X60554774Y-118248102D01*
X60515000Y-118448061D01*
X60515000Y-118651939D01*
X60554774Y-118851898D01*
X60632795Y-119040256D01*
X60746063Y-119209774D01*
X60890226Y-119353937D01*
X61059744Y-119467205D01*
X61248102Y-119545226D01*
X61448061Y-119585000D01*
X61510199Y-119585000D01*
X65686200Y-123761002D01*
X65709999Y-123790001D01*
X65825724Y-123884974D01*
X65957753Y-123955546D01*
X66101014Y-123999003D01*
X66212667Y-124010000D01*
X66212675Y-124010000D01*
X66250000Y-124013676D01*
X66287325Y-124010000D01*
X88535199Y-124010000D01*
X95740198Y-131215000D01*
X95548061Y-131215000D01*
X95348102Y-131254774D01*
X95159744Y-131332795D01*
X94990226Y-131446063D01*
X94846063Y-131590226D01*
X94732795Y-131759744D01*
X94656519Y-131943888D01*
X94490256Y-131832795D01*
X94301898Y-131754774D01*
X94101939Y-131715000D01*
X93898061Y-131715000D01*
X93698102Y-131754774D01*
X93509744Y-131832795D01*
X93340226Y-131946063D01*
X93196289Y-132090000D01*
X85137333Y-132090000D01*
X85100000Y-132086323D01*
X85062667Y-132090000D01*
X84951014Y-132100997D01*
X84807753Y-132144454D01*
X84675724Y-132215026D01*
X84559999Y-132309999D01*
X84536201Y-132338997D01*
X84210198Y-132665000D01*
X84148061Y-132665000D01*
X83948102Y-132704774D01*
X83759744Y-132782795D01*
X83590226Y-132896063D01*
X83450545Y-133035744D01*
X74753804Y-124339003D01*
X74730001Y-124309999D01*
X74614276Y-124215026D01*
X74482247Y-124144454D01*
X74338986Y-124100997D01*
X74227333Y-124090000D01*
X74227322Y-124090000D01*
X74190000Y-124086324D01*
X74152678Y-124090000D01*
X65503711Y-124090000D01*
X65459774Y-124046063D01*
X65290256Y-123932795D01*
X65101898Y-123854774D01*
X64901939Y-123815000D01*
X64698061Y-123815000D01*
X64498102Y-123854774D01*
X64309744Y-123932795D01*
X64140226Y-124046063D01*
X63996063Y-124190226D01*
X63882795Y-124359744D01*
X63804774Y-124548102D01*
X63765000Y-124748061D01*
X63765000Y-124951939D01*
X63804774Y-125151898D01*
X63882795Y-125340256D01*
X63996063Y-125509774D01*
X64140226Y-125653937D01*
X64309744Y-125767205D01*
X64498102Y-125845226D01*
X64698061Y-125885000D01*
X64901939Y-125885000D01*
X65101898Y-125845226D01*
X65290256Y-125767205D01*
X65459774Y-125653937D01*
X65503711Y-125610000D01*
X73875199Y-125610000D01*
X84280198Y-136015000D01*
X84153740Y-136015000D01*
X83866842Y-136072068D01*
X83596589Y-136184010D01*
X83353368Y-136346525D01*
X83146525Y-136553368D01*
X83030000Y-136727760D01*
X82913475Y-136553368D01*
X82706632Y-136346525D01*
X82463411Y-136184010D01*
X82193158Y-136072068D01*
X81906260Y-136015000D01*
X81613740Y-136015000D01*
X81326842Y-136072068D01*
X81056589Y-136184010D01*
X80813368Y-136346525D01*
X80606525Y-136553368D01*
X80490000Y-136727760D01*
X80373475Y-136553368D01*
X80166632Y-136346525D01*
X79923411Y-136184010D01*
X79653158Y-136072068D01*
X79366260Y-136015000D01*
X79073740Y-136015000D01*
X78786842Y-136072068D01*
X78516589Y-136184010D01*
X78273368Y-136346525D01*
X78066525Y-136553368D01*
X77950000Y-136727760D01*
X77833475Y-136553368D01*
X77626632Y-136346525D01*
X77383411Y-136184010D01*
X77113158Y-136072068D01*
X76826260Y-136015000D01*
X76533740Y-136015000D01*
X76246842Y-136072068D01*
X75976589Y-136184010D01*
X75733368Y-136346525D01*
X75526525Y-136553368D01*
X75410000Y-136727760D01*
X75293475Y-136553368D01*
X75086632Y-136346525D01*
X74843411Y-136184010D01*
X74573158Y-136072068D01*
X74286260Y-136015000D01*
X73993740Y-136015000D01*
X73773592Y-136058790D01*
X59925000Y-122210199D01*
X59925000Y-122148061D01*
X59885226Y-121948102D01*
X59807205Y-121759744D01*
X59693937Y-121590226D01*
X59549774Y-121446063D01*
X59380256Y-121332795D01*
X59191898Y-121254774D01*
X58991939Y-121215000D01*
X58788061Y-121215000D01*
X58588102Y-121254774D01*
X58399744Y-121332795D01*
X58230226Y-121446063D01*
X58086063Y-121590226D01*
X57972795Y-121759744D01*
X57894774Y-121948102D01*
X57855000Y-122148061D01*
X57855000Y-122351939D01*
X57894774Y-122551898D01*
X57972795Y-122740256D01*
X58086063Y-122909774D01*
X58230226Y-123053937D01*
X58399744Y-123167205D01*
X58588102Y-123245226D01*
X58788061Y-123285000D01*
X58850199Y-123285000D01*
X71580198Y-136015000D01*
X71453740Y-136015000D01*
X71166842Y-136072068D01*
X70896589Y-136184010D01*
X70653368Y-136346525D01*
X70446525Y-136553368D01*
X70330000Y-136727760D01*
X70213475Y-136553368D01*
X70006632Y-136346525D01*
X69763411Y-136184010D01*
X69493158Y-136072068D01*
X69206260Y-136015000D01*
X68913740Y-136015000D01*
X68626842Y-136072068D01*
X68356589Y-136184010D01*
X68113368Y-136346525D01*
X67906525Y-136553368D01*
X67790000Y-136727760D01*
X67673475Y-136553368D01*
X67466632Y-136346525D01*
X67223411Y-136184010D01*
X66953158Y-136072068D01*
X66666260Y-136015000D01*
X66373740Y-136015000D01*
X66086842Y-136072068D01*
X65816589Y-136184010D01*
X65573368Y-136346525D01*
X65366525Y-136553368D01*
X65250000Y-136727760D01*
X65133475Y-136553368D01*
X64926632Y-136346525D01*
X64683411Y-136184010D01*
X64413158Y-136072068D01*
X64126260Y-136015000D01*
X63833740Y-136015000D01*
X63546842Y-136072068D01*
X63276589Y-136184010D01*
X63033368Y-136346525D01*
X62826525Y-136553368D01*
X62710000Y-136727760D01*
X62593475Y-136553368D01*
X62386632Y-136346525D01*
X62143411Y-136184010D01*
X61873158Y-136072068D01*
X61586260Y-136015000D01*
X61293740Y-136015000D01*
X61006842Y-136072068D01*
X60736589Y-136184010D01*
X60493368Y-136346525D01*
X60361513Y-136478380D01*
X60339502Y-136405820D01*
X60280537Y-136295506D01*
X60201185Y-136198815D01*
X60104494Y-136119463D01*
X59994180Y-136060498D01*
X59874482Y-136024188D01*
X59750000Y-136011928D01*
X58050000Y-136011928D01*
X57925518Y-136024188D01*
X57805820Y-136060498D01*
X57695506Y-136119463D01*
X57598815Y-136198815D01*
X57519463Y-136295506D01*
X57460498Y-136405820D01*
X57424188Y-136525518D01*
X57411928Y-136650000D01*
X57411928Y-138350000D01*
X57424188Y-138474482D01*
X57460498Y-138594180D01*
X57519463Y-138704494D01*
X57598815Y-138801185D01*
X57695506Y-138880537D01*
X57805820Y-138939502D01*
X57925518Y-138975812D01*
X58050000Y-138988072D01*
X59750000Y-138988072D01*
X59874482Y-138975812D01*
X59994180Y-138939502D01*
X60104494Y-138880537D01*
X60201185Y-138801185D01*
X60280537Y-138704494D01*
X60339502Y-138594180D01*
X60361513Y-138521620D01*
X60493368Y-138653475D01*
X60736589Y-138815990D01*
X61006842Y-138927932D01*
X61293740Y-138985000D01*
X61586260Y-138985000D01*
X61873158Y-138927932D01*
X62143411Y-138815990D01*
X62386632Y-138653475D01*
X62593475Y-138446632D01*
X62710000Y-138272240D01*
X62826525Y-138446632D01*
X63033368Y-138653475D01*
X63276589Y-138815990D01*
X63546842Y-138927932D01*
X63833740Y-138985000D01*
X64126260Y-138985000D01*
X64413158Y-138927932D01*
X64683411Y-138815990D01*
X64926632Y-138653475D01*
X65133475Y-138446632D01*
X65250000Y-138272240D01*
X65366525Y-138446632D01*
X65573368Y-138653475D01*
X65816589Y-138815990D01*
X66086842Y-138927932D01*
X66373740Y-138985000D01*
X66666260Y-138985000D01*
X66953158Y-138927932D01*
X67223411Y-138815990D01*
X67466632Y-138653475D01*
X67673475Y-138446632D01*
X67790000Y-138272240D01*
X67906525Y-138446632D01*
X68113368Y-138653475D01*
X68356589Y-138815990D01*
X68626842Y-138927932D01*
X68913740Y-138985000D01*
X69206260Y-138985000D01*
X69493158Y-138927932D01*
X69763411Y-138815990D01*
X70006632Y-138653475D01*
X70213475Y-138446632D01*
X70330000Y-138272240D01*
X70446525Y-138446632D01*
X70653368Y-138653475D01*
X70896589Y-138815990D01*
X71166842Y-138927932D01*
X71453740Y-138985000D01*
X71746260Y-138985000D01*
X71962435Y-138942000D01*
X72075724Y-139034974D01*
X72207753Y-139105546D01*
X72240756Y-139115557D01*
X73186200Y-140061002D01*
X73209999Y-140090001D01*
X73238997Y-140113799D01*
X73325724Y-140184974D01*
X73457753Y-140255546D01*
X73601014Y-140299003D01*
X73750000Y-140313677D01*
X73787333Y-140310000D01*
X79135199Y-140310000D01*
X84086201Y-145261003D01*
X84109999Y-145290001D01*
X84138997Y-145313799D01*
X84225724Y-145384974D01*
X84357753Y-145455546D01*
X84501014Y-145499003D01*
X84650000Y-145513677D01*
X84687333Y-145510000D01*
X88246289Y-145510000D01*
X88290226Y-145553937D01*
X88459744Y-145667205D01*
X88648102Y-145745226D01*
X88848061Y-145785000D01*
X89051939Y-145785000D01*
X89251898Y-145745226D01*
X89440256Y-145667205D01*
X89609774Y-145553937D01*
X89753937Y-145409774D01*
X89867205Y-145240256D01*
X89945226Y-145051898D01*
X89985000Y-144851939D01*
X89985000Y-144648061D01*
X89945226Y-144448102D01*
X89867311Y-144260000D01*
X90015199Y-144260000D01*
X92170198Y-146415000D01*
X92043740Y-146415000D01*
X91756842Y-146472068D01*
X91486589Y-146584010D01*
X91243368Y-146746525D01*
X91036525Y-146953368D01*
X90920000Y-147127760D01*
X90803475Y-146953368D01*
X90596632Y-146746525D01*
X90353411Y-146584010D01*
X90083158Y-146472068D01*
X89796260Y-146415000D01*
X89503740Y-146415000D01*
X89216842Y-146472068D01*
X88946589Y-146584010D01*
X88703368Y-146746525D01*
X88496525Y-146953368D01*
X88380000Y-147127760D01*
X88263475Y-146953368D01*
X88056632Y-146746525D01*
X87813411Y-146584010D01*
X87543158Y-146472068D01*
X87256260Y-146415000D01*
X86963740Y-146415000D01*
X86676842Y-146472068D01*
X86406589Y-146584010D01*
X86163368Y-146746525D01*
X85956525Y-146953368D01*
X85840000Y-147127760D01*
X85723475Y-146953368D01*
X85516632Y-146746525D01*
X85273411Y-146584010D01*
X85003158Y-146472068D01*
X84716260Y-146415000D01*
X84423740Y-146415000D01*
X84136842Y-146472068D01*
X83866589Y-146584010D01*
X83623368Y-146746525D01*
X83416525Y-146953368D01*
X83254010Y-147196589D01*
X83142068Y-147466842D01*
X83085000Y-147753740D01*
X83085000Y-148046260D01*
X83142068Y-148333158D01*
X83254010Y-148603411D01*
X83416525Y-148846632D01*
X83623368Y-149053475D01*
X83866589Y-149215990D01*
X84045266Y-149290000D01*
X50660000Y-149290000D01*
X50660000Y-149278072D01*
X51925000Y-149278072D01*
X52132395Y-149257645D01*
X52331820Y-149197150D01*
X52515611Y-149098912D01*
X52676705Y-148966705D01*
X52808912Y-148805611D01*
X52892087Y-148650000D01*
X58961928Y-148650000D01*
X58974188Y-148774482D01*
X59010498Y-148894180D01*
X59069463Y-149004494D01*
X59148815Y-149101185D01*
X59245506Y-149180537D01*
X59355820Y-149239502D01*
X59475518Y-149275812D01*
X59600000Y-149288072D01*
X60164250Y-149285000D01*
X60323000Y-149126250D01*
X60323000Y-147927000D01*
X59123750Y-147927000D01*
X58965000Y-148085750D01*
X58961928Y-148650000D01*
X52892087Y-148650000D01*
X52907150Y-148621820D01*
X52967645Y-148422395D01*
X52988072Y-148215000D01*
X52988072Y-147365000D01*
X52967645Y-147157605D01*
X52907150Y-146958180D01*
X52902778Y-146950000D01*
X58961928Y-146950000D01*
X58965000Y-147514250D01*
X59123750Y-147673000D01*
X60323000Y-147673000D01*
X60323000Y-146473750D01*
X60577000Y-146473750D01*
X60577000Y-147673000D01*
X60597000Y-147673000D01*
X60597000Y-147927000D01*
X60577000Y-147927000D01*
X60577000Y-149126250D01*
X60735750Y-149285000D01*
X61300000Y-149288072D01*
X61424482Y-149275812D01*
X61544180Y-149239502D01*
X61654494Y-149180537D01*
X61751185Y-149101185D01*
X61830537Y-149004494D01*
X61889502Y-148894180D01*
X61911513Y-148821620D01*
X62043368Y-148953475D01*
X62286589Y-149115990D01*
X62556842Y-149227932D01*
X62843740Y-149285000D01*
X63136260Y-149285000D01*
X63423158Y-149227932D01*
X63693411Y-149115990D01*
X63936632Y-148953475D01*
X64143475Y-148746632D01*
X64305990Y-148503411D01*
X64417932Y-148233158D01*
X64475000Y-147946260D01*
X64475000Y-147653740D01*
X64417932Y-147366842D01*
X64305990Y-147096589D01*
X64208043Y-146950000D01*
X70661928Y-146950000D01*
X70661928Y-148650000D01*
X70674188Y-148774482D01*
X70710498Y-148894180D01*
X70769463Y-149004494D01*
X70848815Y-149101185D01*
X70945506Y-149180537D01*
X71055820Y-149239502D01*
X71175518Y-149275812D01*
X71300000Y-149288072D01*
X73000000Y-149288072D01*
X73124482Y-149275812D01*
X73244180Y-149239502D01*
X73354494Y-149180537D01*
X73451185Y-149101185D01*
X73530537Y-149004494D01*
X73589502Y-148894180D01*
X73613966Y-148813534D01*
X73689731Y-148897588D01*
X73923080Y-149071641D01*
X74185901Y-149196825D01*
X74333110Y-149241476D01*
X74563000Y-149120155D01*
X74563000Y-147927000D01*
X74817000Y-147927000D01*
X74817000Y-149120155D01*
X75046890Y-149241476D01*
X75194099Y-149196825D01*
X75456920Y-149071641D01*
X75690269Y-148897588D01*
X75885178Y-148681355D01*
X76034157Y-148431252D01*
X76131481Y-148156891D01*
X76010814Y-147927000D01*
X74817000Y-147927000D01*
X74563000Y-147927000D01*
X74543000Y-147927000D01*
X74543000Y-147673000D01*
X74563000Y-147673000D01*
X74563000Y-146479845D01*
X74817000Y-146479845D01*
X74817000Y-147673000D01*
X76010814Y-147673000D01*
X76131481Y-147443109D01*
X76034157Y-147168748D01*
X75885178Y-146918645D01*
X75690269Y-146702412D01*
X75456920Y-146528359D01*
X75194099Y-146403175D01*
X75046890Y-146358524D01*
X74817000Y-146479845D01*
X74563000Y-146479845D01*
X74333110Y-146358524D01*
X74185901Y-146403175D01*
X73923080Y-146528359D01*
X73689731Y-146702412D01*
X73613966Y-146786466D01*
X73589502Y-146705820D01*
X73530537Y-146595506D01*
X73451185Y-146498815D01*
X73354494Y-146419463D01*
X73244180Y-146360498D01*
X73124482Y-146324188D01*
X73000000Y-146311928D01*
X71300000Y-146311928D01*
X71175518Y-146324188D01*
X71055820Y-146360498D01*
X70945506Y-146419463D01*
X70848815Y-146498815D01*
X70769463Y-146595506D01*
X70710498Y-146705820D01*
X70674188Y-146825518D01*
X70661928Y-146950000D01*
X64208043Y-146950000D01*
X64143475Y-146853368D01*
X63936632Y-146646525D01*
X63693411Y-146484010D01*
X63423158Y-146372068D01*
X63136260Y-146315000D01*
X62843740Y-146315000D01*
X62556842Y-146372068D01*
X62286589Y-146484010D01*
X62043368Y-146646525D01*
X61911513Y-146778380D01*
X61889502Y-146705820D01*
X61830537Y-146595506D01*
X61751185Y-146498815D01*
X61654494Y-146419463D01*
X61544180Y-146360498D01*
X61424482Y-146324188D01*
X61300000Y-146311928D01*
X60735750Y-146315000D01*
X60577000Y-146473750D01*
X60323000Y-146473750D01*
X60164250Y-146315000D01*
X59600000Y-146311928D01*
X59475518Y-146324188D01*
X59355820Y-146360498D01*
X59245506Y-146419463D01*
X59148815Y-146498815D01*
X59069463Y-146595506D01*
X59010498Y-146705820D01*
X58974188Y-146825518D01*
X58961928Y-146950000D01*
X52902778Y-146950000D01*
X52808912Y-146774389D01*
X52676705Y-146613295D01*
X52563025Y-146520000D01*
X52676705Y-146426705D01*
X52808912Y-146265611D01*
X52907150Y-146081820D01*
X52967645Y-145882395D01*
X52988072Y-145675000D01*
X52988072Y-144825000D01*
X52967645Y-144617605D01*
X52907150Y-144418180D01*
X52808912Y-144234389D01*
X52676705Y-144073295D01*
X52563025Y-143980000D01*
X52676705Y-143886705D01*
X52808912Y-143725611D01*
X52907150Y-143541820D01*
X52967645Y-143342395D01*
X52988072Y-143135000D01*
X52988072Y-142285000D01*
X52967645Y-142077605D01*
X52907150Y-141878180D01*
X52808912Y-141694389D01*
X52676705Y-141533295D01*
X52563025Y-141440000D01*
X52676705Y-141346705D01*
X52808912Y-141185611D01*
X52907150Y-141001820D01*
X52967645Y-140802395D01*
X52988072Y-140595000D01*
X52988072Y-139745000D01*
X52967645Y-139537605D01*
X52907150Y-139338180D01*
X52808912Y-139154389D01*
X52695014Y-139015604D01*
X52704494Y-139010537D01*
X52801185Y-138931185D01*
X52880537Y-138834494D01*
X52939502Y-138724180D01*
X52975812Y-138604482D01*
X52988072Y-138480000D01*
X52985000Y-137915750D01*
X52826250Y-137757000D01*
X50977000Y-137757000D01*
X50977000Y-137777000D01*
X50723000Y-137777000D01*
X50723000Y-137757000D01*
X50660000Y-137757000D01*
X50660000Y-137503000D01*
X50723000Y-137503000D01*
X50723000Y-137483000D01*
X50977000Y-137483000D01*
X50977000Y-137503000D01*
X52826250Y-137503000D01*
X52985000Y-137344250D01*
X52988072Y-136780000D01*
X52975812Y-136655518D01*
X52939502Y-136535820D01*
X52880537Y-136425506D01*
X52801185Y-136328815D01*
X52704494Y-136249463D01*
X52695014Y-136244396D01*
X52808912Y-136105611D01*
X52907150Y-135921820D01*
X52967645Y-135722395D01*
X52988072Y-135515000D01*
X52988072Y-134665000D01*
X52967645Y-134457605D01*
X52907150Y-134258180D01*
X52808912Y-134074389D01*
X52676705Y-133913295D01*
X52563025Y-133820000D01*
X52676705Y-133726705D01*
X52808912Y-133565611D01*
X52907150Y-133381820D01*
X52967645Y-133182395D01*
X52988072Y-132975000D01*
X52988072Y-132125000D01*
X52967645Y-131917605D01*
X52907150Y-131718180D01*
X52808912Y-131534389D01*
X52676705Y-131373295D01*
X52563025Y-131280000D01*
X52676705Y-131186705D01*
X52808912Y-131025611D01*
X52907150Y-130841820D01*
X52967645Y-130642395D01*
X52988072Y-130435000D01*
X52988072Y-129585000D01*
X52967645Y-129377605D01*
X52907150Y-129178180D01*
X52808912Y-128994389D01*
X52695014Y-128855604D01*
X52704494Y-128850537D01*
X52801185Y-128771185D01*
X52880537Y-128674494D01*
X52939502Y-128564180D01*
X52975812Y-128444482D01*
X52988072Y-128320000D01*
X52985000Y-127755750D01*
X52826250Y-127597000D01*
X50977000Y-127597000D01*
X50977000Y-127617000D01*
X50723000Y-127617000D01*
X50723000Y-127597000D01*
X50660000Y-127597000D01*
X50660000Y-127343000D01*
X50723000Y-127343000D01*
X50723000Y-127323000D01*
X50977000Y-127323000D01*
X50977000Y-127343000D01*
X52826250Y-127343000D01*
X52985000Y-127184250D01*
X52988072Y-126620000D01*
X52975812Y-126495518D01*
X52939502Y-126375820D01*
X52880537Y-126265506D01*
X52801185Y-126168815D01*
X52704494Y-126089463D01*
X52695014Y-126084396D01*
X52808912Y-125945611D01*
X52907150Y-125761820D01*
X52967645Y-125562395D01*
X52988072Y-125355000D01*
X52988072Y-124505000D01*
X52967645Y-124297605D01*
X52907150Y-124098180D01*
X52808912Y-123914389D01*
X52676705Y-123753295D01*
X52563025Y-123660000D01*
X52676705Y-123566705D01*
X52808912Y-123405611D01*
X52907150Y-123221820D01*
X52967645Y-123022395D01*
X52988072Y-122815000D01*
X52988072Y-121965000D01*
X52967645Y-121757605D01*
X52907150Y-121558180D01*
X52808912Y-121374389D01*
X52676705Y-121213295D01*
X52563025Y-121120000D01*
X52676705Y-121026705D01*
X52808912Y-120865611D01*
X52907150Y-120681820D01*
X52967645Y-120482395D01*
X52988072Y-120275000D01*
X52988072Y-119425000D01*
X52967645Y-119217605D01*
X52907150Y-119018180D01*
X52808912Y-118834389D01*
X52676705Y-118673295D01*
X52563025Y-118580000D01*
X52676705Y-118486705D01*
X52808912Y-118325611D01*
X52907150Y-118141820D01*
X52928936Y-118070000D01*
X53672678Y-118070000D01*
X53710000Y-118073676D01*
X53747322Y-118070000D01*
X53747333Y-118070000D01*
X53858986Y-118059003D01*
X54002247Y-118015546D01*
X54134276Y-117944974D01*
X54250001Y-117850001D01*
X54273804Y-117820997D01*
X54484801Y-117610000D01*
X61114776Y-117610000D01*
X61059744Y-117632795D01*
G37*
%TD.AperFunction*%
D15*
X117011928Y-123100000D02*
X117024188Y-123224482D01*
X117060498Y-123344180D01*
X117119463Y-123454494D01*
X117198815Y-123551185D01*
X117295506Y-123630537D01*
X117304986Y-123635604D01*
X117191088Y-123774389D01*
X117092850Y-123958180D01*
X117032355Y-124157605D01*
X117011928Y-124365000D01*
X117011928Y-125215000D01*
X117032355Y-125422395D01*
X117092850Y-125621820D01*
X117191088Y-125805611D01*
X117323295Y-125966705D01*
X117436975Y-126060000D01*
X117323295Y-126153295D01*
X117191088Y-126314389D01*
X117092850Y-126498180D01*
X117032355Y-126697605D01*
X117011928Y-126905000D01*
X117011928Y-127755000D01*
X117032355Y-127962395D01*
X117092850Y-128161820D01*
X117191088Y-128345611D01*
X117323295Y-128506705D01*
X117436975Y-128600000D01*
X117323295Y-128693295D01*
X117191088Y-128854389D01*
X117092850Y-129038180D01*
X117032355Y-129237605D01*
X117011928Y-129445000D01*
X117011928Y-130295000D01*
X117032355Y-130502395D01*
X117092850Y-130701820D01*
X117191088Y-130885611D01*
X117304986Y-131024396D01*
X117295506Y-131029463D01*
X117198815Y-131108815D01*
X117119463Y-131205506D01*
X117060498Y-131315820D01*
X117024188Y-131435518D01*
X117011928Y-131560000D01*
X117015000Y-132124250D01*
X117173750Y-132283000D01*
X119023000Y-132283000D01*
X119023000Y-132263000D01*
X119277000Y-132263000D01*
X119277000Y-132283000D01*
X119340000Y-132283000D01*
X119340000Y-132537000D01*
X119277000Y-132537000D01*
X119277000Y-132557000D01*
X119023000Y-132557000D01*
X119023000Y-132537000D01*
X117173750Y-132537000D01*
X117015000Y-132695750D01*
X117011928Y-133260000D01*
X117024188Y-133384482D01*
X117060498Y-133504180D01*
X117119463Y-133614494D01*
X117198815Y-133711185D01*
X117295506Y-133790537D01*
X117304986Y-133795604D01*
X117191088Y-133934389D01*
X117092850Y-134118180D01*
X117032355Y-134317605D01*
X117011928Y-134525000D01*
X117011928Y-135375000D01*
X117032355Y-135582395D01*
X117092850Y-135781820D01*
X117191088Y-135965611D01*
X117323295Y-136126705D01*
X117436975Y-136220000D01*
X117323295Y-136313295D01*
X117191088Y-136474389D01*
X117092850Y-136658180D01*
X117032355Y-136857605D01*
X117011928Y-137065000D01*
X117011928Y-137915000D01*
X117032355Y-138122395D01*
X117092850Y-138321820D01*
X117191088Y-138505611D01*
X117323295Y-138666705D01*
X117436975Y-138760000D01*
X117323295Y-138853295D01*
X117191088Y-139014389D01*
X117092850Y-139198180D01*
X117032355Y-139397605D01*
X117011928Y-139605000D01*
X117011928Y-140455000D01*
X117032355Y-140662395D01*
X117092850Y-140861820D01*
X117191088Y-141045611D01*
X117323295Y-141206705D01*
X117436975Y-141300000D01*
X117323295Y-141393295D01*
X117191088Y-141554389D01*
X117092850Y-141738180D01*
X117032355Y-141937605D01*
X117011928Y-142145000D01*
X117011928Y-142995000D01*
X117032355Y-143202395D01*
X117092850Y-143401820D01*
X117191088Y-143585611D01*
X117323295Y-143746705D01*
X117436975Y-143840000D01*
X117323295Y-143933295D01*
X117191088Y-144094389D01*
X117092850Y-144278180D01*
X117032355Y-144477605D01*
X117011928Y-144685000D01*
X117011928Y-145535000D01*
X117032355Y-145742395D01*
X117092850Y-145941820D01*
X117191088Y-146125611D01*
X117323295Y-146286705D01*
X117436975Y-146380000D01*
X117323295Y-146473295D01*
X117191088Y-146634389D01*
X117092850Y-146818180D01*
X117032355Y-147017605D01*
X117011928Y-147225000D01*
X117011928Y-148075000D01*
X117032355Y-148282395D01*
X117092850Y-148481820D01*
X117191088Y-148665611D01*
X117323295Y-148826705D01*
X117484389Y-148958912D01*
X117668180Y-149057150D01*
X117867605Y-149117645D01*
X118075000Y-149138072D01*
X119340000Y-149138072D01*
X119340000Y-149290000D01*
X103536790Y-149290000D01*
X103554494Y-149280537D01*
X103651185Y-149201185D01*
X103730537Y-149104494D01*
X103789502Y-148994180D01*
X103825812Y-148874482D01*
X103838072Y-148750000D01*
X103838072Y-147050000D01*
X103825812Y-146925518D01*
X103789502Y-146805820D01*
X103730537Y-146695506D01*
X103651185Y-146598815D01*
X103554494Y-146519463D01*
X103444180Y-146460498D01*
X103324482Y-146424188D01*
X103200000Y-146411928D01*
X101500000Y-146411928D01*
X101375518Y-146424188D01*
X101255820Y-146460498D01*
X101145506Y-146519463D01*
X101048815Y-146598815D01*
X100969463Y-146695506D01*
X100910498Y-146805820D01*
X100886034Y-146886466D01*
X100810269Y-146802412D01*
X100576920Y-146628359D01*
X100314099Y-146503175D01*
X100166890Y-146458524D01*
X99937000Y-146579845D01*
X99937000Y-147773000D01*
X99957000Y-147773000D01*
X99957000Y-148027000D01*
X99937000Y-148027000D01*
X99937000Y-148047000D01*
X99683000Y-148047000D01*
X99683000Y-148027000D01*
X99663000Y-148027000D01*
X99663000Y-147773000D01*
X99683000Y-147773000D01*
X99683000Y-146579845D01*
X99453110Y-146458524D01*
X99305901Y-146503175D01*
X99043080Y-146628359D01*
X98809731Y-146802412D01*
X98614822Y-147018645D01*
X98545195Y-147135534D01*
X98423475Y-146953368D01*
X98216632Y-146746525D01*
X97973411Y-146584010D01*
X97703158Y-146472068D01*
X97416260Y-146415000D01*
X97123740Y-146415000D01*
X96903592Y-146458791D01*
X96410000Y-145965199D01*
X96410000Y-144403711D01*
X96453937Y-144359774D01*
X96567205Y-144190256D01*
X96645226Y-144001898D01*
X96685000Y-143801939D01*
X96685000Y-143598061D01*
X96645226Y-143398102D01*
X96567205Y-143209744D01*
X96453937Y-143040226D01*
X96309774Y-142896063D01*
X96140256Y-142782795D01*
X95951898Y-142704774D01*
X95751939Y-142665000D01*
X95548061Y-142665000D01*
X95348102Y-142704774D01*
X95159744Y-142782795D01*
X94990226Y-142896063D01*
X94846063Y-143040226D01*
X94732795Y-143209744D01*
X94654774Y-143398102D01*
X94615000Y-143598061D01*
X94615000Y-143801939D01*
X94654774Y-144001898D01*
X94732795Y-144190256D01*
X94846063Y-144359774D01*
X94890000Y-144403711D01*
X94890001Y-146242668D01*
X94886324Y-146280000D01*
X94890001Y-146317333D01*
X94900087Y-146419740D01*
X94876260Y-146415000D01*
X94583740Y-146415000D01*
X94363592Y-146458790D01*
X90893804Y-142989003D01*
X90870001Y-142959999D01*
X90754276Y-142865026D01*
X90622247Y-142794454D01*
X90478986Y-142750997D01*
X90367333Y-142740000D01*
X90367322Y-142740000D01*
X90330000Y-142736324D01*
X90292678Y-142740000D01*
X89843804Y-142740000D01*
X88713803Y-141610000D01*
X98862678Y-141610000D01*
X98900000Y-141613676D01*
X98937322Y-141610000D01*
X98937333Y-141610000D01*
X99048986Y-141599003D01*
X99192247Y-141555546D01*
X99324276Y-141484974D01*
X99440001Y-141390001D01*
X99463804Y-141360997D01*
X100476740Y-140348061D01*
X101115000Y-140348061D01*
X101115000Y-140551939D01*
X101154774Y-140751898D01*
X101232795Y-140940256D01*
X101346063Y-141109774D01*
X101490226Y-141253937D01*
X101659744Y-141367205D01*
X101848102Y-141445226D01*
X102048061Y-141485000D01*
X102251939Y-141485000D01*
X102451898Y-141445226D01*
X102640256Y-141367205D01*
X102809774Y-141253937D01*
X102953937Y-141109774D01*
X103067205Y-140940256D01*
X103145226Y-140751898D01*
X103156535Y-140695043D01*
X104601578Y-139250000D01*
X110761928Y-139250000D01*
X110765000Y-139814250D01*
X110923750Y-139973000D01*
X112123000Y-139973000D01*
X112123000Y-138773750D01*
X111964250Y-138615000D01*
X111400000Y-138611928D01*
X111275518Y-138624188D01*
X111155820Y-138660498D01*
X111045506Y-138719463D01*
X110948815Y-138798815D01*
X110869463Y-138895506D01*
X110810498Y-139005820D01*
X110774188Y-139125518D01*
X110761928Y-139250000D01*
X104601578Y-139250000D01*
X105916579Y-137935000D01*
X112061546Y-137935000D01*
X112109744Y-137967205D01*
X112298102Y-138045226D01*
X112498061Y-138085000D01*
X112701939Y-138085000D01*
X112901898Y-138045226D01*
X113090256Y-137967205D01*
X113259774Y-137853937D01*
X113403937Y-137709774D01*
X113517205Y-137540256D01*
X113595226Y-137351898D01*
X113635000Y-137151939D01*
X113635000Y-136948061D01*
X113595226Y-136748102D01*
X113517205Y-136559744D01*
X113403937Y-136390226D01*
X113259774Y-136246063D01*
X113090256Y-136132795D01*
X112901898Y-136054774D01*
X112701939Y-136015000D01*
X112498061Y-136015000D01*
X112298102Y-136054774D01*
X112109744Y-136132795D01*
X112061546Y-136165000D01*
X105593465Y-136165000D01*
X105549999Y-136160719D01*
X105506533Y-136165000D01*
X105506523Y-136165000D01*
X105376510Y-136177805D01*
X105209687Y-136228411D01*
X105055941Y-136310589D01*
X105055939Y-136310590D01*
X105055940Y-136310590D01*
X104954953Y-136393468D01*
X104954951Y-136393470D01*
X104921183Y-136421183D01*
X104893470Y-136454951D01*
X101904957Y-139443465D01*
X101848102Y-139454774D01*
X101659744Y-139532795D01*
X101490226Y-139646063D01*
X101346063Y-139790226D01*
X101232795Y-139959744D01*
X101154774Y-140148102D01*
X101115000Y-140348061D01*
X100476740Y-140348061D01*
X106361003Y-134463799D01*
X106390001Y-134440001D01*
X106484974Y-134324276D01*
X106555546Y-134192247D01*
X106599003Y-134048986D01*
X106610000Y-133937333D01*
X106610000Y-133937324D01*
X106613676Y-133900001D01*
X106610000Y-133862678D01*
X106610000Y-130464801D01*
X108984802Y-128090000D01*
X112576289Y-128090000D01*
X112620226Y-128133937D01*
X112789744Y-128247205D01*
X112978102Y-128325226D01*
X113178061Y-128365000D01*
X113381939Y-128365000D01*
X113581898Y-128325226D01*
X113640001Y-128301159D01*
X113640001Y-128553096D01*
X113614245Y-128542427D01*
X113414286Y-128502653D01*
X113210408Y-128502653D01*
X113010449Y-128542427D01*
X112822091Y-128620448D01*
X112652573Y-128733716D01*
X112608636Y-128777653D01*
X111941364Y-128777653D01*
X111897427Y-128733716D01*
X111727909Y-128620448D01*
X111539551Y-128542427D01*
X111339592Y-128502653D01*
X111135714Y-128502653D01*
X110935755Y-128542427D01*
X110747397Y-128620448D01*
X110577879Y-128733716D01*
X110433716Y-128877879D01*
X110320448Y-129047397D01*
X110242427Y-129235755D01*
X110202653Y-129435714D01*
X110202653Y-129639592D01*
X110242427Y-129839551D01*
X110320448Y-130027909D01*
X110433716Y-130197427D01*
X110577879Y-130341590D01*
X110747397Y-130454858D01*
X110935755Y-130532879D01*
X111135714Y-130572653D01*
X111339592Y-130572653D01*
X111539551Y-130532879D01*
X111727909Y-130454858D01*
X111897427Y-130341590D01*
X111941364Y-130297653D01*
X112608636Y-130297653D01*
X112652573Y-130341590D01*
X112822091Y-130454858D01*
X113010449Y-130532879D01*
X113210408Y-130572653D01*
X113414286Y-130572653D01*
X113614245Y-130532879D01*
X113640001Y-130522211D01*
X113640000Y-138913210D01*
X113630537Y-138895506D01*
X113551185Y-138798815D01*
X113454494Y-138719463D01*
X113344180Y-138660498D01*
X113224482Y-138624188D01*
X113100000Y-138611928D01*
X112535750Y-138615000D01*
X112377000Y-138773750D01*
X112377000Y-139973000D01*
X112397000Y-139973000D01*
X112397000Y-140227000D01*
X112377000Y-140227000D01*
X112377000Y-140247000D01*
X112123000Y-140247000D01*
X112123000Y-140227000D01*
X110923750Y-140227000D01*
X110765000Y-140385750D01*
X110761928Y-140950000D01*
X110774188Y-141074482D01*
X110810498Y-141194180D01*
X110869463Y-141304494D01*
X110948815Y-141401185D01*
X111045506Y-141480537D01*
X111155820Y-141539502D01*
X111228380Y-141561513D01*
X111096525Y-141693368D01*
X110934010Y-141936589D01*
X110822068Y-142206842D01*
X110765000Y-142493740D01*
X110765000Y-142540199D01*
X109835000Y-141610199D01*
X109835000Y-141548061D01*
X109795226Y-141348102D01*
X109717205Y-141159744D01*
X109603937Y-140990226D01*
X109459774Y-140846063D01*
X109290256Y-140732795D01*
X109101898Y-140654774D01*
X108901939Y-140615000D01*
X108698061Y-140615000D01*
X108498102Y-140654774D01*
X108309744Y-140732795D01*
X108140226Y-140846063D01*
X107996063Y-140990226D01*
X107882795Y-141159744D01*
X107872417Y-141184799D01*
X107845226Y-141048102D01*
X107767205Y-140859744D01*
X107653937Y-140690226D01*
X107509774Y-140546063D01*
X107340256Y-140432795D01*
X107151898Y-140354774D01*
X106951939Y-140315000D01*
X106748061Y-140315000D01*
X106548102Y-140354774D01*
X106359744Y-140432795D01*
X106190226Y-140546063D01*
X106046063Y-140690226D01*
X105932795Y-140859744D01*
X105854774Y-141048102D01*
X105815000Y-141248061D01*
X105815000Y-141451939D01*
X105854774Y-141651898D01*
X105932795Y-141840256D01*
X106046063Y-142009774D01*
X106090001Y-142053712D01*
X106090001Y-142282668D01*
X106086324Y-142320000D01*
X106100998Y-142468985D01*
X106144454Y-142612246D01*
X106215026Y-142744276D01*
X106259940Y-142799003D01*
X106310000Y-142860001D01*
X106338998Y-142883799D01*
X110808790Y-147353592D01*
X110765000Y-147573740D01*
X110765000Y-147866260D01*
X110822068Y-148153158D01*
X110934010Y-148423411D01*
X111096525Y-148666632D01*
X111303368Y-148873475D01*
X111546589Y-149035990D01*
X111816842Y-149147932D01*
X112103740Y-149205000D01*
X112396260Y-149205000D01*
X112683158Y-149147932D01*
X112953411Y-149035990D01*
X113196632Y-148873475D01*
X113403475Y-148666632D01*
X113565990Y-148423411D01*
X113677932Y-148153158D01*
X113735000Y-147866260D01*
X113735000Y-147573740D01*
X113677932Y-147286842D01*
X113565990Y-147016589D01*
X113403475Y-146773368D01*
X113196632Y-146566525D01*
X113022240Y-146450000D01*
X113196632Y-146333475D01*
X113403475Y-146126632D01*
X113565990Y-145883411D01*
X113677932Y-145613158D01*
X113735000Y-145326260D01*
X113735000Y-145033740D01*
X113677932Y-144746842D01*
X113565990Y-144476589D01*
X113403475Y-144233368D01*
X113196632Y-144026525D01*
X113022240Y-143910000D01*
X113196632Y-143793475D01*
X113403475Y-143586632D01*
X113565990Y-143343411D01*
X113677932Y-143073158D01*
X113735000Y-142786260D01*
X113735000Y-142493740D01*
X113691209Y-142273592D01*
X114911004Y-141053798D01*
X114940001Y-141030001D01*
X115034974Y-140914276D01*
X115105546Y-140782247D01*
X115149003Y-140638986D01*
X115160000Y-140527333D01*
X115160000Y-140527324D01*
X115163676Y-140490001D01*
X115160000Y-140452678D01*
X115160000Y-126787322D01*
X115163676Y-126750000D01*
X115160000Y-126712677D01*
X115160000Y-126712667D01*
X115149003Y-126601014D01*
X115105546Y-126457753D01*
X115100387Y-126448102D01*
X115034974Y-126325723D01*
X114963799Y-126238997D01*
X114940001Y-126209999D01*
X114911002Y-126186200D01*
X114787887Y-126063085D01*
X114898061Y-126085000D01*
X115101939Y-126085000D01*
X115301898Y-126045226D01*
X115490256Y-125967205D01*
X115659774Y-125853937D01*
X115803937Y-125709774D01*
X115917205Y-125540256D01*
X115995226Y-125351898D01*
X116035000Y-125151939D01*
X116035000Y-124948061D01*
X115995226Y-124748102D01*
X115917205Y-124559744D01*
X115803937Y-124390226D01*
X115659774Y-124246063D01*
X115490256Y-124132795D01*
X115467229Y-124123257D01*
X117014782Y-122575704D01*
X117011928Y-123100000D01*
%TA.AperFunction,Conductor*%
D16*
G36*
X117011928Y-123100000D02*
G01*
X117024188Y-123224482D01*
X117060498Y-123344180D01*
X117119463Y-123454494D01*
X117198815Y-123551185D01*
X117295506Y-123630537D01*
X117304986Y-123635604D01*
X117191088Y-123774389D01*
X117092850Y-123958180D01*
X117032355Y-124157605D01*
X117011928Y-124365000D01*
X117011928Y-125215000D01*
X117032355Y-125422395D01*
X117092850Y-125621820D01*
X117191088Y-125805611D01*
X117323295Y-125966705D01*
X117436975Y-126060000D01*
X117323295Y-126153295D01*
X117191088Y-126314389D01*
X117092850Y-126498180D01*
X117032355Y-126697605D01*
X117011928Y-126905000D01*
X117011928Y-127755000D01*
X117032355Y-127962395D01*
X117092850Y-128161820D01*
X117191088Y-128345611D01*
X117323295Y-128506705D01*
X117436975Y-128600000D01*
X117323295Y-128693295D01*
X117191088Y-128854389D01*
X117092850Y-129038180D01*
X117032355Y-129237605D01*
X117011928Y-129445000D01*
X117011928Y-130295000D01*
X117032355Y-130502395D01*
X117092850Y-130701820D01*
X117191088Y-130885611D01*
X117304986Y-131024396D01*
X117295506Y-131029463D01*
X117198815Y-131108815D01*
X117119463Y-131205506D01*
X117060498Y-131315820D01*
X117024188Y-131435518D01*
X117011928Y-131560000D01*
X117015000Y-132124250D01*
X117173750Y-132283000D01*
X119023000Y-132283000D01*
X119023000Y-132263000D01*
X119277000Y-132263000D01*
X119277000Y-132283000D01*
X119340000Y-132283000D01*
X119340000Y-132537000D01*
X119277000Y-132537000D01*
X119277000Y-132557000D01*
X119023000Y-132557000D01*
X119023000Y-132537000D01*
X117173750Y-132537000D01*
X117015000Y-132695750D01*
X117011928Y-133260000D01*
X117024188Y-133384482D01*
X117060498Y-133504180D01*
X117119463Y-133614494D01*
X117198815Y-133711185D01*
X117295506Y-133790537D01*
X117304986Y-133795604D01*
X117191088Y-133934389D01*
X117092850Y-134118180D01*
X117032355Y-134317605D01*
X117011928Y-134525000D01*
X117011928Y-135375000D01*
X117032355Y-135582395D01*
X117092850Y-135781820D01*
X117191088Y-135965611D01*
X117323295Y-136126705D01*
X117436975Y-136220000D01*
X117323295Y-136313295D01*
X117191088Y-136474389D01*
X117092850Y-136658180D01*
X117032355Y-136857605D01*
X117011928Y-137065000D01*
X117011928Y-137915000D01*
X117032355Y-138122395D01*
X117092850Y-138321820D01*
X117191088Y-138505611D01*
X117323295Y-138666705D01*
X117436975Y-138760000D01*
X117323295Y-138853295D01*
X117191088Y-139014389D01*
X117092850Y-139198180D01*
X117032355Y-139397605D01*
X117011928Y-139605000D01*
X117011928Y-140455000D01*
X117032355Y-140662395D01*
X117092850Y-140861820D01*
X117191088Y-141045611D01*
X117323295Y-141206705D01*
X117436975Y-141300000D01*
X117323295Y-141393295D01*
X117191088Y-141554389D01*
X117092850Y-141738180D01*
X117032355Y-141937605D01*
X117011928Y-142145000D01*
X117011928Y-142995000D01*
X117032355Y-143202395D01*
X117092850Y-143401820D01*
X117191088Y-143585611D01*
X117323295Y-143746705D01*
X117436975Y-143840000D01*
X117323295Y-143933295D01*
X117191088Y-144094389D01*
X117092850Y-144278180D01*
X117032355Y-144477605D01*
X117011928Y-144685000D01*
X117011928Y-145535000D01*
X117032355Y-145742395D01*
X117092850Y-145941820D01*
X117191088Y-146125611D01*
X117323295Y-146286705D01*
X117436975Y-146380000D01*
X117323295Y-146473295D01*
X117191088Y-146634389D01*
X117092850Y-146818180D01*
X117032355Y-147017605D01*
X117011928Y-147225000D01*
X117011928Y-148075000D01*
X117032355Y-148282395D01*
X117092850Y-148481820D01*
X117191088Y-148665611D01*
X117323295Y-148826705D01*
X117484389Y-148958912D01*
X117668180Y-149057150D01*
X117867605Y-149117645D01*
X118075000Y-149138072D01*
X119340000Y-149138072D01*
X119340000Y-149290000D01*
X103536790Y-149290000D01*
X103554494Y-149280537D01*
X103651185Y-149201185D01*
X103730537Y-149104494D01*
X103789502Y-148994180D01*
X103825812Y-148874482D01*
X103838072Y-148750000D01*
X103838072Y-147050000D01*
X103825812Y-146925518D01*
X103789502Y-146805820D01*
X103730537Y-146695506D01*
X103651185Y-146598815D01*
X103554494Y-146519463D01*
X103444180Y-146460498D01*
X103324482Y-146424188D01*
X103200000Y-146411928D01*
X101500000Y-146411928D01*
X101375518Y-146424188D01*
X101255820Y-146460498D01*
X101145506Y-146519463D01*
X101048815Y-146598815D01*
X100969463Y-146695506D01*
X100910498Y-146805820D01*
X100886034Y-146886466D01*
X100810269Y-146802412D01*
X100576920Y-146628359D01*
X100314099Y-146503175D01*
X100166890Y-146458524D01*
X99937000Y-146579845D01*
X99937000Y-147773000D01*
X99957000Y-147773000D01*
X99957000Y-148027000D01*
X99937000Y-148027000D01*
X99937000Y-148047000D01*
X99683000Y-148047000D01*
X99683000Y-148027000D01*
X99663000Y-148027000D01*
X99663000Y-147773000D01*
X99683000Y-147773000D01*
X99683000Y-146579845D01*
X99453110Y-146458524D01*
X99305901Y-146503175D01*
X99043080Y-146628359D01*
X98809731Y-146802412D01*
X98614822Y-147018645D01*
X98545195Y-147135534D01*
X98423475Y-146953368D01*
X98216632Y-146746525D01*
X97973411Y-146584010D01*
X97703158Y-146472068D01*
X97416260Y-146415000D01*
X97123740Y-146415000D01*
X96903592Y-146458791D01*
X96410000Y-145965199D01*
X96410000Y-144403711D01*
X96453937Y-144359774D01*
X96567205Y-144190256D01*
X96645226Y-144001898D01*
X96685000Y-143801939D01*
X96685000Y-143598061D01*
X96645226Y-143398102D01*
X96567205Y-143209744D01*
X96453937Y-143040226D01*
X96309774Y-142896063D01*
X96140256Y-142782795D01*
X95951898Y-142704774D01*
X95751939Y-142665000D01*
X95548061Y-142665000D01*
X95348102Y-142704774D01*
X95159744Y-142782795D01*
X94990226Y-142896063D01*
X94846063Y-143040226D01*
X94732795Y-143209744D01*
X94654774Y-143398102D01*
X94615000Y-143598061D01*
X94615000Y-143801939D01*
X94654774Y-144001898D01*
X94732795Y-144190256D01*
X94846063Y-144359774D01*
X94890000Y-144403711D01*
X94890001Y-146242668D01*
X94886324Y-146280000D01*
X94890001Y-146317333D01*
X94900087Y-146419740D01*
X94876260Y-146415000D01*
X94583740Y-146415000D01*
X94363592Y-146458790D01*
X90893804Y-142989003D01*
X90870001Y-142959999D01*
X90754276Y-142865026D01*
X90622247Y-142794454D01*
X90478986Y-142750997D01*
X90367333Y-142740000D01*
X90367322Y-142740000D01*
X90330000Y-142736324D01*
X90292678Y-142740000D01*
X89843804Y-142740000D01*
X88713803Y-141610000D01*
X98862678Y-141610000D01*
X98900000Y-141613676D01*
X98937322Y-141610000D01*
X98937333Y-141610000D01*
X99048986Y-141599003D01*
X99192247Y-141555546D01*
X99324276Y-141484974D01*
X99440001Y-141390001D01*
X99463804Y-141360997D01*
X100476740Y-140348061D01*
X101115000Y-140348061D01*
X101115000Y-140551939D01*
X101154774Y-140751898D01*
X101232795Y-140940256D01*
X101346063Y-141109774D01*
X101490226Y-141253937D01*
X101659744Y-141367205D01*
X101848102Y-141445226D01*
X102048061Y-141485000D01*
X102251939Y-141485000D01*
X102451898Y-141445226D01*
X102640256Y-141367205D01*
X102809774Y-141253937D01*
X102953937Y-141109774D01*
X103067205Y-140940256D01*
X103145226Y-140751898D01*
X103156535Y-140695043D01*
X104601578Y-139250000D01*
X110761928Y-139250000D01*
X110765000Y-139814250D01*
X110923750Y-139973000D01*
X112123000Y-139973000D01*
X112123000Y-138773750D01*
X111964250Y-138615000D01*
X111400000Y-138611928D01*
X111275518Y-138624188D01*
X111155820Y-138660498D01*
X111045506Y-138719463D01*
X110948815Y-138798815D01*
X110869463Y-138895506D01*
X110810498Y-139005820D01*
X110774188Y-139125518D01*
X110761928Y-139250000D01*
X104601578Y-139250000D01*
X105916579Y-137935000D01*
X112061546Y-137935000D01*
X112109744Y-137967205D01*
X112298102Y-138045226D01*
X112498061Y-138085000D01*
X112701939Y-138085000D01*
X112901898Y-138045226D01*
X113090256Y-137967205D01*
X113259774Y-137853937D01*
X113403937Y-137709774D01*
X113517205Y-137540256D01*
X113595226Y-137351898D01*
X113635000Y-137151939D01*
X113635000Y-136948061D01*
X113595226Y-136748102D01*
X113517205Y-136559744D01*
X113403937Y-136390226D01*
X113259774Y-136246063D01*
X113090256Y-136132795D01*
X112901898Y-136054774D01*
X112701939Y-136015000D01*
X112498061Y-136015000D01*
X112298102Y-136054774D01*
X112109744Y-136132795D01*
X112061546Y-136165000D01*
X105593465Y-136165000D01*
X105549999Y-136160719D01*
X105506533Y-136165000D01*
X105506523Y-136165000D01*
X105376510Y-136177805D01*
X105209687Y-136228411D01*
X105055941Y-136310589D01*
X105055939Y-136310590D01*
X105055940Y-136310590D01*
X104954953Y-136393468D01*
X104954951Y-136393470D01*
X104921183Y-136421183D01*
X104893470Y-136454951D01*
X101904957Y-139443465D01*
X101848102Y-139454774D01*
X101659744Y-139532795D01*
X101490226Y-139646063D01*
X101346063Y-139790226D01*
X101232795Y-139959744D01*
X101154774Y-140148102D01*
X101115000Y-140348061D01*
X100476740Y-140348061D01*
X106361003Y-134463799D01*
X106390001Y-134440001D01*
X106484974Y-134324276D01*
X106555546Y-134192247D01*
X106599003Y-134048986D01*
X106610000Y-133937333D01*
X106610000Y-133937324D01*
X106613676Y-133900001D01*
X106610000Y-133862678D01*
X106610000Y-130464801D01*
X108984802Y-128090000D01*
X112576289Y-128090000D01*
X112620226Y-128133937D01*
X112789744Y-128247205D01*
X112978102Y-128325226D01*
X113178061Y-128365000D01*
X113381939Y-128365000D01*
X113581898Y-128325226D01*
X113640001Y-128301159D01*
X113640001Y-128553096D01*
X113614245Y-128542427D01*
X113414286Y-128502653D01*
X113210408Y-128502653D01*
X113010449Y-128542427D01*
X112822091Y-128620448D01*
X112652573Y-128733716D01*
X112608636Y-128777653D01*
X111941364Y-128777653D01*
X111897427Y-128733716D01*
X111727909Y-128620448D01*
X111539551Y-128542427D01*
X111339592Y-128502653D01*
X111135714Y-128502653D01*
X110935755Y-128542427D01*
X110747397Y-128620448D01*
X110577879Y-128733716D01*
X110433716Y-128877879D01*
X110320448Y-129047397D01*
X110242427Y-129235755D01*
X110202653Y-129435714D01*
X110202653Y-129639592D01*
X110242427Y-129839551D01*
X110320448Y-130027909D01*
X110433716Y-130197427D01*
X110577879Y-130341590D01*
X110747397Y-130454858D01*
X110935755Y-130532879D01*
X111135714Y-130572653D01*
X111339592Y-130572653D01*
X111539551Y-130532879D01*
X111727909Y-130454858D01*
X111897427Y-130341590D01*
X111941364Y-130297653D01*
X112608636Y-130297653D01*
X112652573Y-130341590D01*
X112822091Y-130454858D01*
X113010449Y-130532879D01*
X113210408Y-130572653D01*
X113414286Y-130572653D01*
X113614245Y-130532879D01*
X113640001Y-130522211D01*
X113640000Y-138913210D01*
X113630537Y-138895506D01*
X113551185Y-138798815D01*
X113454494Y-138719463D01*
X113344180Y-138660498D01*
X113224482Y-138624188D01*
X113100000Y-138611928D01*
X112535750Y-138615000D01*
X112377000Y-138773750D01*
X112377000Y-139973000D01*
X112397000Y-139973000D01*
X112397000Y-140227000D01*
X112377000Y-140227000D01*
X112377000Y-140247000D01*
X112123000Y-140247000D01*
X112123000Y-140227000D01*
X110923750Y-140227000D01*
X110765000Y-140385750D01*
X110761928Y-140950000D01*
X110774188Y-141074482D01*
X110810498Y-141194180D01*
X110869463Y-141304494D01*
X110948815Y-141401185D01*
X111045506Y-141480537D01*
X111155820Y-141539502D01*
X111228380Y-141561513D01*
X111096525Y-141693368D01*
X110934010Y-141936589D01*
X110822068Y-142206842D01*
X110765000Y-142493740D01*
X110765000Y-142540199D01*
X109835000Y-141610199D01*
X109835000Y-141548061D01*
X109795226Y-141348102D01*
X109717205Y-141159744D01*
X109603937Y-140990226D01*
X109459774Y-140846063D01*
X109290256Y-140732795D01*
X109101898Y-140654774D01*
X108901939Y-140615000D01*
X108698061Y-140615000D01*
X108498102Y-140654774D01*
X108309744Y-140732795D01*
X108140226Y-140846063D01*
X107996063Y-140990226D01*
X107882795Y-141159744D01*
X107872417Y-141184799D01*
X107845226Y-141048102D01*
X107767205Y-140859744D01*
X107653937Y-140690226D01*
X107509774Y-140546063D01*
X107340256Y-140432795D01*
X107151898Y-140354774D01*
X106951939Y-140315000D01*
X106748061Y-140315000D01*
X106548102Y-140354774D01*
X106359744Y-140432795D01*
X106190226Y-140546063D01*
X106046063Y-140690226D01*
X105932795Y-140859744D01*
X105854774Y-141048102D01*
X105815000Y-141248061D01*
X105815000Y-141451939D01*
X105854774Y-141651898D01*
X105932795Y-141840256D01*
X106046063Y-142009774D01*
X106090001Y-142053712D01*
X106090001Y-142282668D01*
X106086324Y-142320000D01*
X106100998Y-142468985D01*
X106144454Y-142612246D01*
X106215026Y-142744276D01*
X106259940Y-142799003D01*
X106310000Y-142860001D01*
X106338998Y-142883799D01*
X110808790Y-147353592D01*
X110765000Y-147573740D01*
X110765000Y-147866260D01*
X110822068Y-148153158D01*
X110934010Y-148423411D01*
X111096525Y-148666632D01*
X111303368Y-148873475D01*
X111546589Y-149035990D01*
X111816842Y-149147932D01*
X112103740Y-149205000D01*
X112396260Y-149205000D01*
X112683158Y-149147932D01*
X112953411Y-149035990D01*
X113196632Y-148873475D01*
X113403475Y-148666632D01*
X113565990Y-148423411D01*
X113677932Y-148153158D01*
X113735000Y-147866260D01*
X113735000Y-147573740D01*
X113677932Y-147286842D01*
X113565990Y-147016589D01*
X113403475Y-146773368D01*
X113196632Y-146566525D01*
X113022240Y-146450000D01*
X113196632Y-146333475D01*
X113403475Y-146126632D01*
X113565990Y-145883411D01*
X113677932Y-145613158D01*
X113735000Y-145326260D01*
X113735000Y-145033740D01*
X113677932Y-144746842D01*
X113565990Y-144476589D01*
X113403475Y-144233368D01*
X113196632Y-144026525D01*
X113022240Y-143910000D01*
X113196632Y-143793475D01*
X113403475Y-143586632D01*
X113565990Y-143343411D01*
X113677932Y-143073158D01*
X113735000Y-142786260D01*
X113735000Y-142493740D01*
X113691209Y-142273592D01*
X114911004Y-141053798D01*
X114940001Y-141030001D01*
X115034974Y-140914276D01*
X115105546Y-140782247D01*
X115149003Y-140638986D01*
X115160000Y-140527333D01*
X115160000Y-140527324D01*
X115163676Y-140490001D01*
X115160000Y-140452678D01*
X115160000Y-126787322D01*
X115163676Y-126750000D01*
X115160000Y-126712677D01*
X115160000Y-126712667D01*
X115149003Y-126601014D01*
X115105546Y-126457753D01*
X115100387Y-126448102D01*
X115034974Y-126325723D01*
X114963799Y-126238997D01*
X114940001Y-126209999D01*
X114911002Y-126186200D01*
X114787887Y-126063085D01*
X114898061Y-126085000D01*
X115101939Y-126085000D01*
X115301898Y-126045226D01*
X115490256Y-125967205D01*
X115659774Y-125853937D01*
X115803937Y-125709774D01*
X115917205Y-125540256D01*
X115995226Y-125351898D01*
X116035000Y-125151939D01*
X116035000Y-124948061D01*
X115995226Y-124748102D01*
X115917205Y-124559744D01*
X115803937Y-124390226D01*
X115659774Y-124246063D01*
X115490256Y-124132795D01*
X115467229Y-124123257D01*
X117014782Y-122575704D01*
X117011928Y-123100000D01*
G37*
%TD.AperFunction*%
D15*
X105586196Y-124060997D02*
X105609999Y-124090001D01*
X105725724Y-124184974D01*
X105857753Y-124255546D01*
X106001014Y-124299003D01*
X106112667Y-124310000D01*
X106112675Y-124310000D01*
X106150000Y-124313676D01*
X106187325Y-124310000D01*
X106696289Y-124310000D01*
X106740226Y-124353937D01*
X106909744Y-124467205D01*
X107098102Y-124545226D01*
X107298061Y-124585000D01*
X107501939Y-124585000D01*
X107701898Y-124545226D01*
X107790001Y-124508732D01*
X107790000Y-125362677D01*
X107786324Y-125400000D01*
X107790000Y-125437322D01*
X107790000Y-125437332D01*
X107800997Y-125548985D01*
X107839443Y-125675726D01*
X107844454Y-125692246D01*
X107915026Y-125824276D01*
X107946277Y-125862355D01*
X108009999Y-125940001D01*
X108039002Y-125963803D01*
X108644075Y-126568877D01*
X108632676Y-126570000D01*
X108632667Y-126570000D01*
X108521014Y-126580997D01*
X108377753Y-126624454D01*
X108245724Y-126695026D01*
X108129999Y-126789999D01*
X108106201Y-126818997D01*
X105339003Y-129586196D01*
X105309999Y-129609999D01*
X105278729Y-129648102D01*
X105215026Y-129725724D01*
X105159342Y-129829900D01*
X105144454Y-129857754D01*
X105100997Y-130001015D01*
X105090000Y-130112668D01*
X105090000Y-130112678D01*
X105086324Y-130150000D01*
X105090000Y-130187323D01*
X105090001Y-133585197D01*
X100550670Y-138124529D01*
X100585000Y-137951939D01*
X100585000Y-137748061D01*
X100545226Y-137548102D01*
X100467205Y-137359744D01*
X100353937Y-137190226D01*
X100209774Y-137046063D01*
X100040256Y-136932795D01*
X99851898Y-136854774D01*
X99795043Y-136843465D01*
X99694059Y-136760589D01*
X99540313Y-136678411D01*
X99373490Y-136627805D01*
X99243477Y-136615000D01*
X95654656Y-136615000D01*
X95613475Y-136553368D01*
X95406632Y-136346525D01*
X95163411Y-136184010D01*
X94893158Y-136072068D01*
X94606260Y-136015000D01*
X94313740Y-136015000D01*
X94026842Y-136072068D01*
X93756589Y-136184010D01*
X93513368Y-136346525D01*
X93306525Y-136553368D01*
X93184805Y-136735534D01*
X93115178Y-136618645D01*
X92920269Y-136402412D01*
X92686920Y-136228359D01*
X92424099Y-136103175D01*
X92276890Y-136058524D01*
X92047000Y-136179845D01*
X92047000Y-137373000D01*
X92067000Y-137373000D01*
X92067000Y-137627000D01*
X92047000Y-137627000D01*
X92047000Y-138820155D01*
X92276890Y-138941476D01*
X92424099Y-138896825D01*
X92686920Y-138771641D01*
X92920269Y-138597588D01*
X93115178Y-138381355D01*
X93184805Y-138264466D01*
X93306525Y-138446632D01*
X93513368Y-138653475D01*
X93756589Y-138815990D01*
X94026842Y-138927932D01*
X94313740Y-138985000D01*
X94606260Y-138985000D01*
X94893158Y-138927932D01*
X95163411Y-138815990D01*
X95406632Y-138653475D01*
X95613475Y-138446632D01*
X95654656Y-138385000D01*
X98662692Y-138385000D01*
X98746063Y-138509774D01*
X98890226Y-138653937D01*
X99059744Y-138767205D01*
X99248102Y-138845226D01*
X99448061Y-138885000D01*
X99651939Y-138885000D01*
X99824529Y-138850670D01*
X98585199Y-140090000D01*
X85424803Y-140090000D01*
X84319802Y-138985000D01*
X84446260Y-138985000D01*
X84733158Y-138927932D01*
X85003411Y-138815990D01*
X85246632Y-138653475D01*
X85453475Y-138446632D01*
X85570000Y-138272240D01*
X85686525Y-138446632D01*
X85893368Y-138653475D01*
X86136589Y-138815990D01*
X86406842Y-138927932D01*
X86693740Y-138985000D01*
X86986260Y-138985000D01*
X87273158Y-138927932D01*
X87543411Y-138815990D01*
X87786632Y-138653475D01*
X87993475Y-138446632D01*
X88110000Y-138272240D01*
X88226525Y-138446632D01*
X88433368Y-138653475D01*
X88676589Y-138815990D01*
X88946842Y-138927932D01*
X89233740Y-138985000D01*
X89526260Y-138985000D01*
X89813158Y-138927932D01*
X90083411Y-138815990D01*
X90326632Y-138653475D01*
X90533475Y-138446632D01*
X90655195Y-138264466D01*
X90724822Y-138381355D01*
X90919731Y-138597588D01*
X91153080Y-138771641D01*
X91415901Y-138896825D01*
X91563110Y-138941476D01*
X91793000Y-138820155D01*
X91793000Y-137627000D01*
X91773000Y-137627000D01*
X91773000Y-137373000D01*
X91793000Y-137373000D01*
X91793000Y-136179845D01*
X91563110Y-136058524D01*
X91415901Y-136103175D01*
X91153080Y-136228359D01*
X90919731Y-136402412D01*
X90724822Y-136618645D01*
X90655195Y-136735534D01*
X90533475Y-136553368D01*
X90326632Y-136346525D01*
X90083411Y-136184010D01*
X89813158Y-136072068D01*
X89526260Y-136015000D01*
X89233740Y-136015000D01*
X88946842Y-136072068D01*
X88676589Y-136184010D01*
X88433368Y-136346525D01*
X88226525Y-136553368D01*
X88110000Y-136727760D01*
X87993475Y-136553368D01*
X87786632Y-136346525D01*
X87543411Y-136184010D01*
X87273158Y-136072068D01*
X86986260Y-136015000D01*
X86693740Y-136015000D01*
X86473592Y-136058790D01*
X84914256Y-134499455D01*
X85053937Y-134359774D01*
X85167205Y-134190256D01*
X85245226Y-134001898D01*
X85285000Y-133801939D01*
X85285000Y-133739802D01*
X85414802Y-133610000D01*
X93424130Y-133610000D01*
X93509744Y-133667205D01*
X93698102Y-133745226D01*
X93898061Y-133785000D01*
X94101939Y-133785000D01*
X94301898Y-133745226D01*
X94490256Y-133667205D01*
X94659774Y-133553937D01*
X94803937Y-133409774D01*
X94917205Y-133240256D01*
X94993481Y-133056112D01*
X95159744Y-133167205D01*
X95348102Y-133245226D01*
X95548061Y-133285000D01*
X95610199Y-133285000D01*
X96515000Y-134189802D01*
X96515000Y-134251939D01*
X96554774Y-134451898D01*
X96632795Y-134640256D01*
X96746063Y-134809774D01*
X96890226Y-134953937D01*
X97059744Y-135067205D01*
X97248102Y-135145226D01*
X97448061Y-135185000D01*
X97651939Y-135185000D01*
X97851898Y-135145226D01*
X98040256Y-135067205D01*
X98209774Y-134953937D01*
X98353937Y-134809774D01*
X98467205Y-134640256D01*
X98545226Y-134451898D01*
X98585000Y-134251939D01*
X98585000Y-134059802D01*
X100265000Y-135739802D01*
X100265000Y-135801939D01*
X100304774Y-136001898D01*
X100382795Y-136190256D01*
X100496063Y-136359774D01*
X100640226Y-136503937D01*
X100809744Y-136617205D01*
X100998102Y-136695226D01*
X101198061Y-136735000D01*
X101401939Y-136735000D01*
X101601898Y-136695226D01*
X101790256Y-136617205D01*
X101959774Y-136503937D01*
X102103937Y-136359774D01*
X102217205Y-136190256D01*
X102295226Y-136001898D01*
X102300509Y-135975339D01*
X102451898Y-135945226D01*
X102640256Y-135867205D01*
X102809774Y-135753937D01*
X102953937Y-135609774D01*
X103067205Y-135440256D01*
X103145226Y-135251898D01*
X103185000Y-135051939D01*
X103185000Y-134848061D01*
X103145226Y-134648102D01*
X103067205Y-134459744D01*
X102953937Y-134290226D01*
X102809774Y-134146063D01*
X102640256Y-134032795D01*
X102451898Y-133954774D01*
X102251939Y-133915000D01*
X102189802Y-133915000D01*
X95258743Y-126983942D01*
X95285000Y-126851939D01*
X95285000Y-126648061D01*
X95245226Y-126448102D01*
X95167205Y-126259744D01*
X95164505Y-126255703D01*
X95257753Y-126305546D01*
X95401014Y-126349003D01*
X95512667Y-126360000D01*
X95512676Y-126360000D01*
X95549999Y-126363676D01*
X95587322Y-126360000D01*
X100896289Y-126360000D01*
X100940226Y-126403937D01*
X101109744Y-126517205D01*
X101298102Y-126595226D01*
X101498061Y-126635000D01*
X101701939Y-126635000D01*
X101901898Y-126595226D01*
X102090256Y-126517205D01*
X102259774Y-126403937D01*
X102403937Y-126259774D01*
X102517205Y-126090256D01*
X102595226Y-125901898D01*
X102635000Y-125701939D01*
X102635000Y-125659802D01*
X102865000Y-125889802D01*
X102865000Y-125951939D01*
X102904774Y-126151898D01*
X102982795Y-126340256D01*
X103096063Y-126509774D01*
X103240226Y-126653937D01*
X103409744Y-126767205D01*
X103598102Y-126845226D01*
X103798061Y-126885000D01*
X104001939Y-126885000D01*
X104201898Y-126845226D01*
X104390256Y-126767205D01*
X104559774Y-126653937D01*
X104703937Y-126509774D01*
X104817205Y-126340256D01*
X104895226Y-126151898D01*
X104935000Y-125951939D01*
X104935000Y-125748061D01*
X104895226Y-125548102D01*
X104817205Y-125359744D01*
X104703937Y-125190226D01*
X104559774Y-125046063D01*
X104390256Y-124932795D01*
X104201898Y-124854774D01*
X104001939Y-124815000D01*
X103939802Y-124815000D01*
X102934811Y-123810010D01*
X105335209Y-123810010D01*
X105586196Y-124060997D01*
%TA.AperFunction,Conductor*%
D16*
G36*
X105586196Y-124060997D02*
G01*
X105609999Y-124090001D01*
X105725724Y-124184974D01*
X105857753Y-124255546D01*
X106001014Y-124299003D01*
X106112667Y-124310000D01*
X106112675Y-124310000D01*
X106150000Y-124313676D01*
X106187325Y-124310000D01*
X106696289Y-124310000D01*
X106740226Y-124353937D01*
X106909744Y-124467205D01*
X107098102Y-124545226D01*
X107298061Y-124585000D01*
X107501939Y-124585000D01*
X107701898Y-124545226D01*
X107790001Y-124508732D01*
X107790000Y-125362677D01*
X107786324Y-125400000D01*
X107790000Y-125437322D01*
X107790000Y-125437332D01*
X107800997Y-125548985D01*
X107839443Y-125675726D01*
X107844454Y-125692246D01*
X107915026Y-125824276D01*
X107946277Y-125862355D01*
X108009999Y-125940001D01*
X108039002Y-125963803D01*
X108644075Y-126568877D01*
X108632676Y-126570000D01*
X108632667Y-126570000D01*
X108521014Y-126580997D01*
X108377753Y-126624454D01*
X108245724Y-126695026D01*
X108129999Y-126789999D01*
X108106201Y-126818997D01*
X105339003Y-129586196D01*
X105309999Y-129609999D01*
X105278729Y-129648102D01*
X105215026Y-129725724D01*
X105159342Y-129829900D01*
X105144454Y-129857754D01*
X105100997Y-130001015D01*
X105090000Y-130112668D01*
X105090000Y-130112678D01*
X105086324Y-130150000D01*
X105090000Y-130187323D01*
X105090001Y-133585197D01*
X100550670Y-138124529D01*
X100585000Y-137951939D01*
X100585000Y-137748061D01*
X100545226Y-137548102D01*
X100467205Y-137359744D01*
X100353937Y-137190226D01*
X100209774Y-137046063D01*
X100040256Y-136932795D01*
X99851898Y-136854774D01*
X99795043Y-136843465D01*
X99694059Y-136760589D01*
X99540313Y-136678411D01*
X99373490Y-136627805D01*
X99243477Y-136615000D01*
X95654656Y-136615000D01*
X95613475Y-136553368D01*
X95406632Y-136346525D01*
X95163411Y-136184010D01*
X94893158Y-136072068D01*
X94606260Y-136015000D01*
X94313740Y-136015000D01*
X94026842Y-136072068D01*
X93756589Y-136184010D01*
X93513368Y-136346525D01*
X93306525Y-136553368D01*
X93184805Y-136735534D01*
X93115178Y-136618645D01*
X92920269Y-136402412D01*
X92686920Y-136228359D01*
X92424099Y-136103175D01*
X92276890Y-136058524D01*
X92047000Y-136179845D01*
X92047000Y-137373000D01*
X92067000Y-137373000D01*
X92067000Y-137627000D01*
X92047000Y-137627000D01*
X92047000Y-138820155D01*
X92276890Y-138941476D01*
X92424099Y-138896825D01*
X92686920Y-138771641D01*
X92920269Y-138597588D01*
X93115178Y-138381355D01*
X93184805Y-138264466D01*
X93306525Y-138446632D01*
X93513368Y-138653475D01*
X93756589Y-138815990D01*
X94026842Y-138927932D01*
X94313740Y-138985000D01*
X94606260Y-138985000D01*
X94893158Y-138927932D01*
X95163411Y-138815990D01*
X95406632Y-138653475D01*
X95613475Y-138446632D01*
X95654656Y-138385000D01*
X98662692Y-138385000D01*
X98746063Y-138509774D01*
X98890226Y-138653937D01*
X99059744Y-138767205D01*
X99248102Y-138845226D01*
X99448061Y-138885000D01*
X99651939Y-138885000D01*
X99824529Y-138850670D01*
X98585199Y-140090000D01*
X85424803Y-140090000D01*
X84319802Y-138985000D01*
X84446260Y-138985000D01*
X84733158Y-138927932D01*
X85003411Y-138815990D01*
X85246632Y-138653475D01*
X85453475Y-138446632D01*
X85570000Y-138272240D01*
X85686525Y-138446632D01*
X85893368Y-138653475D01*
X86136589Y-138815990D01*
X86406842Y-138927932D01*
X86693740Y-138985000D01*
X86986260Y-138985000D01*
X87273158Y-138927932D01*
X87543411Y-138815990D01*
X87786632Y-138653475D01*
X87993475Y-138446632D01*
X88110000Y-138272240D01*
X88226525Y-138446632D01*
X88433368Y-138653475D01*
X88676589Y-138815990D01*
X88946842Y-138927932D01*
X89233740Y-138985000D01*
X89526260Y-138985000D01*
X89813158Y-138927932D01*
X90083411Y-138815990D01*
X90326632Y-138653475D01*
X90533475Y-138446632D01*
X90655195Y-138264466D01*
X90724822Y-138381355D01*
X90919731Y-138597588D01*
X91153080Y-138771641D01*
X91415901Y-138896825D01*
X91563110Y-138941476D01*
X91793000Y-138820155D01*
X91793000Y-137627000D01*
X91773000Y-137627000D01*
X91773000Y-137373000D01*
X91793000Y-137373000D01*
X91793000Y-136179845D01*
X91563110Y-136058524D01*
X91415901Y-136103175D01*
X91153080Y-136228359D01*
X90919731Y-136402412D01*
X90724822Y-136618645D01*
X90655195Y-136735534D01*
X90533475Y-136553368D01*
X90326632Y-136346525D01*
X90083411Y-136184010D01*
X89813158Y-136072068D01*
X89526260Y-136015000D01*
X89233740Y-136015000D01*
X88946842Y-136072068D01*
X88676589Y-136184010D01*
X88433368Y-136346525D01*
X88226525Y-136553368D01*
X88110000Y-136727760D01*
X87993475Y-136553368D01*
X87786632Y-136346525D01*
X87543411Y-136184010D01*
X87273158Y-136072068D01*
X86986260Y-136015000D01*
X86693740Y-136015000D01*
X86473592Y-136058790D01*
X84914256Y-134499455D01*
X85053937Y-134359774D01*
X85167205Y-134190256D01*
X85245226Y-134001898D01*
X85285000Y-133801939D01*
X85285000Y-133739802D01*
X85414802Y-133610000D01*
X93424130Y-133610000D01*
X93509744Y-133667205D01*
X93698102Y-133745226D01*
X93898061Y-133785000D01*
X94101939Y-133785000D01*
X94301898Y-133745226D01*
X94490256Y-133667205D01*
X94659774Y-133553937D01*
X94803937Y-133409774D01*
X94917205Y-133240256D01*
X94993481Y-133056112D01*
X95159744Y-133167205D01*
X95348102Y-133245226D01*
X95548061Y-133285000D01*
X95610199Y-133285000D01*
X96515000Y-134189802D01*
X96515000Y-134251939D01*
X96554774Y-134451898D01*
X96632795Y-134640256D01*
X96746063Y-134809774D01*
X96890226Y-134953937D01*
X97059744Y-135067205D01*
X97248102Y-135145226D01*
X97448061Y-135185000D01*
X97651939Y-135185000D01*
X97851898Y-135145226D01*
X98040256Y-135067205D01*
X98209774Y-134953937D01*
X98353937Y-134809774D01*
X98467205Y-134640256D01*
X98545226Y-134451898D01*
X98585000Y-134251939D01*
X98585000Y-134059802D01*
X100265000Y-135739802D01*
X100265000Y-135801939D01*
X100304774Y-136001898D01*
X100382795Y-136190256D01*
X100496063Y-136359774D01*
X100640226Y-136503937D01*
X100809744Y-136617205D01*
X100998102Y-136695226D01*
X101198061Y-136735000D01*
X101401939Y-136735000D01*
X101601898Y-136695226D01*
X101790256Y-136617205D01*
X101959774Y-136503937D01*
X102103937Y-136359774D01*
X102217205Y-136190256D01*
X102295226Y-136001898D01*
X102300509Y-135975339D01*
X102451898Y-135945226D01*
X102640256Y-135867205D01*
X102809774Y-135753937D01*
X102953937Y-135609774D01*
X103067205Y-135440256D01*
X103145226Y-135251898D01*
X103185000Y-135051939D01*
X103185000Y-134848061D01*
X103145226Y-134648102D01*
X103067205Y-134459744D01*
X102953937Y-134290226D01*
X102809774Y-134146063D01*
X102640256Y-134032795D01*
X102451898Y-133954774D01*
X102251939Y-133915000D01*
X102189802Y-133915000D01*
X95258743Y-126983942D01*
X95285000Y-126851939D01*
X95285000Y-126648061D01*
X95245226Y-126448102D01*
X95167205Y-126259744D01*
X95164505Y-126255703D01*
X95257753Y-126305546D01*
X95401014Y-126349003D01*
X95512667Y-126360000D01*
X95512676Y-126360000D01*
X95549999Y-126363676D01*
X95587322Y-126360000D01*
X100896289Y-126360000D01*
X100940226Y-126403937D01*
X101109744Y-126517205D01*
X101298102Y-126595226D01*
X101498061Y-126635000D01*
X101701939Y-126635000D01*
X101901898Y-126595226D01*
X102090256Y-126517205D01*
X102259774Y-126403937D01*
X102403937Y-126259774D01*
X102517205Y-126090256D01*
X102595226Y-125901898D01*
X102635000Y-125701939D01*
X102635000Y-125659802D01*
X102865000Y-125889802D01*
X102865000Y-125951939D01*
X102904774Y-126151898D01*
X102982795Y-126340256D01*
X103096063Y-126509774D01*
X103240226Y-126653937D01*
X103409744Y-126767205D01*
X103598102Y-126845226D01*
X103798061Y-126885000D01*
X104001939Y-126885000D01*
X104201898Y-126845226D01*
X104390256Y-126767205D01*
X104559774Y-126653937D01*
X104703937Y-126509774D01*
X104817205Y-126340256D01*
X104895226Y-126151898D01*
X104935000Y-125951939D01*
X104935000Y-125748061D01*
X104895226Y-125548102D01*
X104817205Y-125359744D01*
X104703937Y-125190226D01*
X104559774Y-125046063D01*
X104390256Y-124932795D01*
X104201898Y-124854774D01*
X104001939Y-124815000D01*
X103939802Y-124815000D01*
X102934811Y-123810010D01*
X105335209Y-123810010D01*
X105586196Y-124060997D01*
G37*
%TD.AperFunction*%
D15*
X117525518Y-110614188D02*
X117405820Y-110650498D01*
X117295506Y-110709463D01*
X117198815Y-110788815D01*
X117119463Y-110885506D01*
X117060498Y-110995820D01*
X117024188Y-111115518D01*
X117011928Y-111240000D01*
X117015000Y-111804250D01*
X117173750Y-111963000D01*
X119023000Y-111963000D01*
X119023000Y-111943000D01*
X119277000Y-111943000D01*
X119277000Y-111963000D01*
X119340001Y-111963000D01*
X119340001Y-112217000D01*
X119277000Y-112217000D01*
X119277000Y-112237000D01*
X119023000Y-112237000D01*
X119023000Y-112217000D01*
X117173750Y-112217000D01*
X117015000Y-112375750D01*
X117011928Y-112940000D01*
X117024188Y-113064482D01*
X117060498Y-113184180D01*
X117119463Y-113294494D01*
X117198815Y-113391185D01*
X117295506Y-113470537D01*
X117304986Y-113475604D01*
X117191088Y-113614389D01*
X117092850Y-113798180D01*
X117071064Y-113870000D01*
X115807322Y-113870000D01*
X115769999Y-113866324D01*
X115732677Y-113870000D01*
X115732667Y-113870000D01*
X115621014Y-113880997D01*
X115477753Y-113924454D01*
X115345724Y-113995026D01*
X115229999Y-114089999D01*
X115206196Y-114119003D01*
X115139303Y-114185896D01*
X115110305Y-114209694D01*
X115086507Y-114238692D01*
X115086506Y-114238693D01*
X115015331Y-114325419D01*
X114977752Y-114395724D01*
X114944759Y-114457448D01*
X114901302Y-114600709D01*
X114892028Y-114694871D01*
X114846368Y-114740531D01*
X114733100Y-114910049D01*
X114655079Y-115098407D01*
X114615305Y-115298366D01*
X114615305Y-115502244D01*
X114655079Y-115702203D01*
X114733100Y-115890561D01*
X114846368Y-116060079D01*
X114990531Y-116204242D01*
X115160049Y-116317510D01*
X115348407Y-116395531D01*
X115421148Y-116410000D01*
X115067323Y-116410000D01*
X115030000Y-116406324D01*
X114992677Y-116410000D01*
X114992667Y-116410000D01*
X114881014Y-116420997D01*
X114737753Y-116464454D01*
X114605724Y-116535026D01*
X114489999Y-116629999D01*
X114466200Y-116658998D01*
X113939002Y-117186197D01*
X113909999Y-117209999D01*
X113885193Y-117240226D01*
X113815026Y-117325724D01*
X113767307Y-117415000D01*
X113744454Y-117457754D01*
X113700997Y-117601015D01*
X113690000Y-117712668D01*
X113690000Y-117712678D01*
X113686324Y-117750000D01*
X113690000Y-117787323D01*
X113690001Y-121385197D01*
X113585198Y-121490000D01*
X112853711Y-121490000D01*
X112809774Y-121446063D01*
X112720708Y-121386551D01*
X113000000Y-121388072D01*
X113124482Y-121375812D01*
X113244180Y-121339502D01*
X113354494Y-121280537D01*
X113451185Y-121201185D01*
X113530537Y-121104494D01*
X113589502Y-120994180D01*
X113625812Y-120874482D01*
X113638072Y-120750000D01*
X113635000Y-120185750D01*
X113476250Y-120027000D01*
X112277000Y-120027000D01*
X112277000Y-120047000D01*
X112023000Y-120047000D01*
X112023000Y-120027000D01*
X110823750Y-120027000D01*
X110665000Y-120185750D01*
X110661928Y-120750000D01*
X110674188Y-120874482D01*
X110710498Y-120994180D01*
X110769463Y-121104494D01*
X110848815Y-121201185D01*
X110945506Y-121280537D01*
X111055820Y-121339502D01*
X111175518Y-121375812D01*
X111300000Y-121388072D01*
X111579292Y-121386551D01*
X111490226Y-121446063D01*
X111346063Y-121590226D01*
X111232795Y-121759744D01*
X111154774Y-121948102D01*
X111115000Y-122148061D01*
X111115000Y-122351939D01*
X111154774Y-122551898D01*
X111232795Y-122740256D01*
X111346063Y-122909774D01*
X111490226Y-123053937D01*
X111658995Y-123166704D01*
X111540226Y-123246063D01*
X111396063Y-123390226D01*
X111282795Y-123559744D01*
X111204774Y-123748102D01*
X111165000Y-123948061D01*
X111165000Y-124151939D01*
X111192462Y-124290000D01*
X111163506Y-124290000D01*
X111145226Y-124198102D01*
X111067205Y-124009744D01*
X110953937Y-123840226D01*
X110809774Y-123696063D01*
X110640256Y-123582795D01*
X110451898Y-123504774D01*
X110251939Y-123465000D01*
X110048061Y-123465000D01*
X109848102Y-123504774D01*
X109659744Y-123582795D01*
X109490226Y-123696063D01*
X109346063Y-123840226D01*
X109310000Y-123894198D01*
X109310000Y-117953711D01*
X109353937Y-117909774D01*
X109467205Y-117740256D01*
X109545226Y-117551898D01*
X109585000Y-117351939D01*
X109585000Y-117148061D01*
X109545226Y-116948102D01*
X109467205Y-116759744D01*
X109353937Y-116590226D01*
X109209774Y-116446063D01*
X109040256Y-116332795D01*
X108851898Y-116254774D01*
X108651939Y-116215000D01*
X108448061Y-116215000D01*
X108248102Y-116254774D01*
X108059744Y-116332795D01*
X107890226Y-116446063D01*
X107746063Y-116590226D01*
X107633724Y-116758354D01*
X107635000Y-116751939D01*
X107635000Y-116689801D01*
X108744802Y-115580000D01*
X110871822Y-115580000D01*
X110996525Y-115766632D01*
X111203368Y-115973475D01*
X111377760Y-116090000D01*
X111203368Y-116206525D01*
X110996525Y-116413368D01*
X110834010Y-116656589D01*
X110722068Y-116926842D01*
X110665000Y-117213740D01*
X110665000Y-117506260D01*
X110722068Y-117793158D01*
X110834010Y-118063411D01*
X110996525Y-118306632D01*
X111128380Y-118438487D01*
X111055820Y-118460498D01*
X110945506Y-118519463D01*
X110848815Y-118598815D01*
X110769463Y-118695506D01*
X110710498Y-118805820D01*
X110674188Y-118925518D01*
X110661928Y-119050000D01*
X110665000Y-119614250D01*
X110823750Y-119773000D01*
X112023000Y-119773000D01*
X112023000Y-119753000D01*
X112277000Y-119753000D01*
X112277000Y-119773000D01*
X113476250Y-119773000D01*
X113635000Y-119614250D01*
X113638072Y-119050000D01*
X113625812Y-118925518D01*
X113589502Y-118805820D01*
X113530537Y-118695506D01*
X113451185Y-118598815D01*
X113354494Y-118519463D01*
X113244180Y-118460498D01*
X113171620Y-118438487D01*
X113303475Y-118306632D01*
X113465990Y-118063411D01*
X113577932Y-117793158D01*
X113635000Y-117506260D01*
X113635000Y-117213740D01*
X113577932Y-116926842D01*
X113465990Y-116656589D01*
X113303475Y-116413368D01*
X113096632Y-116206525D01*
X112922240Y-116090000D01*
X113096632Y-115973475D01*
X113303475Y-115766632D01*
X113465990Y-115523411D01*
X113577932Y-115253158D01*
X113635000Y-114966260D01*
X113635000Y-114673740D01*
X113577932Y-114386842D01*
X113465990Y-114116589D01*
X113303475Y-113873368D01*
X113096632Y-113666525D01*
X112922240Y-113550000D01*
X113096632Y-113433475D01*
X113303475Y-113226632D01*
X113465990Y-112983411D01*
X113577932Y-112713158D01*
X113635000Y-112426260D01*
X113635000Y-112133740D01*
X113577932Y-111846842D01*
X113465990Y-111576589D01*
X113303475Y-111333368D01*
X113096632Y-111126525D01*
X112853411Y-110964010D01*
X112583158Y-110852068D01*
X112296260Y-110795000D01*
X112003740Y-110795000D01*
X111716842Y-110852068D01*
X111446589Y-110964010D01*
X111203368Y-111126525D01*
X110996525Y-111333368D01*
X110871822Y-111520000D01*
X109007322Y-111520000D01*
X108969999Y-111516324D01*
X108932676Y-111520000D01*
X108932667Y-111520000D01*
X108821014Y-111530997D01*
X108677753Y-111574454D01*
X108545724Y-111645026D01*
X108429999Y-111739999D01*
X108406201Y-111768997D01*
X103310199Y-116865000D01*
X103248061Y-116865000D01*
X103048102Y-116904774D01*
X102859744Y-116982795D01*
X102690226Y-117096063D01*
X102546063Y-117240226D01*
X102432795Y-117409744D01*
X102354774Y-117598102D01*
X102315000Y-117798061D01*
X102315000Y-118001939D01*
X102354774Y-118201898D01*
X102432795Y-118390256D01*
X102546063Y-118559774D01*
X102690226Y-118703937D01*
X102859744Y-118817205D01*
X103048102Y-118895226D01*
X103248061Y-118935000D01*
X103451939Y-118935000D01*
X103651898Y-118895226D01*
X103840256Y-118817205D01*
X104009774Y-118703937D01*
X104153937Y-118559774D01*
X104267205Y-118390256D01*
X104345226Y-118201898D01*
X104385000Y-118001939D01*
X104385000Y-117939801D01*
X105566304Y-116758497D01*
X105604774Y-116951898D01*
X105682795Y-117140256D01*
X105796063Y-117309774D01*
X105940226Y-117453937D01*
X106109744Y-117567205D01*
X106298102Y-117645226D01*
X106498061Y-117685000D01*
X106701939Y-117685000D01*
X106901898Y-117645226D01*
X107090256Y-117567205D01*
X107259774Y-117453937D01*
X107403937Y-117309774D01*
X107516276Y-117141646D01*
X107515000Y-117148061D01*
X107515000Y-117351939D01*
X107554774Y-117551898D01*
X107632795Y-117740256D01*
X107746063Y-117909774D01*
X107790001Y-117953712D01*
X107790000Y-122591267D01*
X107701898Y-122554774D01*
X107501939Y-122515000D01*
X107298061Y-122515000D01*
X107098102Y-122554774D01*
X106909744Y-122632795D01*
X106740226Y-122746063D01*
X106696289Y-122790000D01*
X106464801Y-122790000D01*
X106213814Y-122539013D01*
X106190011Y-122510009D01*
X106074286Y-122415036D01*
X105942257Y-122344464D01*
X105798996Y-122301007D01*
X105687343Y-122290010D01*
X105687332Y-122290010D01*
X105650010Y-122286334D01*
X105612688Y-122290010D01*
X104735000Y-122290010D01*
X104735000Y-122223071D01*
X104695226Y-122023112D01*
X104617205Y-121834754D01*
X104503937Y-121665236D01*
X104359774Y-121521073D01*
X104190256Y-121407805D01*
X104001898Y-121329784D01*
X103801939Y-121290010D01*
X103598061Y-121290010D01*
X103410965Y-121327226D01*
X103395226Y-121248102D01*
X103317205Y-121059744D01*
X103203937Y-120890226D01*
X103059774Y-120746063D01*
X102890256Y-120632795D01*
X102701898Y-120554774D01*
X102501939Y-120515000D01*
X102298061Y-120515000D01*
X102098102Y-120554774D01*
X101909744Y-120632795D01*
X101740226Y-120746063D01*
X101696289Y-120790000D01*
X99344802Y-120790000D01*
X91839801Y-113285000D01*
X91947002Y-113285000D01*
X91947002Y-113120156D01*
X92176890Y-113241476D01*
X92324099Y-113196825D01*
X92586920Y-113071641D01*
X92820269Y-112897588D01*
X93015178Y-112681355D01*
X93084805Y-112564466D01*
X93206525Y-112746632D01*
X93413368Y-112953475D01*
X93656589Y-113115990D01*
X93926842Y-113227932D01*
X94213740Y-113285000D01*
X94506260Y-113285000D01*
X94793158Y-113227932D01*
X95063411Y-113115990D01*
X95306632Y-112953475D01*
X95513475Y-112746632D01*
X95675990Y-112503411D01*
X95787932Y-112233158D01*
X95845000Y-111946260D01*
X95845000Y-111653740D01*
X95787932Y-111366842D01*
X95675990Y-111096589D01*
X95513475Y-110853368D01*
X95306632Y-110646525D01*
X95251968Y-110610000D01*
X117568041Y-110610000D01*
X117525518Y-110614188D01*
%TA.AperFunction,Conductor*%
D16*
G36*
X117525518Y-110614188D02*
G01*
X117405820Y-110650498D01*
X117295506Y-110709463D01*
X117198815Y-110788815D01*
X117119463Y-110885506D01*
X117060498Y-110995820D01*
X117024188Y-111115518D01*
X117011928Y-111240000D01*
X117015000Y-111804250D01*
X117173750Y-111963000D01*
X119023000Y-111963000D01*
X119023000Y-111943000D01*
X119277000Y-111943000D01*
X119277000Y-111963000D01*
X119340001Y-111963000D01*
X119340001Y-112217000D01*
X119277000Y-112217000D01*
X119277000Y-112237000D01*
X119023000Y-112237000D01*
X119023000Y-112217000D01*
X117173750Y-112217000D01*
X117015000Y-112375750D01*
X117011928Y-112940000D01*
X117024188Y-113064482D01*
X117060498Y-113184180D01*
X117119463Y-113294494D01*
X117198815Y-113391185D01*
X117295506Y-113470537D01*
X117304986Y-113475604D01*
X117191088Y-113614389D01*
X117092850Y-113798180D01*
X117071064Y-113870000D01*
X115807322Y-113870000D01*
X115769999Y-113866324D01*
X115732677Y-113870000D01*
X115732667Y-113870000D01*
X115621014Y-113880997D01*
X115477753Y-113924454D01*
X115345724Y-113995026D01*
X115229999Y-114089999D01*
X115206196Y-114119003D01*
X115139303Y-114185896D01*
X115110305Y-114209694D01*
X115086507Y-114238692D01*
X115086506Y-114238693D01*
X115015331Y-114325419D01*
X114977752Y-114395724D01*
X114944759Y-114457448D01*
X114901302Y-114600709D01*
X114892028Y-114694871D01*
X114846368Y-114740531D01*
X114733100Y-114910049D01*
X114655079Y-115098407D01*
X114615305Y-115298366D01*
X114615305Y-115502244D01*
X114655079Y-115702203D01*
X114733100Y-115890561D01*
X114846368Y-116060079D01*
X114990531Y-116204242D01*
X115160049Y-116317510D01*
X115348407Y-116395531D01*
X115421148Y-116410000D01*
X115067323Y-116410000D01*
X115030000Y-116406324D01*
X114992677Y-116410000D01*
X114992667Y-116410000D01*
X114881014Y-116420997D01*
X114737753Y-116464454D01*
X114605724Y-116535026D01*
X114489999Y-116629999D01*
X114466200Y-116658998D01*
X113939002Y-117186197D01*
X113909999Y-117209999D01*
X113885193Y-117240226D01*
X113815026Y-117325724D01*
X113767307Y-117415000D01*
X113744454Y-117457754D01*
X113700997Y-117601015D01*
X113690000Y-117712668D01*
X113690000Y-117712678D01*
X113686324Y-117750000D01*
X113690000Y-117787323D01*
X113690001Y-121385197D01*
X113585198Y-121490000D01*
X112853711Y-121490000D01*
X112809774Y-121446063D01*
X112720708Y-121386551D01*
X113000000Y-121388072D01*
X113124482Y-121375812D01*
X113244180Y-121339502D01*
X113354494Y-121280537D01*
X113451185Y-121201185D01*
X113530537Y-121104494D01*
X113589502Y-120994180D01*
X113625812Y-120874482D01*
X113638072Y-120750000D01*
X113635000Y-120185750D01*
X113476250Y-120027000D01*
X112277000Y-120027000D01*
X112277000Y-120047000D01*
X112023000Y-120047000D01*
X112023000Y-120027000D01*
X110823750Y-120027000D01*
X110665000Y-120185750D01*
X110661928Y-120750000D01*
X110674188Y-120874482D01*
X110710498Y-120994180D01*
X110769463Y-121104494D01*
X110848815Y-121201185D01*
X110945506Y-121280537D01*
X111055820Y-121339502D01*
X111175518Y-121375812D01*
X111300000Y-121388072D01*
X111579292Y-121386551D01*
X111490226Y-121446063D01*
X111346063Y-121590226D01*
X111232795Y-121759744D01*
X111154774Y-121948102D01*
X111115000Y-122148061D01*
X111115000Y-122351939D01*
X111154774Y-122551898D01*
X111232795Y-122740256D01*
X111346063Y-122909774D01*
X111490226Y-123053937D01*
X111658995Y-123166704D01*
X111540226Y-123246063D01*
X111396063Y-123390226D01*
X111282795Y-123559744D01*
X111204774Y-123748102D01*
X111165000Y-123948061D01*
X111165000Y-124151939D01*
X111192462Y-124290000D01*
X111163506Y-124290000D01*
X111145226Y-124198102D01*
X111067205Y-124009744D01*
X110953937Y-123840226D01*
X110809774Y-123696063D01*
X110640256Y-123582795D01*
X110451898Y-123504774D01*
X110251939Y-123465000D01*
X110048061Y-123465000D01*
X109848102Y-123504774D01*
X109659744Y-123582795D01*
X109490226Y-123696063D01*
X109346063Y-123840226D01*
X109310000Y-123894198D01*
X109310000Y-117953711D01*
X109353937Y-117909774D01*
X109467205Y-117740256D01*
X109545226Y-117551898D01*
X109585000Y-117351939D01*
X109585000Y-117148061D01*
X109545226Y-116948102D01*
X109467205Y-116759744D01*
X109353937Y-116590226D01*
X109209774Y-116446063D01*
X109040256Y-116332795D01*
X108851898Y-116254774D01*
X108651939Y-116215000D01*
X108448061Y-116215000D01*
X108248102Y-116254774D01*
X108059744Y-116332795D01*
X107890226Y-116446063D01*
X107746063Y-116590226D01*
X107633724Y-116758354D01*
X107635000Y-116751939D01*
X107635000Y-116689801D01*
X108744802Y-115580000D01*
X110871822Y-115580000D01*
X110996525Y-115766632D01*
X111203368Y-115973475D01*
X111377760Y-116090000D01*
X111203368Y-116206525D01*
X110996525Y-116413368D01*
X110834010Y-116656589D01*
X110722068Y-116926842D01*
X110665000Y-117213740D01*
X110665000Y-117506260D01*
X110722068Y-117793158D01*
X110834010Y-118063411D01*
X110996525Y-118306632D01*
X111128380Y-118438487D01*
X111055820Y-118460498D01*
X110945506Y-118519463D01*
X110848815Y-118598815D01*
X110769463Y-118695506D01*
X110710498Y-118805820D01*
X110674188Y-118925518D01*
X110661928Y-119050000D01*
X110665000Y-119614250D01*
X110823750Y-119773000D01*
X112023000Y-119773000D01*
X112023000Y-119753000D01*
X112277000Y-119753000D01*
X112277000Y-119773000D01*
X113476250Y-119773000D01*
X113635000Y-119614250D01*
X113638072Y-119050000D01*
X113625812Y-118925518D01*
X113589502Y-118805820D01*
X113530537Y-118695506D01*
X113451185Y-118598815D01*
X113354494Y-118519463D01*
X113244180Y-118460498D01*
X113171620Y-118438487D01*
X113303475Y-118306632D01*
X113465990Y-118063411D01*
X113577932Y-117793158D01*
X113635000Y-117506260D01*
X113635000Y-117213740D01*
X113577932Y-116926842D01*
X113465990Y-116656589D01*
X113303475Y-116413368D01*
X113096632Y-116206525D01*
X112922240Y-116090000D01*
X113096632Y-115973475D01*
X113303475Y-115766632D01*
X113465990Y-115523411D01*
X113577932Y-115253158D01*
X113635000Y-114966260D01*
X113635000Y-114673740D01*
X113577932Y-114386842D01*
X113465990Y-114116589D01*
X113303475Y-113873368D01*
X113096632Y-113666525D01*
X112922240Y-113550000D01*
X113096632Y-113433475D01*
X113303475Y-113226632D01*
X113465990Y-112983411D01*
X113577932Y-112713158D01*
X113635000Y-112426260D01*
X113635000Y-112133740D01*
X113577932Y-111846842D01*
X113465990Y-111576589D01*
X113303475Y-111333368D01*
X113096632Y-111126525D01*
X112853411Y-110964010D01*
X112583158Y-110852068D01*
X112296260Y-110795000D01*
X112003740Y-110795000D01*
X111716842Y-110852068D01*
X111446589Y-110964010D01*
X111203368Y-111126525D01*
X110996525Y-111333368D01*
X110871822Y-111520000D01*
X109007322Y-111520000D01*
X108969999Y-111516324D01*
X108932676Y-111520000D01*
X108932667Y-111520000D01*
X108821014Y-111530997D01*
X108677753Y-111574454D01*
X108545724Y-111645026D01*
X108429999Y-111739999D01*
X108406201Y-111768997D01*
X103310199Y-116865000D01*
X103248061Y-116865000D01*
X103048102Y-116904774D01*
X102859744Y-116982795D01*
X102690226Y-117096063D01*
X102546063Y-117240226D01*
X102432795Y-117409744D01*
X102354774Y-117598102D01*
X102315000Y-117798061D01*
X102315000Y-118001939D01*
X102354774Y-118201898D01*
X102432795Y-118390256D01*
X102546063Y-118559774D01*
X102690226Y-118703937D01*
X102859744Y-118817205D01*
X103048102Y-118895226D01*
X103248061Y-118935000D01*
X103451939Y-118935000D01*
X103651898Y-118895226D01*
X103840256Y-118817205D01*
X104009774Y-118703937D01*
X104153937Y-118559774D01*
X104267205Y-118390256D01*
X104345226Y-118201898D01*
X104385000Y-118001939D01*
X104385000Y-117939801D01*
X105566304Y-116758497D01*
X105604774Y-116951898D01*
X105682795Y-117140256D01*
X105796063Y-117309774D01*
X105940226Y-117453937D01*
X106109744Y-117567205D01*
X106298102Y-117645226D01*
X106498061Y-117685000D01*
X106701939Y-117685000D01*
X106901898Y-117645226D01*
X107090256Y-117567205D01*
X107259774Y-117453937D01*
X107403937Y-117309774D01*
X107516276Y-117141646D01*
X107515000Y-117148061D01*
X107515000Y-117351939D01*
X107554774Y-117551898D01*
X107632795Y-117740256D01*
X107746063Y-117909774D01*
X107790001Y-117953712D01*
X107790000Y-122591267D01*
X107701898Y-122554774D01*
X107501939Y-122515000D01*
X107298061Y-122515000D01*
X107098102Y-122554774D01*
X106909744Y-122632795D01*
X106740226Y-122746063D01*
X106696289Y-122790000D01*
X106464801Y-122790000D01*
X106213814Y-122539013D01*
X106190011Y-122510009D01*
X106074286Y-122415036D01*
X105942257Y-122344464D01*
X105798996Y-122301007D01*
X105687343Y-122290010D01*
X105687332Y-122290010D01*
X105650010Y-122286334D01*
X105612688Y-122290010D01*
X104735000Y-122290010D01*
X104735000Y-122223071D01*
X104695226Y-122023112D01*
X104617205Y-121834754D01*
X104503937Y-121665236D01*
X104359774Y-121521073D01*
X104190256Y-121407805D01*
X104001898Y-121329784D01*
X103801939Y-121290010D01*
X103598061Y-121290010D01*
X103410965Y-121327226D01*
X103395226Y-121248102D01*
X103317205Y-121059744D01*
X103203937Y-120890226D01*
X103059774Y-120746063D01*
X102890256Y-120632795D01*
X102701898Y-120554774D01*
X102501939Y-120515000D01*
X102298061Y-120515000D01*
X102098102Y-120554774D01*
X101909744Y-120632795D01*
X101740226Y-120746063D01*
X101696289Y-120790000D01*
X99344802Y-120790000D01*
X91839801Y-113285000D01*
X91947002Y-113285000D01*
X91947002Y-113120156D01*
X92176890Y-113241476D01*
X92324099Y-113196825D01*
X92586920Y-113071641D01*
X92820269Y-112897588D01*
X93015178Y-112681355D01*
X93084805Y-112564466D01*
X93206525Y-112746632D01*
X93413368Y-112953475D01*
X93656589Y-113115990D01*
X93926842Y-113227932D01*
X94213740Y-113285000D01*
X94506260Y-113285000D01*
X94793158Y-113227932D01*
X95063411Y-113115990D01*
X95306632Y-112953475D01*
X95513475Y-112746632D01*
X95675990Y-112503411D01*
X95787932Y-112233158D01*
X95845000Y-111946260D01*
X95845000Y-111653740D01*
X95787932Y-111366842D01*
X95675990Y-111096589D01*
X95513475Y-110853368D01*
X95306632Y-110646525D01*
X95251968Y-110610000D01*
X117568041Y-110610000D01*
X117525518Y-110614188D01*
G37*
%TD.AperFunction*%
D15*
X57360498Y-110705820D02*
X57324188Y-110825518D01*
X57311928Y-110950000D01*
X57311928Y-112650000D01*
X57324188Y-112774482D01*
X57360498Y-112894180D01*
X57419463Y-113004494D01*
X57498815Y-113101185D01*
X57595506Y-113180537D01*
X57705820Y-113239502D01*
X57825518Y-113275812D01*
X57950000Y-113288072D01*
X59650000Y-113288072D01*
X59774482Y-113275812D01*
X59894180Y-113239502D01*
X60004494Y-113180537D01*
X60101185Y-113101185D01*
X60180537Y-113004494D01*
X60239502Y-112894180D01*
X60261513Y-112821620D01*
X60393368Y-112953475D01*
X60636589Y-113115990D01*
X60906842Y-113227932D01*
X61193740Y-113285000D01*
X61486260Y-113285000D01*
X61773158Y-113227932D01*
X62043411Y-113115990D01*
X62286632Y-112953475D01*
X62493475Y-112746632D01*
X62610000Y-112572240D01*
X62726525Y-112746632D01*
X62933368Y-112953475D01*
X63176589Y-113115990D01*
X63446842Y-113227932D01*
X63733740Y-113285000D01*
X64026260Y-113285000D01*
X64313158Y-113227932D01*
X64583411Y-113115990D01*
X64826632Y-112953475D01*
X65033475Y-112746632D01*
X65150000Y-112572240D01*
X65266525Y-112746632D01*
X65473368Y-112953475D01*
X65716589Y-113115990D01*
X65986842Y-113227932D01*
X66273740Y-113285000D01*
X66566260Y-113285000D01*
X66853158Y-113227932D01*
X67123411Y-113115990D01*
X67366632Y-112953475D01*
X67573475Y-112746632D01*
X67690000Y-112572240D01*
X67806525Y-112746632D01*
X68013368Y-112953475D01*
X68256589Y-113115990D01*
X68526842Y-113227932D01*
X68813740Y-113285000D01*
X69106260Y-113285000D01*
X69326408Y-113241210D01*
X70095197Y-114010000D01*
X52928936Y-114010000D01*
X52907150Y-113938180D01*
X52808912Y-113754389D01*
X52695014Y-113615604D01*
X52704494Y-113610537D01*
X52801185Y-113531185D01*
X52880537Y-113434494D01*
X52939502Y-113324180D01*
X52975812Y-113204482D01*
X52988072Y-113080000D01*
X52985000Y-112515750D01*
X52826250Y-112357000D01*
X50977000Y-112357000D01*
X50977000Y-112377000D01*
X50723000Y-112377000D01*
X50723000Y-112357000D01*
X50660000Y-112357000D01*
X50660000Y-112103000D01*
X50723000Y-112103000D01*
X50723000Y-110903750D01*
X50977000Y-110903750D01*
X50977000Y-112103000D01*
X52826250Y-112103000D01*
X52985000Y-111944250D01*
X52988072Y-111380000D01*
X52975812Y-111255518D01*
X52939502Y-111135820D01*
X52880537Y-111025506D01*
X52801185Y-110928815D01*
X52704494Y-110849463D01*
X52594180Y-110790498D01*
X52474482Y-110754188D01*
X52350000Y-110741928D01*
X51135750Y-110745000D01*
X50977000Y-110903750D01*
X50723000Y-110903750D01*
X50660000Y-110840750D01*
X50660000Y-110610000D01*
X57411716Y-110610000D01*
X57360498Y-110705820D01*
%TA.AperFunction,Conductor*%
D16*
G36*
X57360498Y-110705820D02*
G01*
X57324188Y-110825518D01*
X57311928Y-110950000D01*
X57311928Y-112650000D01*
X57324188Y-112774482D01*
X57360498Y-112894180D01*
X57419463Y-113004494D01*
X57498815Y-113101185D01*
X57595506Y-113180537D01*
X57705820Y-113239502D01*
X57825518Y-113275812D01*
X57950000Y-113288072D01*
X59650000Y-113288072D01*
X59774482Y-113275812D01*
X59894180Y-113239502D01*
X60004494Y-113180537D01*
X60101185Y-113101185D01*
X60180537Y-113004494D01*
X60239502Y-112894180D01*
X60261513Y-112821620D01*
X60393368Y-112953475D01*
X60636589Y-113115990D01*
X60906842Y-113227932D01*
X61193740Y-113285000D01*
X61486260Y-113285000D01*
X61773158Y-113227932D01*
X62043411Y-113115990D01*
X62286632Y-112953475D01*
X62493475Y-112746632D01*
X62610000Y-112572240D01*
X62726525Y-112746632D01*
X62933368Y-112953475D01*
X63176589Y-113115990D01*
X63446842Y-113227932D01*
X63733740Y-113285000D01*
X64026260Y-113285000D01*
X64313158Y-113227932D01*
X64583411Y-113115990D01*
X64826632Y-112953475D01*
X65033475Y-112746632D01*
X65150000Y-112572240D01*
X65266525Y-112746632D01*
X65473368Y-112953475D01*
X65716589Y-113115990D01*
X65986842Y-113227932D01*
X66273740Y-113285000D01*
X66566260Y-113285000D01*
X66853158Y-113227932D01*
X67123411Y-113115990D01*
X67366632Y-112953475D01*
X67573475Y-112746632D01*
X67690000Y-112572240D01*
X67806525Y-112746632D01*
X68013368Y-112953475D01*
X68256589Y-113115990D01*
X68526842Y-113227932D01*
X68813740Y-113285000D01*
X69106260Y-113285000D01*
X69326408Y-113241210D01*
X70095197Y-114010000D01*
X52928936Y-114010000D01*
X52907150Y-113938180D01*
X52808912Y-113754389D01*
X52695014Y-113615604D01*
X52704494Y-113610537D01*
X52801185Y-113531185D01*
X52880537Y-113434494D01*
X52939502Y-113324180D01*
X52975812Y-113204482D01*
X52988072Y-113080000D01*
X52985000Y-112515750D01*
X52826250Y-112357000D01*
X50977000Y-112357000D01*
X50977000Y-112377000D01*
X50723000Y-112377000D01*
X50723000Y-112357000D01*
X50660000Y-112357000D01*
X50660000Y-112103000D01*
X50723000Y-112103000D01*
X50723000Y-110903750D01*
X50977000Y-110903750D01*
X50977000Y-112103000D01*
X52826250Y-112103000D01*
X52985000Y-111944250D01*
X52988072Y-111380000D01*
X52975812Y-111255518D01*
X52939502Y-111135820D01*
X52880537Y-111025506D01*
X52801185Y-110928815D01*
X52704494Y-110849463D01*
X52594180Y-110790498D01*
X52474482Y-110754188D01*
X52350000Y-110741928D01*
X51135750Y-110745000D01*
X50977000Y-110903750D01*
X50723000Y-110903750D01*
X50660000Y-110840750D01*
X50660000Y-110610000D01*
X57411716Y-110610000D01*
X57360498Y-110705820D01*
G37*
%TD.AperFunction*%
D15*
X91947000Y-111673000D02*
X91967000Y-111673000D01*
X91967000Y-111927000D01*
X91947000Y-111927000D01*
X91947000Y-111947000D01*
X91693000Y-111947000D01*
X91693000Y-111927000D01*
X91673000Y-111927000D01*
X91673000Y-111673000D01*
X91693000Y-111673000D01*
X91693000Y-111653000D01*
X91947000Y-111653000D01*
X91947000Y-111673000D01*
%TA.AperFunction,Conductor*%
D16*
G36*
X91947000Y-111673000D02*
G01*
X91967000Y-111673000D01*
X91967000Y-111927000D01*
X91947000Y-111927000D01*
X91947000Y-111947000D01*
X91693000Y-111947000D01*
X91693000Y-111927000D01*
X91673000Y-111927000D01*
X91673000Y-111673000D01*
X91693000Y-111673000D01*
X91693000Y-111653000D01*
X91947000Y-111653000D01*
X91947000Y-111673000D01*
G37*
%TD.AperFunction*%
%TD*%
M02*
