%TF.GenerationSoftware,KiCad,Pcbnew,5.1.9-73d0e3b20d~88~ubuntu18.04.1*%
%TF.CreationDate,2021-01-24T01:48:54+01:00*%
%TF.ProjectId,rugzak-ledboard-pcb,7275677a-616b-42d6-9c65-64626f617264,rev?*%
%TF.SameCoordinates,Original*%
%TF.FileFunction,Legend,Top*%
%TF.FilePolarity,Positive*%
%FSLAX46Y46*%
G04 Gerber Fmt 4.6, Leading zero omitted, Abs format (unit mm)*
G04 Created by KiCad (PCBNEW 5.1.9-73d0e3b20d~88~ubuntu18.04.1) date 2021-01-24 01:48:54*
%MOMM*%
%LPD*%
G01*
G04 APERTURE LIST*
%ADD10C,0.100000*%
%ADD11C,0.120000*%
%ADD12C,0.150000*%
G04 APERTURE END LIST*
D10*
X78380952Y-124502380D02*
X78380952Y-125216666D01*
X78333333Y-125359523D01*
X78238095Y-125454761D01*
X78095238Y-125502380D01*
X78000000Y-125502380D01*
X79333333Y-125502380D02*
X78857142Y-125502380D01*
X78857142Y-124502380D01*
X80238095Y-125407142D02*
X80190476Y-125454761D01*
X80047619Y-125502380D01*
X79952380Y-125502380D01*
X79809523Y-125454761D01*
X79714285Y-125359523D01*
X79666666Y-125264285D01*
X79619047Y-125073809D01*
X79619047Y-124930952D01*
X79666666Y-124740476D01*
X79714285Y-124645238D01*
X79809523Y-124550000D01*
X79952380Y-124502380D01*
X80047619Y-124502380D01*
X80190476Y-124550000D01*
X80238095Y-124597619D01*
X80952380Y-124502380D02*
X80952380Y-125216666D01*
X80904761Y-125359523D01*
X80809523Y-125454761D01*
X80666666Y-125502380D01*
X80571428Y-125502380D01*
X81904761Y-125502380D02*
X81428571Y-125502380D01*
X81428571Y-124502380D01*
X82809523Y-125407142D02*
X82761904Y-125454761D01*
X82619047Y-125502380D01*
X82523809Y-125502380D01*
X82380952Y-125454761D01*
X82285714Y-125359523D01*
X82238095Y-125264285D01*
X82190476Y-125073809D01*
X82190476Y-124930952D01*
X82238095Y-124740476D01*
X82285714Y-124645238D01*
X82380952Y-124550000D01*
X82523809Y-124502380D01*
X82619047Y-124502380D01*
X82761904Y-124550000D01*
X82809523Y-124597619D01*
X83523809Y-124502380D02*
X83523809Y-125216666D01*
X83476190Y-125359523D01*
X83380952Y-125454761D01*
X83238095Y-125502380D01*
X83142857Y-125502380D01*
X84476190Y-125502380D02*
X84000000Y-125502380D01*
X84000000Y-124502380D01*
X85380952Y-125407142D02*
X85333333Y-125454761D01*
X85190476Y-125502380D01*
X85095238Y-125502380D01*
X84952380Y-125454761D01*
X84857142Y-125359523D01*
X84809523Y-125264285D01*
X84761904Y-125073809D01*
X84761904Y-124930952D01*
X84809523Y-124740476D01*
X84857142Y-124645238D01*
X84952380Y-124550000D01*
X85095238Y-124502380D01*
X85190476Y-124502380D01*
X85333333Y-124550000D01*
X85380952Y-124597619D01*
X86095238Y-124502380D02*
X86095238Y-125216666D01*
X86047619Y-125359523D01*
X85952380Y-125454761D01*
X85809523Y-125502380D01*
X85714285Y-125502380D01*
X87047619Y-125502380D02*
X86571428Y-125502380D01*
X86571428Y-124502380D01*
X87952380Y-125407142D02*
X87904761Y-125454761D01*
X87761904Y-125502380D01*
X87666666Y-125502380D01*
X87523809Y-125454761D01*
X87428571Y-125359523D01*
X87380952Y-125264285D01*
X87333333Y-125073809D01*
X87333333Y-124930952D01*
X87380952Y-124740476D01*
X87428571Y-124645238D01*
X87523809Y-124550000D01*
X87666666Y-124502380D01*
X87761904Y-124502380D01*
X87904761Y-124550000D01*
X87952380Y-124597619D01*
X114466666Y-144552380D02*
X114800000Y-145552380D01*
X115133333Y-144552380D01*
X116038095Y-145457142D02*
X115990476Y-145504761D01*
X115847619Y-145552380D01*
X115752380Y-145552380D01*
X115609523Y-145504761D01*
X115514285Y-145409523D01*
X115466666Y-145314285D01*
X115419047Y-145123809D01*
X115419047Y-144980952D01*
X115466666Y-144790476D01*
X115514285Y-144695238D01*
X115609523Y-144600000D01*
X115752380Y-144552380D01*
X115847619Y-144552380D01*
X115990476Y-144600000D01*
X116038095Y-144647619D01*
X117038095Y-145457142D02*
X116990476Y-145504761D01*
X116847619Y-145552380D01*
X116752380Y-145552380D01*
X116609523Y-145504761D01*
X116514285Y-145409523D01*
X116466666Y-145314285D01*
X116419047Y-145123809D01*
X116419047Y-144980952D01*
X116466666Y-144790476D01*
X116514285Y-144695238D01*
X116609523Y-144600000D01*
X116752380Y-144552380D01*
X116847619Y-144552380D01*
X116990476Y-144600000D01*
X117038095Y-144647619D01*
X114566666Y-147102380D02*
X114900000Y-148102380D01*
X115233333Y-147102380D01*
X116138095Y-148007142D02*
X116090476Y-148054761D01*
X115947619Y-148102380D01*
X115852380Y-148102380D01*
X115709523Y-148054761D01*
X115614285Y-147959523D01*
X115566666Y-147864285D01*
X115519047Y-147673809D01*
X115519047Y-147530952D01*
X115566666Y-147340476D01*
X115614285Y-147245238D01*
X115709523Y-147150000D01*
X115852380Y-147102380D01*
X115947619Y-147102380D01*
X116090476Y-147150000D01*
X116138095Y-147197619D01*
X117138095Y-148007142D02*
X117090476Y-148054761D01*
X116947619Y-148102380D01*
X116852380Y-148102380D01*
X116709523Y-148054761D01*
X116614285Y-147959523D01*
X116566666Y-147864285D01*
X116519047Y-147673809D01*
X116519047Y-147530952D01*
X116566666Y-147340476D01*
X116614285Y-147245238D01*
X116709523Y-147150000D01*
X116852380Y-147102380D01*
X116947619Y-147102380D01*
X117090476Y-147150000D01*
X117138095Y-147197619D01*
X56014285Y-144502380D02*
X55680952Y-144026190D01*
X55442857Y-144502380D02*
X55442857Y-143502380D01*
X55823809Y-143502380D01*
X55919047Y-143550000D01*
X55966666Y-143597619D01*
X56014285Y-143692857D01*
X56014285Y-143835714D01*
X55966666Y-143930952D01*
X55919047Y-143978571D01*
X55823809Y-144026190D01*
X55442857Y-144026190D01*
X56966666Y-143550000D02*
X56871428Y-143502380D01*
X56728571Y-143502380D01*
X56585714Y-143550000D01*
X56490476Y-143645238D01*
X56442857Y-143740476D01*
X56395238Y-143930952D01*
X56395238Y-144073809D01*
X56442857Y-144264285D01*
X56490476Y-144359523D01*
X56585714Y-144454761D01*
X56728571Y-144502380D01*
X56823809Y-144502380D01*
X56966666Y-144454761D01*
X57014285Y-144407142D01*
X57014285Y-144073809D01*
X56823809Y-144073809D01*
X57776190Y-143978571D02*
X57919047Y-144026190D01*
X57966666Y-144073809D01*
X58014285Y-144169047D01*
X58014285Y-144311904D01*
X57966666Y-144407142D01*
X57919047Y-144454761D01*
X57823809Y-144502380D01*
X57442857Y-144502380D01*
X57442857Y-143502380D01*
X57776190Y-143502380D01*
X57871428Y-143550000D01*
X57919047Y-143597619D01*
X57966666Y-143692857D01*
X57966666Y-143788095D01*
X57919047Y-143883333D01*
X57871428Y-143930952D01*
X57776190Y-143978571D01*
X57442857Y-143978571D01*
X59204761Y-144502380D02*
X59204761Y-143502380D01*
X59538095Y-144216666D01*
X59871428Y-143502380D01*
X59871428Y-144502380D01*
X60300000Y-144216666D02*
X60776190Y-144216666D01*
X60204761Y-144502380D02*
X60538095Y-143502380D01*
X60871428Y-144502380D01*
X61061904Y-143502380D02*
X61633333Y-143502380D01*
X61347619Y-144502380D02*
X61347619Y-143502380D01*
X62538095Y-144502380D02*
X62204761Y-144026190D01*
X61966666Y-144502380D02*
X61966666Y-143502380D01*
X62347619Y-143502380D01*
X62442857Y-143550000D01*
X62490476Y-143597619D01*
X62538095Y-143692857D01*
X62538095Y-143835714D01*
X62490476Y-143930952D01*
X62442857Y-143978571D01*
X62347619Y-144026190D01*
X61966666Y-144026190D01*
X62966666Y-144502380D02*
X62966666Y-143502380D01*
X63347619Y-143502380D02*
X64014285Y-144502380D01*
X64014285Y-143502380D02*
X63347619Y-144502380D01*
X65157142Y-144121428D02*
X65919047Y-144121428D01*
X67014285Y-143502380D02*
X67347619Y-144502380D01*
X67680952Y-143502380D01*
X68204761Y-143502380D02*
X68300000Y-143502380D01*
X68395238Y-143550000D01*
X68442857Y-143597619D01*
X68490476Y-143692857D01*
X68538095Y-143883333D01*
X68538095Y-144121428D01*
X68490476Y-144311904D01*
X68442857Y-144407142D01*
X68395238Y-144454761D01*
X68300000Y-144502380D01*
X68204761Y-144502380D01*
X68109523Y-144454761D01*
X68061904Y-144407142D01*
X68014285Y-144311904D01*
X67966666Y-144121428D01*
X67966666Y-143883333D01*
X68014285Y-143692857D01*
X68061904Y-143597619D01*
X68109523Y-143550000D01*
X68204761Y-143502380D01*
X68966666Y-144407142D02*
X69014285Y-144454761D01*
X68966666Y-144502380D01*
X68919047Y-144454761D01*
X68966666Y-144407142D01*
X68966666Y-144502380D01*
X69966666Y-144502380D02*
X69395238Y-144502380D01*
X69680952Y-144502380D02*
X69680952Y-143502380D01*
X69585714Y-143645238D01*
X69490476Y-143740476D01*
X69395238Y-143788095D01*
X71109523Y-144454761D02*
X71252380Y-144502380D01*
X71490476Y-144502380D01*
X71585714Y-144454761D01*
X71633333Y-144407142D01*
X71680952Y-144311904D01*
X71680952Y-144216666D01*
X71633333Y-144121428D01*
X71585714Y-144073809D01*
X71490476Y-144026190D01*
X71300000Y-143978571D01*
X71204761Y-143930952D01*
X71157142Y-143883333D01*
X71109523Y-143788095D01*
X71109523Y-143692857D01*
X71157142Y-143597619D01*
X71204761Y-143550000D01*
X71300000Y-143502380D01*
X71538095Y-143502380D01*
X71680952Y-143550000D01*
X72538095Y-144502380D02*
X72538095Y-143502380D01*
X72538095Y-144454761D02*
X72442857Y-144502380D01*
X72252380Y-144502380D01*
X72157142Y-144454761D01*
X72109523Y-144407142D01*
X72061904Y-144311904D01*
X72061904Y-144026190D01*
X72109523Y-143930952D01*
X72157142Y-143883333D01*
X72252380Y-143835714D01*
X72442857Y-143835714D01*
X72538095Y-143883333D01*
X73014285Y-144502380D02*
X73014285Y-143502380D01*
X73014285Y-143978571D02*
X73585714Y-143978571D01*
X73585714Y-144502380D02*
X73585714Y-143502380D01*
X74776190Y-143597619D02*
X74823809Y-143550000D01*
X74919047Y-143502380D01*
X75157142Y-143502380D01*
X75252380Y-143550000D01*
X75299999Y-143597619D01*
X75347619Y-143692857D01*
X75347619Y-143788095D01*
X75299999Y-143930952D01*
X74728571Y-144502380D01*
X75347619Y-144502380D01*
X75966666Y-143502380D02*
X76061904Y-143502380D01*
X76157142Y-143550000D01*
X76204761Y-143597619D01*
X76252380Y-143692857D01*
X76299999Y-143883333D01*
X76299999Y-144121428D01*
X76252380Y-144311904D01*
X76204761Y-144407142D01*
X76157142Y-144454761D01*
X76061904Y-144502380D01*
X75966666Y-144502380D01*
X75871428Y-144454761D01*
X75823809Y-144407142D01*
X75776190Y-144311904D01*
X75728571Y-144121428D01*
X75728571Y-143883333D01*
X75776190Y-143692857D01*
X75823809Y-143597619D01*
X75871428Y-143550000D01*
X75966666Y-143502380D01*
X76680952Y-143597619D02*
X76728571Y-143550000D01*
X76823809Y-143502380D01*
X77061904Y-143502380D01*
X77157142Y-143550000D01*
X77204761Y-143597619D01*
X77252380Y-143692857D01*
X77252380Y-143788095D01*
X77204761Y-143930952D01*
X76633333Y-144502380D01*
X77252380Y-144502380D01*
X78204761Y-144502380D02*
X77633333Y-144502380D01*
X77919047Y-144502380D02*
X77919047Y-143502380D01*
X77823809Y-143645238D01*
X77728571Y-143740476D01*
X77633333Y-143788095D01*
X110052380Y-118730952D02*
X109052380Y-118730952D01*
X110052380Y-118159523D01*
X109052380Y-118159523D01*
X109052380Y-117683333D02*
X109861904Y-117683333D01*
X109957142Y-117635714D01*
X110004761Y-117588095D01*
X110052380Y-117492857D01*
X110052380Y-117302380D01*
X110004761Y-117207142D01*
X109957142Y-117159523D01*
X109861904Y-117111904D01*
X109052380Y-117111904D01*
X110052380Y-116635714D02*
X109052380Y-116635714D01*
X110052380Y-116064285D01*
X109052380Y-116064285D01*
X109957142Y-115016666D02*
X110004761Y-115064285D01*
X110052380Y-115207142D01*
X110052380Y-115302380D01*
X110004761Y-115445238D01*
X109909523Y-115540476D01*
X109814285Y-115588095D01*
X109623809Y-115635714D01*
X109480952Y-115635714D01*
X109290476Y-115588095D01*
X109195238Y-115540476D01*
X109100000Y-115445238D01*
X109052380Y-115302380D01*
X109052380Y-115207142D01*
X109100000Y-115064285D01*
X109147619Y-115016666D01*
X110052380Y-114588095D02*
X109052380Y-114588095D01*
X109528571Y-114588095D02*
X109528571Y-114016666D01*
X110052380Y-114016666D02*
X109052380Y-114016666D01*
X109052380Y-113540476D02*
X109861904Y-113540476D01*
X109957142Y-113492857D01*
X110004761Y-113445238D01*
X110052380Y-113350000D01*
X110052380Y-113159523D01*
X110004761Y-113064285D01*
X109957142Y-113016666D01*
X109861904Y-112969047D01*
X109052380Y-112969047D01*
X109957142Y-111921428D02*
X110004761Y-111969047D01*
X110052380Y-112111904D01*
X110052380Y-112207142D01*
X110004761Y-112350000D01*
X109909523Y-112445238D01*
X109814285Y-112492857D01*
X109623809Y-112540476D01*
X109480952Y-112540476D01*
X109290476Y-112492857D01*
X109195238Y-112445238D01*
X109100000Y-112350000D01*
X109052380Y-112207142D01*
X109052380Y-112111904D01*
X109100000Y-111969047D01*
X109147619Y-111921428D01*
X110052380Y-111492857D02*
X109052380Y-111492857D01*
X110052380Y-110921428D02*
X109480952Y-111350000D01*
X109052380Y-110921428D02*
X109623809Y-111492857D01*
X110352380Y-149130952D02*
X109352380Y-149130952D01*
X110352380Y-148559523D01*
X109352380Y-148559523D01*
X109352380Y-148083333D02*
X110161904Y-148083333D01*
X110257142Y-148035714D01*
X110304761Y-147988095D01*
X110352380Y-147892857D01*
X110352380Y-147702380D01*
X110304761Y-147607142D01*
X110257142Y-147559523D01*
X110161904Y-147511904D01*
X109352380Y-147511904D01*
X110352380Y-147035714D02*
X109352380Y-147035714D01*
X110352380Y-146464285D01*
X109352380Y-146464285D01*
X110257142Y-145416666D02*
X110304761Y-145464285D01*
X110352380Y-145607142D01*
X110352380Y-145702380D01*
X110304761Y-145845238D01*
X110209523Y-145940476D01*
X110114285Y-145988095D01*
X109923809Y-146035714D01*
X109780952Y-146035714D01*
X109590476Y-145988095D01*
X109495238Y-145940476D01*
X109400000Y-145845238D01*
X109352380Y-145702380D01*
X109352380Y-145607142D01*
X109400000Y-145464285D01*
X109447619Y-145416666D01*
X110352380Y-144988095D02*
X109352380Y-144988095D01*
X109828571Y-144988095D02*
X109828571Y-144416666D01*
X110352380Y-144416666D02*
X109352380Y-144416666D01*
X109352380Y-143940476D02*
X110161904Y-143940476D01*
X110257142Y-143892857D01*
X110304761Y-143845238D01*
X110352380Y-143750000D01*
X110352380Y-143559523D01*
X110304761Y-143464285D01*
X110257142Y-143416666D01*
X110161904Y-143369047D01*
X109352380Y-143369047D01*
X110257142Y-142321428D02*
X110304761Y-142369047D01*
X110352380Y-142511904D01*
X110352380Y-142607142D01*
X110304761Y-142750000D01*
X110209523Y-142845238D01*
X110114285Y-142892857D01*
X109923809Y-142940476D01*
X109780952Y-142940476D01*
X109590476Y-142892857D01*
X109495238Y-142845238D01*
X109400000Y-142750000D01*
X109352380Y-142607142D01*
X109352380Y-142511904D01*
X109400000Y-142369047D01*
X109447619Y-142321428D01*
X110352380Y-141892857D02*
X109352380Y-141892857D01*
X110352380Y-141321428D02*
X109780952Y-141750000D01*
X109352380Y-141321428D02*
X109923809Y-141892857D01*
X89469047Y-146202380D02*
X89469047Y-145202380D01*
X89802380Y-145916666D01*
X90135714Y-145202380D01*
X90135714Y-146202380D01*
X90611904Y-146202380D02*
X90611904Y-145202380D01*
X90992857Y-145202380D01*
X91088095Y-145250000D01*
X91135714Y-145297619D01*
X91183333Y-145392857D01*
X91183333Y-145535714D01*
X91135714Y-145630952D01*
X91088095Y-145678571D01*
X90992857Y-145726190D01*
X90611904Y-145726190D01*
X91611904Y-145202380D02*
X91611904Y-146011904D01*
X91659523Y-146107142D01*
X91707142Y-146154761D01*
X91802380Y-146202380D01*
X91992857Y-146202380D01*
X92088095Y-146154761D01*
X92135714Y-146107142D01*
X92183333Y-146011904D01*
X92183333Y-145202380D01*
X92659523Y-145821428D02*
X93421428Y-145821428D01*
X94326190Y-145202380D02*
X94135714Y-145202380D01*
X94040476Y-145250000D01*
X93992857Y-145297619D01*
X93897619Y-145440476D01*
X93850000Y-145630952D01*
X93850000Y-146011904D01*
X93897619Y-146107142D01*
X93945238Y-146154761D01*
X94040476Y-146202380D01*
X94230952Y-146202380D01*
X94326190Y-146154761D01*
X94373809Y-146107142D01*
X94421428Y-146011904D01*
X94421428Y-145773809D01*
X94373809Y-145678571D01*
X94326190Y-145630952D01*
X94230952Y-145583333D01*
X94040476Y-145583333D01*
X93945238Y-145630952D01*
X93897619Y-145678571D01*
X93850000Y-145773809D01*
X95040476Y-145202380D02*
X95135714Y-145202380D01*
X95230952Y-145250000D01*
X95278571Y-145297619D01*
X95326190Y-145392857D01*
X95373809Y-145583333D01*
X95373809Y-145821428D01*
X95326190Y-146011904D01*
X95278571Y-146107142D01*
X95230952Y-146154761D01*
X95135714Y-146202380D01*
X95040476Y-146202380D01*
X94945238Y-146154761D01*
X94897619Y-146107142D01*
X94850000Y-146011904D01*
X94802380Y-145821428D01*
X94802380Y-145583333D01*
X94850000Y-145392857D01*
X94897619Y-145297619D01*
X94945238Y-145250000D01*
X95040476Y-145202380D01*
X96278571Y-145202380D02*
X95802380Y-145202380D01*
X95754761Y-145678571D01*
X95802380Y-145630952D01*
X95897619Y-145583333D01*
X96135714Y-145583333D01*
X96230952Y-145630952D01*
X96278571Y-145678571D01*
X96326190Y-145773809D01*
X96326190Y-146011904D01*
X96278571Y-146107142D01*
X96230952Y-146154761D01*
X96135714Y-146202380D01*
X95897619Y-146202380D01*
X95802380Y-146154761D01*
X95754761Y-146107142D01*
X96945238Y-145202380D02*
X97040476Y-145202380D01*
X97135714Y-145250000D01*
X97183333Y-145297619D01*
X97230952Y-145392857D01*
X97278571Y-145583333D01*
X97278571Y-145821428D01*
X97230952Y-146011904D01*
X97183333Y-146107142D01*
X97135714Y-146154761D01*
X97040476Y-146202380D01*
X96945238Y-146202380D01*
X96850000Y-146154761D01*
X96802380Y-146107142D01*
X96754761Y-146011904D01*
X96707142Y-145821428D01*
X96707142Y-145583333D01*
X96754761Y-145392857D01*
X96802380Y-145297619D01*
X96850000Y-145250000D01*
X96945238Y-145202380D01*
X107888095Y-119450000D02*
X107792857Y-119402380D01*
X107650000Y-119402380D01*
X107507142Y-119450000D01*
X107411904Y-119545238D01*
X107364285Y-119640476D01*
X107316666Y-119830952D01*
X107316666Y-119973809D01*
X107364285Y-120164285D01*
X107411904Y-120259523D01*
X107507142Y-120354761D01*
X107650000Y-120402380D01*
X107745238Y-120402380D01*
X107888095Y-120354761D01*
X107935714Y-120307142D01*
X107935714Y-119973809D01*
X107745238Y-119973809D01*
X108364285Y-120402380D02*
X108364285Y-119402380D01*
X108935714Y-120402380D01*
X108935714Y-119402380D01*
X109411904Y-120402380D02*
X109411904Y-119402380D01*
X109650000Y-119402380D01*
X109792857Y-119450000D01*
X109888095Y-119545238D01*
X109935714Y-119640476D01*
X109983333Y-119830952D01*
X109983333Y-119973809D01*
X109935714Y-120164285D01*
X109888095Y-120259523D01*
X109792857Y-120354761D01*
X109650000Y-120402380D01*
X109411904Y-120402380D01*
X108188095Y-139550000D02*
X108092857Y-139502380D01*
X107950000Y-139502380D01*
X107807142Y-139550000D01*
X107711904Y-139645238D01*
X107664285Y-139740476D01*
X107616666Y-139930952D01*
X107616666Y-140073809D01*
X107664285Y-140264285D01*
X107711904Y-140359523D01*
X107807142Y-140454761D01*
X107950000Y-140502380D01*
X108045238Y-140502380D01*
X108188095Y-140454761D01*
X108235714Y-140407142D01*
X108235714Y-140073809D01*
X108045238Y-140073809D01*
X108664285Y-140502380D02*
X108664285Y-139502380D01*
X109235714Y-140502380D01*
X109235714Y-139502380D01*
X109711904Y-140502380D02*
X109711904Y-139502380D01*
X109950000Y-139502380D01*
X110092857Y-139550000D01*
X110188095Y-139645238D01*
X110235714Y-139740476D01*
X110283333Y-139930952D01*
X110283333Y-140073809D01*
X110235714Y-140264285D01*
X110188095Y-140359523D01*
X110092857Y-140454761D01*
X109950000Y-140502380D01*
X109711904Y-140502380D01*
X65559523Y-147402380D02*
X65083333Y-147402380D01*
X65035714Y-147878571D01*
X65083333Y-147830952D01*
X65178571Y-147783333D01*
X65416666Y-147783333D01*
X65511904Y-147830952D01*
X65559523Y-147878571D01*
X65607142Y-147973809D01*
X65607142Y-148211904D01*
X65559523Y-148307142D01*
X65511904Y-148354761D01*
X65416666Y-148402380D01*
X65178571Y-148402380D01*
X65083333Y-148354761D01*
X65035714Y-148307142D01*
X65892857Y-147402380D02*
X66226190Y-148402380D01*
X66559523Y-147402380D01*
X56338095Y-147450000D02*
X56242857Y-147402380D01*
X56100000Y-147402380D01*
X55957142Y-147450000D01*
X55861904Y-147545238D01*
X55814285Y-147640476D01*
X55766666Y-147830952D01*
X55766666Y-147973809D01*
X55814285Y-148164285D01*
X55861904Y-148259523D01*
X55957142Y-148354761D01*
X56100000Y-148402380D01*
X56195238Y-148402380D01*
X56338095Y-148354761D01*
X56385714Y-148307142D01*
X56385714Y-147973809D01*
X56195238Y-147973809D01*
X56814285Y-148402380D02*
X56814285Y-147402380D01*
X57385714Y-148402380D01*
X57385714Y-147402380D01*
X57861904Y-148402380D02*
X57861904Y-147402380D01*
X58100000Y-147402380D01*
X58242857Y-147450000D01*
X58338095Y-147545238D01*
X58385714Y-147640476D01*
X58433333Y-147830952D01*
X58433333Y-147973809D01*
X58385714Y-148164285D01*
X58338095Y-148259523D01*
X58242857Y-148354761D01*
X58100000Y-148402380D01*
X57861904Y-148402380D01*
X67761904Y-147402380D02*
X68380952Y-147402380D01*
X68047619Y-147783333D01*
X68190476Y-147783333D01*
X68285714Y-147830952D01*
X68333333Y-147878571D01*
X68380952Y-147973809D01*
X68380952Y-148211904D01*
X68333333Y-148307142D01*
X68285714Y-148354761D01*
X68190476Y-148402380D01*
X67904761Y-148402380D01*
X67809523Y-148354761D01*
X67761904Y-148307142D01*
X68666666Y-147402380D02*
X69000000Y-148402380D01*
X69333333Y-147402380D01*
X69571428Y-147402380D02*
X70190476Y-147402380D01*
X69857142Y-147783333D01*
X70000000Y-147783333D01*
X70095238Y-147830952D01*
X70142857Y-147878571D01*
X70190476Y-147973809D01*
X70190476Y-148211904D01*
X70142857Y-148307142D01*
X70095238Y-148354761D01*
X70000000Y-148402380D01*
X69714285Y-148402380D01*
X69619047Y-148354761D01*
X69571428Y-148307142D01*
X77238095Y-147450000D02*
X77142857Y-147402380D01*
X77000000Y-147402380D01*
X76857142Y-147450000D01*
X76761904Y-147545238D01*
X76714285Y-147640476D01*
X76666666Y-147830952D01*
X76666666Y-147973809D01*
X76714285Y-148164285D01*
X76761904Y-148259523D01*
X76857142Y-148354761D01*
X77000000Y-148402380D01*
X77095238Y-148402380D01*
X77238095Y-148354761D01*
X77285714Y-148307142D01*
X77285714Y-147973809D01*
X77095238Y-147973809D01*
X77714285Y-148402380D02*
X77714285Y-147402380D01*
X78285714Y-148402380D01*
X78285714Y-147402380D01*
X78761904Y-148402380D02*
X78761904Y-147402380D01*
X79000000Y-147402380D01*
X79142857Y-147450000D01*
X79238095Y-147545238D01*
X79285714Y-147640476D01*
X79333333Y-147830952D01*
X79333333Y-147973809D01*
X79285714Y-148164285D01*
X79238095Y-148259523D01*
X79142857Y-148354761D01*
X79000000Y-148402380D01*
X78761904Y-148402380D01*
X100200000Y-143988095D02*
X100247619Y-143892857D01*
X100247619Y-143750000D01*
X100200000Y-143607142D01*
X100104761Y-143511904D01*
X100009523Y-143464285D01*
X99819047Y-143416666D01*
X99676190Y-143416666D01*
X99485714Y-143464285D01*
X99390476Y-143511904D01*
X99295238Y-143607142D01*
X99247619Y-143750000D01*
X99247619Y-143845238D01*
X99295238Y-143988095D01*
X99342857Y-144035714D01*
X99676190Y-144035714D01*
X99676190Y-143845238D01*
X99247619Y-144464285D02*
X100247619Y-144464285D01*
X99247619Y-145035714D01*
X100247619Y-145035714D01*
X99247619Y-145511904D02*
X100247619Y-145511904D01*
X100247619Y-145750000D01*
X100200000Y-145892857D01*
X100104761Y-145988095D01*
X100009523Y-146035714D01*
X99819047Y-146083333D01*
X99676190Y-146083333D01*
X99485714Y-146035714D01*
X99390476Y-145988095D01*
X99295238Y-145892857D01*
X99247619Y-145750000D01*
X99247619Y-145511904D01*
X114416666Y-142002380D02*
X114750000Y-143002380D01*
X115083333Y-142002380D01*
X115988095Y-142907142D02*
X115940476Y-142954761D01*
X115797619Y-143002380D01*
X115702380Y-143002380D01*
X115559523Y-142954761D01*
X115464285Y-142859523D01*
X115416666Y-142764285D01*
X115369047Y-142573809D01*
X115369047Y-142430952D01*
X115416666Y-142240476D01*
X115464285Y-142145238D01*
X115559523Y-142050000D01*
X115702380Y-142002380D01*
X115797619Y-142002380D01*
X115940476Y-142050000D01*
X115988095Y-142097619D01*
X116988095Y-142907142D02*
X116940476Y-142954761D01*
X116797619Y-143002380D01*
X116702380Y-143002380D01*
X116559523Y-142954761D01*
X116464285Y-142859523D01*
X116416666Y-142764285D01*
X116369047Y-142573809D01*
X116369047Y-142430952D01*
X116416666Y-142240476D01*
X116464285Y-142145238D01*
X116559523Y-142050000D01*
X116702380Y-142002380D01*
X116797619Y-142002380D01*
X116940476Y-142050000D01*
X116988095Y-142097619D01*
X114888095Y-111650000D02*
X114792857Y-111602380D01*
X114650000Y-111602380D01*
X114507142Y-111650000D01*
X114411904Y-111745238D01*
X114364285Y-111840476D01*
X114316666Y-112030952D01*
X114316666Y-112173809D01*
X114364285Y-112364285D01*
X114411904Y-112459523D01*
X114507142Y-112554761D01*
X114650000Y-112602380D01*
X114745238Y-112602380D01*
X114888095Y-112554761D01*
X114935714Y-112507142D01*
X114935714Y-112173809D01*
X114745238Y-112173809D01*
X115364285Y-112602380D02*
X115364285Y-111602380D01*
X115935714Y-112602380D01*
X115935714Y-111602380D01*
X116411904Y-112602380D02*
X116411904Y-111602380D01*
X116650000Y-111602380D01*
X116792857Y-111650000D01*
X116888095Y-111745238D01*
X116935714Y-111840476D01*
X116983333Y-112030952D01*
X116983333Y-112173809D01*
X116935714Y-112364285D01*
X116888095Y-112459523D01*
X116792857Y-112554761D01*
X116650000Y-112602380D01*
X116411904Y-112602380D01*
X116085714Y-116700000D02*
X115990476Y-116652380D01*
X115847619Y-116652380D01*
X115704761Y-116700000D01*
X115609523Y-116795238D01*
X115561904Y-116890476D01*
X115514285Y-117080952D01*
X115514285Y-117223809D01*
X115561904Y-117414285D01*
X115609523Y-117509523D01*
X115704761Y-117604761D01*
X115847619Y-117652380D01*
X115942857Y-117652380D01*
X116085714Y-117604761D01*
X116133333Y-117557142D01*
X116133333Y-117223809D01*
X115942857Y-117223809D01*
X117085714Y-117652380D02*
X116514285Y-117652380D01*
X116800000Y-117652380D02*
X116800000Y-116652380D01*
X116704761Y-116795238D01*
X116609523Y-116890476D01*
X116514285Y-116938095D01*
X116085714Y-126900000D02*
X115990476Y-126852380D01*
X115847619Y-126852380D01*
X115704761Y-126900000D01*
X115609523Y-126995238D01*
X115561904Y-127090476D01*
X115514285Y-127280952D01*
X115514285Y-127423809D01*
X115561904Y-127614285D01*
X115609523Y-127709523D01*
X115704761Y-127804761D01*
X115847619Y-127852380D01*
X115942857Y-127852380D01*
X116085714Y-127804761D01*
X116133333Y-127757142D01*
X116133333Y-127423809D01*
X115942857Y-127423809D01*
X116514285Y-126947619D02*
X116561904Y-126900000D01*
X116657142Y-126852380D01*
X116895238Y-126852380D01*
X116990476Y-126900000D01*
X117038095Y-126947619D01*
X117085714Y-127042857D01*
X117085714Y-127138095D01*
X117038095Y-127280952D01*
X116466666Y-127852380D01*
X117085714Y-127852380D01*
X114988095Y-121800000D02*
X114892857Y-121752380D01*
X114750000Y-121752380D01*
X114607142Y-121800000D01*
X114511904Y-121895238D01*
X114464285Y-121990476D01*
X114416666Y-122180952D01*
X114416666Y-122323809D01*
X114464285Y-122514285D01*
X114511904Y-122609523D01*
X114607142Y-122704761D01*
X114750000Y-122752380D01*
X114845238Y-122752380D01*
X114988095Y-122704761D01*
X115035714Y-122657142D01*
X115035714Y-122323809D01*
X114845238Y-122323809D01*
X115464285Y-122752380D02*
X115464285Y-121752380D01*
X116035714Y-122752380D01*
X116035714Y-121752380D01*
X116511904Y-122752380D02*
X116511904Y-121752380D01*
X116750000Y-121752380D01*
X116892857Y-121800000D01*
X116988095Y-121895238D01*
X117035714Y-121990476D01*
X117083333Y-122180952D01*
X117083333Y-122323809D01*
X117035714Y-122514285D01*
X116988095Y-122609523D01*
X116892857Y-122704761D01*
X116750000Y-122752380D01*
X116511904Y-122752380D01*
X116183333Y-125302380D02*
X115850000Y-124826190D01*
X115611904Y-125302380D02*
X115611904Y-124302380D01*
X115992857Y-124302380D01*
X116088095Y-124350000D01*
X116135714Y-124397619D01*
X116183333Y-124492857D01*
X116183333Y-124635714D01*
X116135714Y-124730952D01*
X116088095Y-124778571D01*
X115992857Y-124826190D01*
X115611904Y-124826190D01*
X116564285Y-124397619D02*
X116611904Y-124350000D01*
X116707142Y-124302380D01*
X116945238Y-124302380D01*
X117040476Y-124350000D01*
X117088095Y-124397619D01*
X117135714Y-124492857D01*
X117135714Y-124588095D01*
X117088095Y-124730952D01*
X116516666Y-125302380D01*
X117135714Y-125302380D01*
X116083333Y-115002380D02*
X115750000Y-114526190D01*
X115511904Y-115002380D02*
X115511904Y-114002380D01*
X115892857Y-114002380D01*
X115988095Y-114050000D01*
X116035714Y-114097619D01*
X116083333Y-114192857D01*
X116083333Y-114335714D01*
X116035714Y-114430952D01*
X115988095Y-114478571D01*
X115892857Y-114526190D01*
X115511904Y-114526190D01*
X117035714Y-115002380D02*
X116464285Y-115002380D01*
X116750000Y-115002380D02*
X116750000Y-114002380D01*
X116654761Y-114145238D01*
X116559523Y-114240476D01*
X116464285Y-114288095D01*
X115088095Y-131950000D02*
X114992857Y-131902380D01*
X114850000Y-131902380D01*
X114707142Y-131950000D01*
X114611904Y-132045238D01*
X114564285Y-132140476D01*
X114516666Y-132330952D01*
X114516666Y-132473809D01*
X114564285Y-132664285D01*
X114611904Y-132759523D01*
X114707142Y-132854761D01*
X114850000Y-132902380D01*
X114945238Y-132902380D01*
X115088095Y-132854761D01*
X115135714Y-132807142D01*
X115135714Y-132473809D01*
X114945238Y-132473809D01*
X115564285Y-132902380D02*
X115564285Y-131902380D01*
X116135714Y-132902380D01*
X116135714Y-131902380D01*
X116611904Y-132902380D02*
X116611904Y-131902380D01*
X116850000Y-131902380D01*
X116992857Y-131950000D01*
X117088095Y-132045238D01*
X117135714Y-132140476D01*
X117183333Y-132330952D01*
X117183333Y-132473809D01*
X117135714Y-132664285D01*
X117088095Y-132759523D01*
X116992857Y-132854761D01*
X116850000Y-132902380D01*
X116611904Y-132902380D01*
X115895238Y-129778571D02*
X116038095Y-129826190D01*
X116085714Y-129873809D01*
X116133333Y-129969047D01*
X116133333Y-130111904D01*
X116085714Y-130207142D01*
X116038095Y-130254761D01*
X115942857Y-130302380D01*
X115561904Y-130302380D01*
X115561904Y-129302380D01*
X115895238Y-129302380D01*
X115990476Y-129350000D01*
X116038095Y-129397619D01*
X116085714Y-129492857D01*
X116085714Y-129588095D01*
X116038095Y-129683333D01*
X115990476Y-129730952D01*
X115895238Y-129778571D01*
X115561904Y-129778571D01*
X116514285Y-129397619D02*
X116561904Y-129350000D01*
X116657142Y-129302380D01*
X116895238Y-129302380D01*
X116990476Y-129350000D01*
X117038095Y-129397619D01*
X117085714Y-129492857D01*
X117085714Y-129588095D01*
X117038095Y-129730952D01*
X116466666Y-130302380D01*
X117085714Y-130302380D01*
X114316666Y-139452380D02*
X114650000Y-140452380D01*
X114983333Y-139452380D01*
X115888095Y-140357142D02*
X115840476Y-140404761D01*
X115697619Y-140452380D01*
X115602380Y-140452380D01*
X115459523Y-140404761D01*
X115364285Y-140309523D01*
X115316666Y-140214285D01*
X115269047Y-140023809D01*
X115269047Y-139880952D01*
X115316666Y-139690476D01*
X115364285Y-139595238D01*
X115459523Y-139500000D01*
X115602380Y-139452380D01*
X115697619Y-139452380D01*
X115840476Y-139500000D01*
X115888095Y-139547619D01*
X116888095Y-140357142D02*
X116840476Y-140404761D01*
X116697619Y-140452380D01*
X116602380Y-140452380D01*
X116459523Y-140404761D01*
X116364285Y-140309523D01*
X116316666Y-140214285D01*
X116269047Y-140023809D01*
X116269047Y-139880952D01*
X116316666Y-139690476D01*
X116364285Y-139595238D01*
X116459523Y-139500000D01*
X116602380Y-139452380D01*
X116697619Y-139452380D01*
X116840476Y-139500000D01*
X116888095Y-139547619D01*
X115945238Y-119628571D02*
X116088095Y-119676190D01*
X116135714Y-119723809D01*
X116183333Y-119819047D01*
X116183333Y-119961904D01*
X116135714Y-120057142D01*
X116088095Y-120104761D01*
X115992857Y-120152380D01*
X115611904Y-120152380D01*
X115611904Y-119152380D01*
X115945238Y-119152380D01*
X116040476Y-119200000D01*
X116088095Y-119247619D01*
X116135714Y-119342857D01*
X116135714Y-119438095D01*
X116088095Y-119533333D01*
X116040476Y-119580952D01*
X115945238Y-119628571D01*
X115611904Y-119628571D01*
X117135714Y-120152380D02*
X116564285Y-120152380D01*
X116850000Y-120152380D02*
X116850000Y-119152380D01*
X116754761Y-119295238D01*
X116659523Y-119390476D01*
X116564285Y-119438095D01*
X115464285Y-138002380D02*
X115464285Y-137002380D01*
X116035714Y-138002380D01*
X116035714Y-137002380D01*
X117083333Y-137907142D02*
X117035714Y-137954761D01*
X116892857Y-138002380D01*
X116797619Y-138002380D01*
X116654761Y-137954761D01*
X116559523Y-137859523D01*
X116511904Y-137764285D01*
X116464285Y-137573809D01*
X116464285Y-137430952D01*
X116511904Y-137240476D01*
X116559523Y-137145238D01*
X116654761Y-137050000D01*
X116797619Y-137002380D01*
X116892857Y-137002380D01*
X117035714Y-137050000D01*
X117083333Y-137097619D01*
X115414285Y-135352380D02*
X115414285Y-134352380D01*
X115985714Y-135352380D01*
X115985714Y-134352380D01*
X117033333Y-135257142D02*
X116985714Y-135304761D01*
X116842857Y-135352380D01*
X116747619Y-135352380D01*
X116604761Y-135304761D01*
X116509523Y-135209523D01*
X116461904Y-135114285D01*
X116414285Y-134923809D01*
X116414285Y-134780952D01*
X116461904Y-134590476D01*
X116509523Y-134495238D01*
X116604761Y-134400000D01*
X116747619Y-134352380D01*
X116842857Y-134352380D01*
X116985714Y-134400000D01*
X117033333Y-134447619D01*
X53550000Y-133002380D02*
X53073809Y-133002380D01*
X53073809Y-132002380D01*
X53835714Y-132716666D02*
X54311904Y-132716666D01*
X53740476Y-133002380D02*
X54073809Y-132002380D01*
X54407142Y-133002380D01*
X54597619Y-132002380D02*
X55169047Y-132002380D01*
X54883333Y-133002380D02*
X54883333Y-132002380D01*
X53588095Y-137150000D02*
X53492857Y-137102380D01*
X53350000Y-137102380D01*
X53207142Y-137150000D01*
X53111904Y-137245238D01*
X53064285Y-137340476D01*
X53016666Y-137530952D01*
X53016666Y-137673809D01*
X53064285Y-137864285D01*
X53111904Y-137959523D01*
X53207142Y-138054761D01*
X53350000Y-138102380D01*
X53445238Y-138102380D01*
X53588095Y-138054761D01*
X53635714Y-138007142D01*
X53635714Y-137673809D01*
X53445238Y-137673809D01*
X54064285Y-138102380D02*
X54064285Y-137102380D01*
X54635714Y-138102380D01*
X54635714Y-137102380D01*
X55111904Y-138102380D02*
X55111904Y-137102380D01*
X55350000Y-137102380D01*
X55492857Y-137150000D01*
X55588095Y-137245238D01*
X55635714Y-137340476D01*
X55683333Y-137530952D01*
X55683333Y-137673809D01*
X55635714Y-137864285D01*
X55588095Y-137959523D01*
X55492857Y-138054761D01*
X55350000Y-138102380D01*
X55111904Y-138102380D01*
X53252380Y-134602380D02*
X53442857Y-134602380D01*
X53538095Y-134650000D01*
X53633333Y-134745238D01*
X53680952Y-134935714D01*
X53680952Y-135269047D01*
X53633333Y-135459523D01*
X53538095Y-135554761D01*
X53442857Y-135602380D01*
X53252380Y-135602380D01*
X53157142Y-135554761D01*
X53061904Y-135459523D01*
X53014285Y-135269047D01*
X53014285Y-134935714D01*
X53061904Y-134745238D01*
X53157142Y-134650000D01*
X53252380Y-134602380D01*
X54109523Y-135078571D02*
X54442857Y-135078571D01*
X54585714Y-135602380D02*
X54109523Y-135602380D01*
X54109523Y-134602380D01*
X54585714Y-134602380D01*
X52988095Y-122902380D02*
X52988095Y-121902380D01*
X53226190Y-121902380D01*
X53369047Y-121950000D01*
X53464285Y-122045238D01*
X53511904Y-122140476D01*
X53559523Y-122330952D01*
X53559523Y-122473809D01*
X53511904Y-122664285D01*
X53464285Y-122759523D01*
X53369047Y-122854761D01*
X53226190Y-122902380D01*
X52988095Y-122902380D01*
X53538095Y-127000000D02*
X53442857Y-126952380D01*
X53300000Y-126952380D01*
X53157142Y-127000000D01*
X53061904Y-127095238D01*
X53014285Y-127190476D01*
X52966666Y-127380952D01*
X52966666Y-127523809D01*
X53014285Y-127714285D01*
X53061904Y-127809523D01*
X53157142Y-127904761D01*
X53300000Y-127952380D01*
X53395238Y-127952380D01*
X53538095Y-127904761D01*
X53585714Y-127857142D01*
X53585714Y-127523809D01*
X53395238Y-127523809D01*
X54014285Y-127952380D02*
X54014285Y-126952380D01*
X54585714Y-127952380D01*
X54585714Y-126952380D01*
X55061904Y-127952380D02*
X55061904Y-126952380D01*
X55300000Y-126952380D01*
X55442857Y-127000000D01*
X55538095Y-127095238D01*
X55585714Y-127190476D01*
X55633333Y-127380952D01*
X55633333Y-127523809D01*
X55585714Y-127714285D01*
X55538095Y-127809523D01*
X55442857Y-127904761D01*
X55300000Y-127952380D01*
X55061904Y-127952380D01*
X52935714Y-124828571D02*
X53269047Y-124828571D01*
X53411904Y-125352380D02*
X52935714Y-125352380D01*
X52935714Y-124352380D01*
X53411904Y-124352380D01*
X53654761Y-130307142D02*
X53607142Y-130354761D01*
X53464285Y-130402380D01*
X53369047Y-130402380D01*
X53226190Y-130354761D01*
X53130952Y-130259523D01*
X53083333Y-130164285D01*
X53035714Y-129973809D01*
X53035714Y-129830952D01*
X53083333Y-129640476D01*
X53130952Y-129545238D01*
X53226190Y-129450000D01*
X53369047Y-129402380D01*
X53464285Y-129402380D01*
X53607142Y-129450000D01*
X53654761Y-129497619D01*
X54559523Y-130402380D02*
X54083333Y-130402380D01*
X54083333Y-129402380D01*
X54892857Y-130402380D02*
X54892857Y-129402380D01*
X55464285Y-130402380D02*
X55035714Y-129830952D01*
X55464285Y-129402380D02*
X54892857Y-129973809D01*
X53371428Y-117228571D02*
X53514285Y-117276190D01*
X53561904Y-117323809D01*
X53609523Y-117419047D01*
X53609523Y-117561904D01*
X53561904Y-117657142D01*
X53514285Y-117704761D01*
X53419047Y-117752380D01*
X53038095Y-117752380D01*
X53038095Y-116752380D01*
X53371428Y-116752380D01*
X53466666Y-116800000D01*
X53514285Y-116847619D01*
X53561904Y-116942857D01*
X53561904Y-117038095D01*
X53514285Y-117133333D01*
X53466666Y-117180952D01*
X53371428Y-117228571D01*
X53038095Y-117228571D01*
X53559523Y-120257142D02*
X53511904Y-120304761D01*
X53369047Y-120352380D01*
X53273809Y-120352380D01*
X53130952Y-120304761D01*
X53035714Y-120209523D01*
X52988095Y-120114285D01*
X52940476Y-119923809D01*
X52940476Y-119780952D01*
X52988095Y-119590476D01*
X53035714Y-119495238D01*
X53130952Y-119400000D01*
X53273809Y-119352380D01*
X53369047Y-119352380D01*
X53511904Y-119400000D01*
X53559523Y-119447619D01*
X53111904Y-114916666D02*
X53588095Y-114916666D01*
X53016666Y-115202380D02*
X53350000Y-114202380D01*
X53683333Y-115202380D01*
X53588095Y-111800000D02*
X53492857Y-111752380D01*
X53350000Y-111752380D01*
X53207142Y-111800000D01*
X53111904Y-111895238D01*
X53064285Y-111990476D01*
X53016666Y-112180952D01*
X53016666Y-112323809D01*
X53064285Y-112514285D01*
X53111904Y-112609523D01*
X53207142Y-112704761D01*
X53350000Y-112752380D01*
X53445238Y-112752380D01*
X53588095Y-112704761D01*
X53635714Y-112657142D01*
X53635714Y-112323809D01*
X53445238Y-112323809D01*
X54064285Y-112752380D02*
X54064285Y-111752380D01*
X54635714Y-112752380D01*
X54635714Y-111752380D01*
X55111904Y-112752380D02*
X55111904Y-111752380D01*
X55350000Y-111752380D01*
X55492857Y-111800000D01*
X55588095Y-111895238D01*
X55635714Y-111990476D01*
X55683333Y-112180952D01*
X55683333Y-112323809D01*
X55635714Y-112514285D01*
X55588095Y-112609523D01*
X55492857Y-112704761D01*
X55350000Y-112752380D01*
X55111904Y-112752380D01*
D11*
%TO.C,J5*%
X103680000Y-147900000D02*
X103680000Y-149230000D01*
X103680000Y-149230000D02*
X102350000Y-149230000D01*
X101080000Y-149230000D02*
X83240000Y-149230000D01*
X83240000Y-146570000D02*
X83240000Y-149230000D01*
X101080000Y-146570000D02*
X83240000Y-146570000D01*
X101080000Y-146570000D02*
X101080000Y-149230000D01*
D12*
%TO.C,ESP321*%
X54000000Y-110500000D02*
X54000000Y-138850000D01*
X62600000Y-110500000D02*
X54050000Y-110500000D01*
X54100000Y-138800000D02*
X105500000Y-138800000D01*
X105500000Y-138800000D02*
X105500000Y-110500000D01*
X105500000Y-110500000D02*
X62500000Y-110500000D01*
D11*
X57470000Y-113130000D02*
X57470000Y-111800000D01*
X58800000Y-113130000D02*
X57470000Y-113130000D01*
X60470000Y-113230000D02*
X60470000Y-110570000D01*
X60470000Y-110570000D02*
X96090000Y-110570000D01*
X60070000Y-113130000D02*
X95690000Y-113130000D01*
X96090000Y-113230000D02*
X96090000Y-110570000D01*
X96090000Y-113230000D02*
X96090000Y-110570000D01*
X60070000Y-113130000D02*
X95690000Y-113130000D01*
X60470000Y-110570000D02*
X96090000Y-110570000D01*
X60470000Y-113230000D02*
X60470000Y-110570000D01*
X58800000Y-113130000D02*
X57470000Y-113130000D01*
X57470000Y-113130000D02*
X57470000Y-111800000D01*
X57570000Y-138830000D02*
X57570000Y-137500000D01*
X58900000Y-138830000D02*
X57570000Y-138830000D01*
X60170000Y-138830000D02*
X60170000Y-136170000D01*
X60170000Y-136170000D02*
X95790000Y-136170000D01*
X60170000Y-138830000D02*
X95790000Y-138830000D01*
X95790000Y-138830000D02*
X95790000Y-136170000D01*
X95790000Y-138830000D02*
X95790000Y-136170000D01*
X60170000Y-138830000D02*
X95790000Y-138830000D01*
X60170000Y-136170000D02*
X95790000Y-136170000D01*
X60170000Y-138830000D02*
X60170000Y-136170000D01*
X58900000Y-138830000D02*
X57570000Y-138830000D01*
X57570000Y-138830000D02*
X57570000Y-137500000D01*
%TO.C,J2*%
X110920000Y-141370000D02*
X113580000Y-141370000D01*
X110920000Y-141370000D02*
X110920000Y-149050000D01*
X110920000Y-149050000D02*
X113580000Y-149050000D01*
X113580000Y-141370000D02*
X113580000Y-149050000D01*
X113580000Y-138770000D02*
X113580000Y-140100000D01*
X112250000Y-138770000D02*
X113580000Y-138770000D01*
%TO.C,J3*%
X112150000Y-121230000D02*
X110820000Y-121230000D01*
X110820000Y-121230000D02*
X110820000Y-119900000D01*
X110820000Y-118630000D02*
X110820000Y-110950000D01*
X113480000Y-110950000D02*
X110820000Y-110950000D01*
X113480000Y-118630000D02*
X113480000Y-110950000D01*
X113480000Y-118630000D02*
X110820000Y-118630000D01*
%TO.C,J6*%
X70820000Y-149130000D02*
X70820000Y-147800000D01*
X72150000Y-149130000D02*
X70820000Y-149130000D01*
X73420000Y-149130000D02*
X73420000Y-146470000D01*
X73420000Y-146470000D02*
X76020000Y-146470000D01*
X73420000Y-149130000D02*
X76020000Y-149130000D01*
X76020000Y-149130000D02*
X76020000Y-146470000D01*
%TO.C,J7*%
X64320000Y-149130000D02*
X64320000Y-146470000D01*
X61720000Y-149130000D02*
X64320000Y-149130000D01*
X61720000Y-146470000D02*
X64320000Y-146470000D01*
X61720000Y-149130000D02*
X61720000Y-146470000D01*
X60450000Y-149130000D02*
X59120000Y-149130000D01*
X59120000Y-149130000D02*
X59120000Y-147800000D01*
%TO.C,ESP321*%
D12*
X55478571Y-127119047D02*
X55478571Y-126785714D01*
X56002380Y-126642857D02*
X56002380Y-127119047D01*
X55002380Y-127119047D01*
X55002380Y-126642857D01*
X55954761Y-126261904D02*
X56002380Y-126119047D01*
X56002380Y-125880952D01*
X55954761Y-125785714D01*
X55907142Y-125738095D01*
X55811904Y-125690476D01*
X55716666Y-125690476D01*
X55621428Y-125738095D01*
X55573809Y-125785714D01*
X55526190Y-125880952D01*
X55478571Y-126071428D01*
X55430952Y-126166666D01*
X55383333Y-126214285D01*
X55288095Y-126261904D01*
X55192857Y-126261904D01*
X55097619Y-126214285D01*
X55050000Y-126166666D01*
X55002380Y-126071428D01*
X55002380Y-125833333D01*
X55050000Y-125690476D01*
X56002380Y-125261904D02*
X55002380Y-125261904D01*
X55002380Y-124880952D01*
X55050000Y-124785714D01*
X55097619Y-124738095D01*
X55192857Y-124690476D01*
X55335714Y-124690476D01*
X55430952Y-124738095D01*
X55478571Y-124785714D01*
X55526190Y-124880952D01*
X55526190Y-125261904D01*
X55002380Y-124357142D02*
X55002380Y-123738095D01*
X55383333Y-124071428D01*
X55383333Y-123928571D01*
X55430952Y-123833333D01*
X55478571Y-123785714D01*
X55573809Y-123738095D01*
X55811904Y-123738095D01*
X55907142Y-123785714D01*
X55954761Y-123833333D01*
X56002380Y-123928571D01*
X56002380Y-124214285D01*
X55954761Y-124309523D01*
X55907142Y-124357142D01*
X55097619Y-123357142D02*
X55050000Y-123309523D01*
X55002380Y-123214285D01*
X55002380Y-122976190D01*
X55050000Y-122880952D01*
X55097619Y-122833333D01*
X55192857Y-122785714D01*
X55288095Y-122785714D01*
X55430952Y-122833333D01*
X56002380Y-123404761D01*
X56002380Y-122785714D01*
X56002380Y-121833333D02*
X56002380Y-122404761D01*
X56002380Y-122119047D02*
X55002380Y-122119047D01*
X55145238Y-122214285D01*
X55240476Y-122309523D01*
X55288095Y-122404761D01*
X58450000Y-119352380D02*
X58402380Y-119447619D01*
X58402380Y-119590476D01*
X58450000Y-119733333D01*
X58545238Y-119828571D01*
X58640476Y-119876190D01*
X58830952Y-119923809D01*
X58973809Y-119923809D01*
X59164285Y-119876190D01*
X59259523Y-119828571D01*
X59354761Y-119733333D01*
X59402380Y-119590476D01*
X59402380Y-119495238D01*
X59354761Y-119352380D01*
X59307142Y-119304761D01*
X58973809Y-119304761D01*
X58973809Y-119495238D01*
X59402380Y-118876190D02*
X58402380Y-118876190D01*
X58402380Y-118495238D01*
X58450000Y-118400000D01*
X58497619Y-118352380D01*
X58592857Y-118304761D01*
X58735714Y-118304761D01*
X58830952Y-118352380D01*
X58878571Y-118400000D01*
X58926190Y-118495238D01*
X58926190Y-118876190D01*
X59402380Y-117876190D02*
X58402380Y-117876190D01*
X58402380Y-117209523D02*
X58402380Y-117019047D01*
X58450000Y-116923809D01*
X58545238Y-116828571D01*
X58735714Y-116780952D01*
X59069047Y-116780952D01*
X59259523Y-116828571D01*
X59354761Y-116923809D01*
X59402380Y-117019047D01*
X59402380Y-117209523D01*
X59354761Y-117304761D01*
X59259523Y-117400000D01*
X59069047Y-117447619D01*
X58735714Y-117447619D01*
X58545238Y-117400000D01*
X58450000Y-117304761D01*
X58402380Y-117209523D01*
X58497619Y-116400000D02*
X58450000Y-116352380D01*
X58402380Y-116257142D01*
X58402380Y-116019047D01*
X58450000Y-115923809D01*
X58497619Y-115876190D01*
X58592857Y-115828571D01*
X58688095Y-115828571D01*
X58830952Y-115876190D01*
X59402380Y-116447619D01*
X59402380Y-115828571D01*
X58402380Y-115495238D02*
X58402380Y-114876190D01*
X58783333Y-115209523D01*
X58783333Y-115066666D01*
X58830952Y-114971428D01*
X58878571Y-114923809D01*
X58973809Y-114876190D01*
X59211904Y-114876190D01*
X59307142Y-114923809D01*
X59354761Y-114971428D01*
X59402380Y-115066666D01*
X59402380Y-115352380D01*
X59354761Y-115447619D01*
X59307142Y-115495238D01*
X60950000Y-119352380D02*
X60902380Y-119447619D01*
X60902380Y-119590476D01*
X60950000Y-119733333D01*
X61045238Y-119828571D01*
X61140476Y-119876190D01*
X61330952Y-119923809D01*
X61473809Y-119923809D01*
X61664285Y-119876190D01*
X61759523Y-119828571D01*
X61854761Y-119733333D01*
X61902380Y-119590476D01*
X61902380Y-119495238D01*
X61854761Y-119352380D01*
X61807142Y-119304761D01*
X61473809Y-119304761D01*
X61473809Y-119495238D01*
X61902380Y-118876190D02*
X60902380Y-118876190D01*
X60902380Y-118495238D01*
X60950000Y-118400000D01*
X60997619Y-118352380D01*
X61092857Y-118304761D01*
X61235714Y-118304761D01*
X61330952Y-118352380D01*
X61378571Y-118400000D01*
X61426190Y-118495238D01*
X61426190Y-118876190D01*
X61902380Y-117876190D02*
X60902380Y-117876190D01*
X60902380Y-117209523D02*
X60902380Y-117019047D01*
X60950000Y-116923809D01*
X61045238Y-116828571D01*
X61235714Y-116780952D01*
X61569047Y-116780952D01*
X61759523Y-116828571D01*
X61854761Y-116923809D01*
X61902380Y-117019047D01*
X61902380Y-117209523D01*
X61854761Y-117304761D01*
X61759523Y-117400000D01*
X61569047Y-117447619D01*
X61235714Y-117447619D01*
X61045238Y-117400000D01*
X60950000Y-117304761D01*
X60902380Y-117209523D01*
X60997619Y-116400000D02*
X60950000Y-116352380D01*
X60902380Y-116257142D01*
X60902380Y-116019047D01*
X60950000Y-115923809D01*
X60997619Y-115876190D01*
X61092857Y-115828571D01*
X61188095Y-115828571D01*
X61330952Y-115876190D01*
X61902380Y-116447619D01*
X61902380Y-115828571D01*
X60997619Y-115447619D02*
X60950000Y-115400000D01*
X60902380Y-115304761D01*
X60902380Y-115066666D01*
X60950000Y-114971428D01*
X60997619Y-114923809D01*
X61092857Y-114876190D01*
X61188095Y-114876190D01*
X61330952Y-114923809D01*
X61902380Y-115495238D01*
X61902380Y-114876190D01*
X63450000Y-119376190D02*
X63402380Y-119471428D01*
X63402380Y-119614285D01*
X63450000Y-119757142D01*
X63545238Y-119852380D01*
X63640476Y-119900000D01*
X63830952Y-119947619D01*
X63973809Y-119947619D01*
X64164285Y-119900000D01*
X64259523Y-119852380D01*
X64354761Y-119757142D01*
X64402380Y-119614285D01*
X64402380Y-119519047D01*
X64354761Y-119376190D01*
X64307142Y-119328571D01*
X63973809Y-119328571D01*
X63973809Y-119519047D01*
X64402380Y-118900000D02*
X63402380Y-118900000D01*
X63402380Y-118519047D01*
X63450000Y-118423809D01*
X63497619Y-118376190D01*
X63592857Y-118328571D01*
X63735714Y-118328571D01*
X63830952Y-118376190D01*
X63878571Y-118423809D01*
X63926190Y-118519047D01*
X63926190Y-118900000D01*
X64402380Y-117900000D02*
X63402380Y-117900000D01*
X63402380Y-117233333D02*
X63402380Y-117042857D01*
X63450000Y-116947619D01*
X63545238Y-116852380D01*
X63735714Y-116804761D01*
X64069047Y-116804761D01*
X64259523Y-116852380D01*
X64354761Y-116947619D01*
X64402380Y-117042857D01*
X64402380Y-117233333D01*
X64354761Y-117328571D01*
X64259523Y-117423809D01*
X64069047Y-117471428D01*
X63735714Y-117471428D01*
X63545238Y-117423809D01*
X63450000Y-117328571D01*
X63402380Y-117233333D01*
X64402380Y-115852380D02*
X64402380Y-116423809D01*
X64402380Y-116138095D02*
X63402380Y-116138095D01*
X63545238Y-116233333D01*
X63640476Y-116328571D01*
X63688095Y-116423809D01*
X65950000Y-119376190D02*
X65902380Y-119471428D01*
X65902380Y-119614285D01*
X65950000Y-119757142D01*
X66045238Y-119852380D01*
X66140476Y-119900000D01*
X66330952Y-119947619D01*
X66473809Y-119947619D01*
X66664285Y-119900000D01*
X66759523Y-119852380D01*
X66854761Y-119757142D01*
X66902380Y-119614285D01*
X66902380Y-119519047D01*
X66854761Y-119376190D01*
X66807142Y-119328571D01*
X66473809Y-119328571D01*
X66473809Y-119519047D01*
X66902380Y-118900000D02*
X65902380Y-118900000D01*
X65902380Y-118519047D01*
X65950000Y-118423809D01*
X65997619Y-118376190D01*
X66092857Y-118328571D01*
X66235714Y-118328571D01*
X66330952Y-118376190D01*
X66378571Y-118423809D01*
X66426190Y-118519047D01*
X66426190Y-118900000D01*
X66902380Y-117900000D02*
X65902380Y-117900000D01*
X65902380Y-117233333D02*
X65902380Y-117042857D01*
X65950000Y-116947619D01*
X66045238Y-116852380D01*
X66235714Y-116804761D01*
X66569047Y-116804761D01*
X66759523Y-116852380D01*
X66854761Y-116947619D01*
X66902380Y-117042857D01*
X66902380Y-117233333D01*
X66854761Y-117328571D01*
X66759523Y-117423809D01*
X66569047Y-117471428D01*
X66235714Y-117471428D01*
X66045238Y-117423809D01*
X65950000Y-117328571D01*
X65902380Y-117233333D01*
X65902380Y-116471428D02*
X65902380Y-115852380D01*
X66283333Y-116185714D01*
X66283333Y-116042857D01*
X66330952Y-115947619D01*
X66378571Y-115900000D01*
X66473809Y-115852380D01*
X66711904Y-115852380D01*
X66807142Y-115900000D01*
X66854761Y-115947619D01*
X66902380Y-116042857D01*
X66902380Y-116328571D01*
X66854761Y-116423809D01*
X66807142Y-116471428D01*
X68450000Y-119352380D02*
X68402380Y-119447619D01*
X68402380Y-119590476D01*
X68450000Y-119733333D01*
X68545238Y-119828571D01*
X68640476Y-119876190D01*
X68830952Y-119923809D01*
X68973809Y-119923809D01*
X69164285Y-119876190D01*
X69259523Y-119828571D01*
X69354761Y-119733333D01*
X69402380Y-119590476D01*
X69402380Y-119495238D01*
X69354761Y-119352380D01*
X69307142Y-119304761D01*
X68973809Y-119304761D01*
X68973809Y-119495238D01*
X69402380Y-118876190D02*
X68402380Y-118876190D01*
X68402380Y-118495238D01*
X68450000Y-118400000D01*
X68497619Y-118352380D01*
X68592857Y-118304761D01*
X68735714Y-118304761D01*
X68830952Y-118352380D01*
X68878571Y-118400000D01*
X68926190Y-118495238D01*
X68926190Y-118876190D01*
X69402380Y-117876190D02*
X68402380Y-117876190D01*
X68402380Y-117209523D02*
X68402380Y-117019047D01*
X68450000Y-116923809D01*
X68545238Y-116828571D01*
X68735714Y-116780952D01*
X69069047Y-116780952D01*
X69259523Y-116828571D01*
X69354761Y-116923809D01*
X69402380Y-117019047D01*
X69402380Y-117209523D01*
X69354761Y-117304761D01*
X69259523Y-117400000D01*
X69069047Y-117447619D01*
X68735714Y-117447619D01*
X68545238Y-117400000D01*
X68450000Y-117304761D01*
X68402380Y-117209523D01*
X68497619Y-116400000D02*
X68450000Y-116352380D01*
X68402380Y-116257142D01*
X68402380Y-116019047D01*
X68450000Y-115923809D01*
X68497619Y-115876190D01*
X68592857Y-115828571D01*
X68688095Y-115828571D01*
X68830952Y-115876190D01*
X69402380Y-116447619D01*
X69402380Y-115828571D01*
X69402380Y-114876190D02*
X69402380Y-115447619D01*
X69402380Y-115161904D02*
X68402380Y-115161904D01*
X68545238Y-115257142D01*
X68640476Y-115352380D01*
X68688095Y-115447619D01*
X70950000Y-119352380D02*
X70902380Y-119447619D01*
X70902380Y-119590476D01*
X70950000Y-119733333D01*
X71045238Y-119828571D01*
X71140476Y-119876190D01*
X71330952Y-119923809D01*
X71473809Y-119923809D01*
X71664285Y-119876190D01*
X71759523Y-119828571D01*
X71854761Y-119733333D01*
X71902380Y-119590476D01*
X71902380Y-119495238D01*
X71854761Y-119352380D01*
X71807142Y-119304761D01*
X71473809Y-119304761D01*
X71473809Y-119495238D01*
X71902380Y-118876190D02*
X70902380Y-118876190D01*
X70902380Y-118495238D01*
X70950000Y-118400000D01*
X70997619Y-118352380D01*
X71092857Y-118304761D01*
X71235714Y-118304761D01*
X71330952Y-118352380D01*
X71378571Y-118400000D01*
X71426190Y-118495238D01*
X71426190Y-118876190D01*
X71902380Y-117876190D02*
X70902380Y-117876190D01*
X70902380Y-117209523D02*
X70902380Y-117019047D01*
X70950000Y-116923809D01*
X71045238Y-116828571D01*
X71235714Y-116780952D01*
X71569047Y-116780952D01*
X71759523Y-116828571D01*
X71854761Y-116923809D01*
X71902380Y-117019047D01*
X71902380Y-117209523D01*
X71854761Y-117304761D01*
X71759523Y-117400000D01*
X71569047Y-117447619D01*
X71235714Y-117447619D01*
X71045238Y-117400000D01*
X70950000Y-117304761D01*
X70902380Y-117209523D01*
X71902380Y-115828571D02*
X71902380Y-116400000D01*
X71902380Y-116114285D02*
X70902380Y-116114285D01*
X71045238Y-116209523D01*
X71140476Y-116304761D01*
X71188095Y-116400000D01*
X71902380Y-115352380D02*
X71902380Y-115161904D01*
X71854761Y-115066666D01*
X71807142Y-115019047D01*
X71664285Y-114923809D01*
X71473809Y-114876190D01*
X71092857Y-114876190D01*
X70997619Y-114923809D01*
X70950000Y-114971428D01*
X70902380Y-115066666D01*
X70902380Y-115257142D01*
X70950000Y-115352380D01*
X70997619Y-115400000D01*
X71092857Y-115447619D01*
X71330952Y-115447619D01*
X71426190Y-115400000D01*
X71473809Y-115352380D01*
X71521428Y-115257142D01*
X71521428Y-115066666D01*
X71473809Y-114971428D01*
X71426190Y-114923809D01*
X71330952Y-114876190D01*
X73450000Y-119352380D02*
X73402380Y-119447619D01*
X73402380Y-119590476D01*
X73450000Y-119733333D01*
X73545238Y-119828571D01*
X73640476Y-119876190D01*
X73830952Y-119923809D01*
X73973809Y-119923809D01*
X74164285Y-119876190D01*
X74259523Y-119828571D01*
X74354761Y-119733333D01*
X74402380Y-119590476D01*
X74402380Y-119495238D01*
X74354761Y-119352380D01*
X74307142Y-119304761D01*
X73973809Y-119304761D01*
X73973809Y-119495238D01*
X74402380Y-118876190D02*
X73402380Y-118876190D01*
X73402380Y-118495238D01*
X73450000Y-118400000D01*
X73497619Y-118352380D01*
X73592857Y-118304761D01*
X73735714Y-118304761D01*
X73830952Y-118352380D01*
X73878571Y-118400000D01*
X73926190Y-118495238D01*
X73926190Y-118876190D01*
X74402380Y-117876190D02*
X73402380Y-117876190D01*
X73402380Y-117209523D02*
X73402380Y-117019047D01*
X73450000Y-116923809D01*
X73545238Y-116828571D01*
X73735714Y-116780952D01*
X74069047Y-116780952D01*
X74259523Y-116828571D01*
X74354761Y-116923809D01*
X74402380Y-117019047D01*
X74402380Y-117209523D01*
X74354761Y-117304761D01*
X74259523Y-117400000D01*
X74069047Y-117447619D01*
X73735714Y-117447619D01*
X73545238Y-117400000D01*
X73450000Y-117304761D01*
X73402380Y-117209523D01*
X74402380Y-115828571D02*
X74402380Y-116400000D01*
X74402380Y-116114285D02*
X73402380Y-116114285D01*
X73545238Y-116209523D01*
X73640476Y-116304761D01*
X73688095Y-116400000D01*
X73830952Y-115257142D02*
X73783333Y-115352380D01*
X73735714Y-115400000D01*
X73640476Y-115447619D01*
X73592857Y-115447619D01*
X73497619Y-115400000D01*
X73450000Y-115352380D01*
X73402380Y-115257142D01*
X73402380Y-115066666D01*
X73450000Y-114971428D01*
X73497619Y-114923809D01*
X73592857Y-114876190D01*
X73640476Y-114876190D01*
X73735714Y-114923809D01*
X73783333Y-114971428D01*
X73830952Y-115066666D01*
X73830952Y-115257142D01*
X73878571Y-115352380D01*
X73926190Y-115400000D01*
X74021428Y-115447619D01*
X74211904Y-115447619D01*
X74307142Y-115400000D01*
X74354761Y-115352380D01*
X74402380Y-115257142D01*
X74402380Y-115066666D01*
X74354761Y-114971428D01*
X74307142Y-114923809D01*
X74211904Y-114876190D01*
X74021428Y-114876190D01*
X73926190Y-114923809D01*
X73878571Y-114971428D01*
X73830952Y-115066666D01*
X76200000Y-119376190D02*
X76152380Y-119471428D01*
X76152380Y-119614285D01*
X76200000Y-119757142D01*
X76295238Y-119852380D01*
X76390476Y-119900000D01*
X76580952Y-119947619D01*
X76723809Y-119947619D01*
X76914285Y-119900000D01*
X77009523Y-119852380D01*
X77104761Y-119757142D01*
X77152380Y-119614285D01*
X77152380Y-119519047D01*
X77104761Y-119376190D01*
X77057142Y-119328571D01*
X76723809Y-119328571D01*
X76723809Y-119519047D01*
X77152380Y-118900000D02*
X76152380Y-118900000D01*
X76152380Y-118519047D01*
X76200000Y-118423809D01*
X76247619Y-118376190D01*
X76342857Y-118328571D01*
X76485714Y-118328571D01*
X76580952Y-118376190D01*
X76628571Y-118423809D01*
X76676190Y-118519047D01*
X76676190Y-118900000D01*
X77152380Y-117900000D02*
X76152380Y-117900000D01*
X76152380Y-117233333D02*
X76152380Y-117042857D01*
X76200000Y-116947619D01*
X76295238Y-116852380D01*
X76485714Y-116804761D01*
X76819047Y-116804761D01*
X77009523Y-116852380D01*
X77104761Y-116947619D01*
X77152380Y-117042857D01*
X77152380Y-117233333D01*
X77104761Y-117328571D01*
X77009523Y-117423809D01*
X76819047Y-117471428D01*
X76485714Y-117471428D01*
X76295238Y-117423809D01*
X76200000Y-117328571D01*
X76152380Y-117233333D01*
X76152380Y-115900000D02*
X76152380Y-116376190D01*
X76628571Y-116423809D01*
X76580952Y-116376190D01*
X76533333Y-116280952D01*
X76533333Y-116042857D01*
X76580952Y-115947619D01*
X76628571Y-115900000D01*
X76723809Y-115852380D01*
X76961904Y-115852380D01*
X77057142Y-115900000D01*
X77104761Y-115947619D01*
X77152380Y-116042857D01*
X77152380Y-116280952D01*
X77104761Y-116376190D01*
X77057142Y-116423809D01*
X78700000Y-119352380D02*
X78652380Y-119447619D01*
X78652380Y-119590476D01*
X78700000Y-119733333D01*
X78795238Y-119828571D01*
X78890476Y-119876190D01*
X79080952Y-119923809D01*
X79223809Y-119923809D01*
X79414285Y-119876190D01*
X79509523Y-119828571D01*
X79604761Y-119733333D01*
X79652380Y-119590476D01*
X79652380Y-119495238D01*
X79604761Y-119352380D01*
X79557142Y-119304761D01*
X79223809Y-119304761D01*
X79223809Y-119495238D01*
X79652380Y-118876190D02*
X78652380Y-118876190D01*
X78652380Y-118495238D01*
X78700000Y-118400000D01*
X78747619Y-118352380D01*
X78842857Y-118304761D01*
X78985714Y-118304761D01*
X79080952Y-118352380D01*
X79128571Y-118400000D01*
X79176190Y-118495238D01*
X79176190Y-118876190D01*
X79652380Y-117876190D02*
X78652380Y-117876190D01*
X78652380Y-117209523D02*
X78652380Y-117019047D01*
X78700000Y-116923809D01*
X78795238Y-116828571D01*
X78985714Y-116780952D01*
X79319047Y-116780952D01*
X79509523Y-116828571D01*
X79604761Y-116923809D01*
X79652380Y-117019047D01*
X79652380Y-117209523D01*
X79604761Y-117304761D01*
X79509523Y-117400000D01*
X79319047Y-117447619D01*
X78985714Y-117447619D01*
X78795238Y-117400000D01*
X78700000Y-117304761D01*
X78652380Y-117209523D01*
X79652380Y-115828571D02*
X79652380Y-116400000D01*
X79652380Y-116114285D02*
X78652380Y-116114285D01*
X78795238Y-116209523D01*
X78890476Y-116304761D01*
X78938095Y-116400000D01*
X78652380Y-115495238D02*
X78652380Y-114828571D01*
X79652380Y-115257142D01*
X81200000Y-119352380D02*
X81152380Y-119447619D01*
X81152380Y-119590476D01*
X81200000Y-119733333D01*
X81295238Y-119828571D01*
X81390476Y-119876190D01*
X81580952Y-119923809D01*
X81723809Y-119923809D01*
X81914285Y-119876190D01*
X82009523Y-119828571D01*
X82104761Y-119733333D01*
X82152380Y-119590476D01*
X82152380Y-119495238D01*
X82104761Y-119352380D01*
X82057142Y-119304761D01*
X81723809Y-119304761D01*
X81723809Y-119495238D01*
X82152380Y-118876190D02*
X81152380Y-118876190D01*
X81152380Y-118495238D01*
X81200000Y-118400000D01*
X81247619Y-118352380D01*
X81342857Y-118304761D01*
X81485714Y-118304761D01*
X81580952Y-118352380D01*
X81628571Y-118400000D01*
X81676190Y-118495238D01*
X81676190Y-118876190D01*
X82152380Y-117876190D02*
X81152380Y-117876190D01*
X81152380Y-117209523D02*
X81152380Y-117019047D01*
X81200000Y-116923809D01*
X81295238Y-116828571D01*
X81485714Y-116780952D01*
X81819047Y-116780952D01*
X82009523Y-116828571D01*
X82104761Y-116923809D01*
X82152380Y-117019047D01*
X82152380Y-117209523D01*
X82104761Y-117304761D01*
X82009523Y-117400000D01*
X81819047Y-117447619D01*
X81485714Y-117447619D01*
X81295238Y-117400000D01*
X81200000Y-117304761D01*
X81152380Y-117209523D01*
X82152380Y-115828571D02*
X82152380Y-116400000D01*
X82152380Y-116114285D02*
X81152380Y-116114285D01*
X81295238Y-116209523D01*
X81390476Y-116304761D01*
X81438095Y-116400000D01*
X81152380Y-114971428D02*
X81152380Y-115161904D01*
X81200000Y-115257142D01*
X81247619Y-115304761D01*
X81390476Y-115400000D01*
X81580952Y-115447619D01*
X81961904Y-115447619D01*
X82057142Y-115400000D01*
X82104761Y-115352380D01*
X82152380Y-115257142D01*
X82152380Y-115066666D01*
X82104761Y-114971428D01*
X82057142Y-114923809D01*
X81961904Y-114876190D01*
X81723809Y-114876190D01*
X81628571Y-114923809D01*
X81580952Y-114971428D01*
X81533333Y-115066666D01*
X81533333Y-115257142D01*
X81580952Y-115352380D01*
X81628571Y-115400000D01*
X81723809Y-115447619D01*
X83700000Y-119376190D02*
X83652380Y-119471428D01*
X83652380Y-119614285D01*
X83700000Y-119757142D01*
X83795238Y-119852380D01*
X83890476Y-119900000D01*
X84080952Y-119947619D01*
X84223809Y-119947619D01*
X84414285Y-119900000D01*
X84509523Y-119852380D01*
X84604761Y-119757142D01*
X84652380Y-119614285D01*
X84652380Y-119519047D01*
X84604761Y-119376190D01*
X84557142Y-119328571D01*
X84223809Y-119328571D01*
X84223809Y-119519047D01*
X84652380Y-118900000D02*
X83652380Y-118900000D01*
X83652380Y-118519047D01*
X83700000Y-118423809D01*
X83747619Y-118376190D01*
X83842857Y-118328571D01*
X83985714Y-118328571D01*
X84080952Y-118376190D01*
X84128571Y-118423809D01*
X84176190Y-118519047D01*
X84176190Y-118900000D01*
X84652380Y-117900000D02*
X83652380Y-117900000D01*
X83652380Y-117233333D02*
X83652380Y-117042857D01*
X83700000Y-116947619D01*
X83795238Y-116852380D01*
X83985714Y-116804761D01*
X84319047Y-116804761D01*
X84509523Y-116852380D01*
X84604761Y-116947619D01*
X84652380Y-117042857D01*
X84652380Y-117233333D01*
X84604761Y-117328571D01*
X84509523Y-117423809D01*
X84319047Y-117471428D01*
X83985714Y-117471428D01*
X83795238Y-117423809D01*
X83700000Y-117328571D01*
X83652380Y-117233333D01*
X83985714Y-115947619D02*
X84652380Y-115947619D01*
X83604761Y-116185714D02*
X84319047Y-116423809D01*
X84319047Y-115804761D01*
X86200000Y-119376190D02*
X86152380Y-119471428D01*
X86152380Y-119614285D01*
X86200000Y-119757142D01*
X86295238Y-119852380D01*
X86390476Y-119900000D01*
X86580952Y-119947619D01*
X86723809Y-119947619D01*
X86914285Y-119900000D01*
X87009523Y-119852380D01*
X87104761Y-119757142D01*
X87152380Y-119614285D01*
X87152380Y-119519047D01*
X87104761Y-119376190D01*
X87057142Y-119328571D01*
X86723809Y-119328571D01*
X86723809Y-119519047D01*
X87152380Y-118900000D02*
X86152380Y-118900000D01*
X86152380Y-118519047D01*
X86200000Y-118423809D01*
X86247619Y-118376190D01*
X86342857Y-118328571D01*
X86485714Y-118328571D01*
X86580952Y-118376190D01*
X86628571Y-118423809D01*
X86676190Y-118519047D01*
X86676190Y-118900000D01*
X87152380Y-117900000D02*
X86152380Y-117900000D01*
X86152380Y-117233333D02*
X86152380Y-117042857D01*
X86200000Y-116947619D01*
X86295238Y-116852380D01*
X86485714Y-116804761D01*
X86819047Y-116804761D01*
X87009523Y-116852380D01*
X87104761Y-116947619D01*
X87152380Y-117042857D01*
X87152380Y-117233333D01*
X87104761Y-117328571D01*
X87009523Y-117423809D01*
X86819047Y-117471428D01*
X86485714Y-117471428D01*
X86295238Y-117423809D01*
X86200000Y-117328571D01*
X86152380Y-117233333D01*
X86247619Y-116423809D02*
X86200000Y-116376190D01*
X86152380Y-116280952D01*
X86152380Y-116042857D01*
X86200000Y-115947619D01*
X86247619Y-115900000D01*
X86342857Y-115852380D01*
X86438095Y-115852380D01*
X86580952Y-115900000D01*
X87152380Y-116471428D01*
X87152380Y-115852380D01*
X88950000Y-119352380D02*
X88902380Y-119447619D01*
X88902380Y-119590476D01*
X88950000Y-119733333D01*
X89045238Y-119828571D01*
X89140476Y-119876190D01*
X89330952Y-119923809D01*
X89473809Y-119923809D01*
X89664285Y-119876190D01*
X89759523Y-119828571D01*
X89854761Y-119733333D01*
X89902380Y-119590476D01*
X89902380Y-119495238D01*
X89854761Y-119352380D01*
X89807142Y-119304761D01*
X89473809Y-119304761D01*
X89473809Y-119495238D01*
X89902380Y-118876190D02*
X88902380Y-118876190D01*
X88902380Y-118495238D01*
X88950000Y-118400000D01*
X88997619Y-118352380D01*
X89092857Y-118304761D01*
X89235714Y-118304761D01*
X89330952Y-118352380D01*
X89378571Y-118400000D01*
X89426190Y-118495238D01*
X89426190Y-118876190D01*
X89902380Y-117876190D02*
X88902380Y-117876190D01*
X88902380Y-117209523D02*
X88902380Y-117019047D01*
X88950000Y-116923809D01*
X89045238Y-116828571D01*
X89235714Y-116780952D01*
X89569047Y-116780952D01*
X89759523Y-116828571D01*
X89854761Y-116923809D01*
X89902380Y-117019047D01*
X89902380Y-117209523D01*
X89854761Y-117304761D01*
X89759523Y-117400000D01*
X89569047Y-117447619D01*
X89235714Y-117447619D01*
X89045238Y-117400000D01*
X88950000Y-117304761D01*
X88902380Y-117209523D01*
X89902380Y-115828571D02*
X89902380Y-116400000D01*
X89902380Y-116114285D02*
X88902380Y-116114285D01*
X89045238Y-116209523D01*
X89140476Y-116304761D01*
X89188095Y-116400000D01*
X88902380Y-114923809D02*
X88902380Y-115400000D01*
X89378571Y-115447619D01*
X89330952Y-115400000D01*
X89283333Y-115304761D01*
X89283333Y-115066666D01*
X89330952Y-114971428D01*
X89378571Y-114923809D01*
X89473809Y-114876190D01*
X89711904Y-114876190D01*
X89807142Y-114923809D01*
X89854761Y-114971428D01*
X89902380Y-115066666D01*
X89902380Y-115304761D01*
X89854761Y-115400000D01*
X89807142Y-115447619D01*
X93902380Y-119888095D02*
X93902380Y-119269047D01*
X94283333Y-119602380D01*
X94283333Y-119459523D01*
X94330952Y-119364285D01*
X94378571Y-119316666D01*
X94473809Y-119269047D01*
X94711904Y-119269047D01*
X94807142Y-119316666D01*
X94854761Y-119364285D01*
X94902380Y-119459523D01*
X94902380Y-119745238D01*
X94854761Y-119840476D01*
X94807142Y-119888095D01*
X93902380Y-118983333D02*
X94902380Y-118650000D01*
X93902380Y-118316666D01*
X93902380Y-118078571D02*
X93902380Y-117459523D01*
X94283333Y-117792857D01*
X94283333Y-117650000D01*
X94330952Y-117554761D01*
X94378571Y-117507142D01*
X94473809Y-117459523D01*
X94711904Y-117459523D01*
X94807142Y-117507142D01*
X94854761Y-117554761D01*
X94902380Y-117650000D01*
X94902380Y-117935714D01*
X94854761Y-118030952D01*
X94807142Y-118078571D01*
X94202380Y-132045238D02*
X95202380Y-131711904D01*
X94202380Y-131378571D01*
X95202380Y-131045238D02*
X94202380Y-131045238D01*
X95202380Y-130569047D02*
X94202380Y-130569047D01*
X95202380Y-129997619D01*
X94202380Y-129997619D01*
X91450000Y-119411904D02*
X91402380Y-119507142D01*
X91402380Y-119650000D01*
X91450000Y-119792857D01*
X91545238Y-119888095D01*
X91640476Y-119935714D01*
X91830952Y-119983333D01*
X91973809Y-119983333D01*
X92164285Y-119935714D01*
X92259523Y-119888095D01*
X92354761Y-119792857D01*
X92402380Y-119650000D01*
X92402380Y-119554761D01*
X92354761Y-119411904D01*
X92307142Y-119364285D01*
X91973809Y-119364285D01*
X91973809Y-119554761D01*
X92402380Y-118935714D02*
X91402380Y-118935714D01*
X92402380Y-118364285D01*
X91402380Y-118364285D01*
X92402380Y-117888095D02*
X91402380Y-117888095D01*
X91402380Y-117650000D01*
X91450000Y-117507142D01*
X91545238Y-117411904D01*
X91640476Y-117364285D01*
X91830952Y-117316666D01*
X91973809Y-117316666D01*
X92164285Y-117364285D01*
X92259523Y-117411904D01*
X92354761Y-117507142D01*
X92402380Y-117650000D01*
X92402380Y-117888095D01*
X91750000Y-131961904D02*
X91702380Y-132057142D01*
X91702380Y-132200000D01*
X91750000Y-132342857D01*
X91845238Y-132438095D01*
X91940476Y-132485714D01*
X92130952Y-132533333D01*
X92273809Y-132533333D01*
X92464285Y-132485714D01*
X92559523Y-132438095D01*
X92654761Y-132342857D01*
X92702380Y-132200000D01*
X92702380Y-132104761D01*
X92654761Y-131961904D01*
X92607142Y-131914285D01*
X92273809Y-131914285D01*
X92273809Y-132104761D01*
X92702380Y-131485714D02*
X91702380Y-131485714D01*
X92702380Y-130914285D01*
X91702380Y-130914285D01*
X92702380Y-130438095D02*
X91702380Y-130438095D01*
X91702380Y-130200000D01*
X91750000Y-130057142D01*
X91845238Y-129961904D01*
X91940476Y-129914285D01*
X92130952Y-129866666D01*
X92273809Y-129866666D01*
X92464285Y-129914285D01*
X92559523Y-129961904D01*
X92654761Y-130057142D01*
X92702380Y-130200000D01*
X92702380Y-130438095D01*
X89250000Y-134402380D02*
X89202380Y-134497619D01*
X89202380Y-134640476D01*
X89250000Y-134783333D01*
X89345238Y-134878571D01*
X89440476Y-134926190D01*
X89630952Y-134973809D01*
X89773809Y-134973809D01*
X89964285Y-134926190D01*
X90059523Y-134878571D01*
X90154761Y-134783333D01*
X90202380Y-134640476D01*
X90202380Y-134545238D01*
X90154761Y-134402380D01*
X90107142Y-134354761D01*
X89773809Y-134354761D01*
X89773809Y-134545238D01*
X90202380Y-133926190D02*
X89202380Y-133926190D01*
X89202380Y-133545238D01*
X89250000Y-133450000D01*
X89297619Y-133402380D01*
X89392857Y-133354761D01*
X89535714Y-133354761D01*
X89630952Y-133402380D01*
X89678571Y-133450000D01*
X89726190Y-133545238D01*
X89726190Y-133926190D01*
X90202380Y-132926190D02*
X89202380Y-132926190D01*
X89202380Y-132259523D02*
X89202380Y-132069047D01*
X89250000Y-131973809D01*
X89345238Y-131878571D01*
X89535714Y-131830952D01*
X89869047Y-131830952D01*
X90059523Y-131878571D01*
X90154761Y-131973809D01*
X90202380Y-132069047D01*
X90202380Y-132259523D01*
X90154761Y-132354761D01*
X90059523Y-132450000D01*
X89869047Y-132497619D01*
X89535714Y-132497619D01*
X89345238Y-132450000D01*
X89250000Y-132354761D01*
X89202380Y-132259523D01*
X90202380Y-130878571D02*
X90202380Y-131450000D01*
X90202380Y-131164285D02*
X89202380Y-131164285D01*
X89345238Y-131259523D01*
X89440476Y-131354761D01*
X89488095Y-131450000D01*
X89202380Y-130545238D02*
X89202380Y-129926190D01*
X89583333Y-130259523D01*
X89583333Y-130116666D01*
X89630952Y-130021428D01*
X89678571Y-129973809D01*
X89773809Y-129926190D01*
X90011904Y-129926190D01*
X90107142Y-129973809D01*
X90154761Y-130021428D01*
X90202380Y-130116666D01*
X90202380Y-130402380D01*
X90154761Y-130497619D01*
X90107142Y-130545238D01*
X86750000Y-134402380D02*
X86702380Y-134497619D01*
X86702380Y-134640476D01*
X86750000Y-134783333D01*
X86845238Y-134878571D01*
X86940476Y-134926190D01*
X87130952Y-134973809D01*
X87273809Y-134973809D01*
X87464285Y-134926190D01*
X87559523Y-134878571D01*
X87654761Y-134783333D01*
X87702380Y-134640476D01*
X87702380Y-134545238D01*
X87654761Y-134402380D01*
X87607142Y-134354761D01*
X87273809Y-134354761D01*
X87273809Y-134545238D01*
X87702380Y-133926190D02*
X86702380Y-133926190D01*
X86702380Y-133545238D01*
X86750000Y-133450000D01*
X86797619Y-133402380D01*
X86892857Y-133354761D01*
X87035714Y-133354761D01*
X87130952Y-133402380D01*
X87178571Y-133450000D01*
X87226190Y-133545238D01*
X87226190Y-133926190D01*
X87702380Y-132926190D02*
X86702380Y-132926190D01*
X86702380Y-132259523D02*
X86702380Y-132069047D01*
X86750000Y-131973809D01*
X86845238Y-131878571D01*
X87035714Y-131830952D01*
X87369047Y-131830952D01*
X87559523Y-131878571D01*
X87654761Y-131973809D01*
X87702380Y-132069047D01*
X87702380Y-132259523D01*
X87654761Y-132354761D01*
X87559523Y-132450000D01*
X87369047Y-132497619D01*
X87035714Y-132497619D01*
X86845238Y-132450000D01*
X86750000Y-132354761D01*
X86702380Y-132259523D01*
X87702380Y-130878571D02*
X87702380Y-131450000D01*
X87702380Y-131164285D02*
X86702380Y-131164285D01*
X86845238Y-131259523D01*
X86940476Y-131354761D01*
X86988095Y-131450000D01*
X86797619Y-130497619D02*
X86750000Y-130450000D01*
X86702380Y-130354761D01*
X86702380Y-130116666D01*
X86750000Y-130021428D01*
X86797619Y-129973809D01*
X86892857Y-129926190D01*
X86988095Y-129926190D01*
X87130952Y-129973809D01*
X87702380Y-130545238D01*
X87702380Y-129926190D01*
X84250000Y-134402380D02*
X84202380Y-134497619D01*
X84202380Y-134640476D01*
X84250000Y-134783333D01*
X84345238Y-134878571D01*
X84440476Y-134926190D01*
X84630952Y-134973809D01*
X84773809Y-134973809D01*
X84964285Y-134926190D01*
X85059523Y-134878571D01*
X85154761Y-134783333D01*
X85202380Y-134640476D01*
X85202380Y-134545238D01*
X85154761Y-134402380D01*
X85107142Y-134354761D01*
X84773809Y-134354761D01*
X84773809Y-134545238D01*
X85202380Y-133926190D02*
X84202380Y-133926190D01*
X84202380Y-133545238D01*
X84250000Y-133450000D01*
X84297619Y-133402380D01*
X84392857Y-133354761D01*
X84535714Y-133354761D01*
X84630952Y-133402380D01*
X84678571Y-133450000D01*
X84726190Y-133545238D01*
X84726190Y-133926190D01*
X85202380Y-132926190D02*
X84202380Y-132926190D01*
X84202380Y-132259523D02*
X84202380Y-132069047D01*
X84250000Y-131973809D01*
X84345238Y-131878571D01*
X84535714Y-131830952D01*
X84869047Y-131830952D01*
X85059523Y-131878571D01*
X85154761Y-131973809D01*
X85202380Y-132069047D01*
X85202380Y-132259523D01*
X85154761Y-132354761D01*
X85059523Y-132450000D01*
X84869047Y-132497619D01*
X84535714Y-132497619D01*
X84345238Y-132450000D01*
X84250000Y-132354761D01*
X84202380Y-132259523D01*
X85202380Y-130878571D02*
X85202380Y-131450000D01*
X85202380Y-131164285D02*
X84202380Y-131164285D01*
X84345238Y-131259523D01*
X84440476Y-131354761D01*
X84488095Y-131450000D01*
X84535714Y-130021428D02*
X85202380Y-130021428D01*
X84154761Y-130259523D02*
X84869047Y-130497619D01*
X84869047Y-129878571D01*
X81700000Y-134302380D02*
X81652380Y-134397619D01*
X81652380Y-134540476D01*
X81700000Y-134683333D01*
X81795238Y-134778571D01*
X81890476Y-134826190D01*
X82080952Y-134873809D01*
X82223809Y-134873809D01*
X82414285Y-134826190D01*
X82509523Y-134778571D01*
X82604761Y-134683333D01*
X82652380Y-134540476D01*
X82652380Y-134445238D01*
X82604761Y-134302380D01*
X82557142Y-134254761D01*
X82223809Y-134254761D01*
X82223809Y-134445238D01*
X82652380Y-133826190D02*
X81652380Y-133826190D01*
X81652380Y-133445238D01*
X81700000Y-133350000D01*
X81747619Y-133302380D01*
X81842857Y-133254761D01*
X81985714Y-133254761D01*
X82080952Y-133302380D01*
X82128571Y-133350000D01*
X82176190Y-133445238D01*
X82176190Y-133826190D01*
X82652380Y-132826190D02*
X81652380Y-132826190D01*
X81652380Y-132159523D02*
X81652380Y-131969047D01*
X81700000Y-131873809D01*
X81795238Y-131778571D01*
X81985714Y-131730952D01*
X82319047Y-131730952D01*
X82509523Y-131778571D01*
X82604761Y-131873809D01*
X82652380Y-131969047D01*
X82652380Y-132159523D01*
X82604761Y-132254761D01*
X82509523Y-132350000D01*
X82319047Y-132397619D01*
X81985714Y-132397619D01*
X81795238Y-132350000D01*
X81700000Y-132254761D01*
X81652380Y-132159523D01*
X81747619Y-131350000D02*
X81700000Y-131302380D01*
X81652380Y-131207142D01*
X81652380Y-130969047D01*
X81700000Y-130873809D01*
X81747619Y-130826190D01*
X81842857Y-130778571D01*
X81938095Y-130778571D01*
X82080952Y-130826190D01*
X82652380Y-131397619D01*
X82652380Y-130778571D01*
X81652380Y-130445238D02*
X81652380Y-129778571D01*
X82652380Y-130207142D01*
X79050000Y-134302380D02*
X79002380Y-134397619D01*
X79002380Y-134540476D01*
X79050000Y-134683333D01*
X79145238Y-134778571D01*
X79240476Y-134826190D01*
X79430952Y-134873809D01*
X79573809Y-134873809D01*
X79764285Y-134826190D01*
X79859523Y-134778571D01*
X79954761Y-134683333D01*
X80002380Y-134540476D01*
X80002380Y-134445238D01*
X79954761Y-134302380D01*
X79907142Y-134254761D01*
X79573809Y-134254761D01*
X79573809Y-134445238D01*
X80002380Y-133826190D02*
X79002380Y-133826190D01*
X79002380Y-133445238D01*
X79050000Y-133350000D01*
X79097619Y-133302380D01*
X79192857Y-133254761D01*
X79335714Y-133254761D01*
X79430952Y-133302380D01*
X79478571Y-133350000D01*
X79526190Y-133445238D01*
X79526190Y-133826190D01*
X80002380Y-132826190D02*
X79002380Y-132826190D01*
X79002380Y-132159523D02*
X79002380Y-131969047D01*
X79050000Y-131873809D01*
X79145238Y-131778571D01*
X79335714Y-131730952D01*
X79669047Y-131730952D01*
X79859523Y-131778571D01*
X79954761Y-131873809D01*
X80002380Y-131969047D01*
X80002380Y-132159523D01*
X79954761Y-132254761D01*
X79859523Y-132350000D01*
X79669047Y-132397619D01*
X79335714Y-132397619D01*
X79145238Y-132350000D01*
X79050000Y-132254761D01*
X79002380Y-132159523D01*
X79097619Y-131350000D02*
X79050000Y-131302380D01*
X79002380Y-131207142D01*
X79002380Y-130969047D01*
X79050000Y-130873809D01*
X79097619Y-130826190D01*
X79192857Y-130778571D01*
X79288095Y-130778571D01*
X79430952Y-130826190D01*
X80002380Y-131397619D01*
X80002380Y-130778571D01*
X79002380Y-129921428D02*
X79002380Y-130111904D01*
X79050000Y-130207142D01*
X79097619Y-130254761D01*
X79240476Y-130350000D01*
X79430952Y-130397619D01*
X79811904Y-130397619D01*
X79907142Y-130350000D01*
X79954761Y-130302380D01*
X80002380Y-130207142D01*
X80002380Y-130016666D01*
X79954761Y-129921428D01*
X79907142Y-129873809D01*
X79811904Y-129826190D01*
X79573809Y-129826190D01*
X79478571Y-129873809D01*
X79430952Y-129921428D01*
X79383333Y-130016666D01*
X79383333Y-130207142D01*
X79430952Y-130302380D01*
X79478571Y-130350000D01*
X79573809Y-130397619D01*
X76250000Y-134402380D02*
X76202380Y-134497619D01*
X76202380Y-134640476D01*
X76250000Y-134783333D01*
X76345238Y-134878571D01*
X76440476Y-134926190D01*
X76630952Y-134973809D01*
X76773809Y-134973809D01*
X76964285Y-134926190D01*
X77059523Y-134878571D01*
X77154761Y-134783333D01*
X77202380Y-134640476D01*
X77202380Y-134545238D01*
X77154761Y-134402380D01*
X77107142Y-134354761D01*
X76773809Y-134354761D01*
X76773809Y-134545238D01*
X77202380Y-133926190D02*
X76202380Y-133926190D01*
X76202380Y-133545238D01*
X76250000Y-133450000D01*
X76297619Y-133402380D01*
X76392857Y-133354761D01*
X76535714Y-133354761D01*
X76630952Y-133402380D01*
X76678571Y-133450000D01*
X76726190Y-133545238D01*
X76726190Y-133926190D01*
X77202380Y-132926190D02*
X76202380Y-132926190D01*
X76202380Y-132259523D02*
X76202380Y-132069047D01*
X76250000Y-131973809D01*
X76345238Y-131878571D01*
X76535714Y-131830952D01*
X76869047Y-131830952D01*
X77059523Y-131878571D01*
X77154761Y-131973809D01*
X77202380Y-132069047D01*
X77202380Y-132259523D01*
X77154761Y-132354761D01*
X77059523Y-132450000D01*
X76869047Y-132497619D01*
X76535714Y-132497619D01*
X76345238Y-132450000D01*
X76250000Y-132354761D01*
X76202380Y-132259523D01*
X76297619Y-131450000D02*
X76250000Y-131402380D01*
X76202380Y-131307142D01*
X76202380Y-131069047D01*
X76250000Y-130973809D01*
X76297619Y-130926190D01*
X76392857Y-130878571D01*
X76488095Y-130878571D01*
X76630952Y-130926190D01*
X77202380Y-131497619D01*
X77202380Y-130878571D01*
X76202380Y-129973809D02*
X76202380Y-130450000D01*
X76678571Y-130497619D01*
X76630952Y-130450000D01*
X76583333Y-130354761D01*
X76583333Y-130116666D01*
X76630952Y-130021428D01*
X76678571Y-129973809D01*
X76773809Y-129926190D01*
X77011904Y-129926190D01*
X77107142Y-129973809D01*
X77154761Y-130021428D01*
X77202380Y-130116666D01*
X77202380Y-130354761D01*
X77154761Y-130450000D01*
X77107142Y-130497619D01*
X73750000Y-134402380D02*
X73702380Y-134497619D01*
X73702380Y-134640476D01*
X73750000Y-134783333D01*
X73845238Y-134878571D01*
X73940476Y-134926190D01*
X74130952Y-134973809D01*
X74273809Y-134973809D01*
X74464285Y-134926190D01*
X74559523Y-134878571D01*
X74654761Y-134783333D01*
X74702380Y-134640476D01*
X74702380Y-134545238D01*
X74654761Y-134402380D01*
X74607142Y-134354761D01*
X74273809Y-134354761D01*
X74273809Y-134545238D01*
X74702380Y-133926190D02*
X73702380Y-133926190D01*
X73702380Y-133545238D01*
X73750000Y-133450000D01*
X73797619Y-133402380D01*
X73892857Y-133354761D01*
X74035714Y-133354761D01*
X74130952Y-133402380D01*
X74178571Y-133450000D01*
X74226190Y-133545238D01*
X74226190Y-133926190D01*
X74702380Y-132926190D02*
X73702380Y-132926190D01*
X73702380Y-132259523D02*
X73702380Y-132069047D01*
X73750000Y-131973809D01*
X73845238Y-131878571D01*
X74035714Y-131830952D01*
X74369047Y-131830952D01*
X74559523Y-131878571D01*
X74654761Y-131973809D01*
X74702380Y-132069047D01*
X74702380Y-132259523D01*
X74654761Y-132354761D01*
X74559523Y-132450000D01*
X74369047Y-132497619D01*
X74035714Y-132497619D01*
X73845238Y-132450000D01*
X73750000Y-132354761D01*
X73702380Y-132259523D01*
X73702380Y-131497619D02*
X73702380Y-130878571D01*
X74083333Y-131211904D01*
X74083333Y-131069047D01*
X74130952Y-130973809D01*
X74178571Y-130926190D01*
X74273809Y-130878571D01*
X74511904Y-130878571D01*
X74607142Y-130926190D01*
X74654761Y-130973809D01*
X74702380Y-131069047D01*
X74702380Y-131354761D01*
X74654761Y-131450000D01*
X74607142Y-131497619D01*
X73702380Y-130545238D02*
X73702380Y-129926190D01*
X74083333Y-130259523D01*
X74083333Y-130116666D01*
X74130952Y-130021428D01*
X74178571Y-129973809D01*
X74273809Y-129926190D01*
X74511904Y-129926190D01*
X74607142Y-129973809D01*
X74654761Y-130021428D01*
X74702380Y-130116666D01*
X74702380Y-130402380D01*
X74654761Y-130497619D01*
X74607142Y-130545238D01*
X71250000Y-134402380D02*
X71202380Y-134497619D01*
X71202380Y-134640476D01*
X71250000Y-134783333D01*
X71345238Y-134878571D01*
X71440476Y-134926190D01*
X71630952Y-134973809D01*
X71773809Y-134973809D01*
X71964285Y-134926190D01*
X72059523Y-134878571D01*
X72154761Y-134783333D01*
X72202380Y-134640476D01*
X72202380Y-134545238D01*
X72154761Y-134402380D01*
X72107142Y-134354761D01*
X71773809Y-134354761D01*
X71773809Y-134545238D01*
X72202380Y-133926190D02*
X71202380Y-133926190D01*
X71202380Y-133545238D01*
X71250000Y-133450000D01*
X71297619Y-133402380D01*
X71392857Y-133354761D01*
X71535714Y-133354761D01*
X71630952Y-133402380D01*
X71678571Y-133450000D01*
X71726190Y-133545238D01*
X71726190Y-133926190D01*
X72202380Y-132926190D02*
X71202380Y-132926190D01*
X71202380Y-132259523D02*
X71202380Y-132069047D01*
X71250000Y-131973809D01*
X71345238Y-131878571D01*
X71535714Y-131830952D01*
X71869047Y-131830952D01*
X72059523Y-131878571D01*
X72154761Y-131973809D01*
X72202380Y-132069047D01*
X72202380Y-132259523D01*
X72154761Y-132354761D01*
X72059523Y-132450000D01*
X71869047Y-132497619D01*
X71535714Y-132497619D01*
X71345238Y-132450000D01*
X71250000Y-132354761D01*
X71202380Y-132259523D01*
X71202380Y-131497619D02*
X71202380Y-130878571D01*
X71583333Y-131211904D01*
X71583333Y-131069047D01*
X71630952Y-130973809D01*
X71678571Y-130926190D01*
X71773809Y-130878571D01*
X72011904Y-130878571D01*
X72107142Y-130926190D01*
X72154761Y-130973809D01*
X72202380Y-131069047D01*
X72202380Y-131354761D01*
X72154761Y-131450000D01*
X72107142Y-131497619D01*
X71297619Y-130497619D02*
X71250000Y-130450000D01*
X71202380Y-130354761D01*
X71202380Y-130116666D01*
X71250000Y-130021428D01*
X71297619Y-129973809D01*
X71392857Y-129926190D01*
X71488095Y-129926190D01*
X71630952Y-129973809D01*
X72202380Y-130545238D01*
X72202380Y-129926190D01*
X68750000Y-134402380D02*
X68702380Y-134497619D01*
X68702380Y-134640476D01*
X68750000Y-134783333D01*
X68845238Y-134878571D01*
X68940476Y-134926190D01*
X69130952Y-134973809D01*
X69273809Y-134973809D01*
X69464285Y-134926190D01*
X69559523Y-134878571D01*
X69654761Y-134783333D01*
X69702380Y-134640476D01*
X69702380Y-134545238D01*
X69654761Y-134402380D01*
X69607142Y-134354761D01*
X69273809Y-134354761D01*
X69273809Y-134545238D01*
X69702380Y-133926190D02*
X68702380Y-133926190D01*
X68702380Y-133545238D01*
X68750000Y-133450000D01*
X68797619Y-133402380D01*
X68892857Y-133354761D01*
X69035714Y-133354761D01*
X69130952Y-133402380D01*
X69178571Y-133450000D01*
X69226190Y-133545238D01*
X69226190Y-133926190D01*
X69702380Y-132926190D02*
X68702380Y-132926190D01*
X68702380Y-132259523D02*
X68702380Y-132069047D01*
X68750000Y-131973809D01*
X68845238Y-131878571D01*
X69035714Y-131830952D01*
X69369047Y-131830952D01*
X69559523Y-131878571D01*
X69654761Y-131973809D01*
X69702380Y-132069047D01*
X69702380Y-132259523D01*
X69654761Y-132354761D01*
X69559523Y-132450000D01*
X69369047Y-132497619D01*
X69035714Y-132497619D01*
X68845238Y-132450000D01*
X68750000Y-132354761D01*
X68702380Y-132259523D01*
X68702380Y-131497619D02*
X68702380Y-130878571D01*
X69083333Y-131211904D01*
X69083333Y-131069047D01*
X69130952Y-130973809D01*
X69178571Y-130926190D01*
X69273809Y-130878571D01*
X69511904Y-130878571D01*
X69607142Y-130926190D01*
X69654761Y-130973809D01*
X69702380Y-131069047D01*
X69702380Y-131354761D01*
X69654761Y-131450000D01*
X69607142Y-131497619D01*
X68702380Y-129973809D02*
X68702380Y-130450000D01*
X69178571Y-130497619D01*
X69130952Y-130450000D01*
X69083333Y-130354761D01*
X69083333Y-130116666D01*
X69130952Y-130021428D01*
X69178571Y-129973809D01*
X69273809Y-129926190D01*
X69511904Y-129926190D01*
X69607142Y-129973809D01*
X69654761Y-130021428D01*
X69702380Y-130116666D01*
X69702380Y-130354761D01*
X69654761Y-130450000D01*
X69607142Y-130497619D01*
X66250000Y-134402380D02*
X66202380Y-134497619D01*
X66202380Y-134640476D01*
X66250000Y-134783333D01*
X66345238Y-134878571D01*
X66440476Y-134926190D01*
X66630952Y-134973809D01*
X66773809Y-134973809D01*
X66964285Y-134926190D01*
X67059523Y-134878571D01*
X67154761Y-134783333D01*
X67202380Y-134640476D01*
X67202380Y-134545238D01*
X67154761Y-134402380D01*
X67107142Y-134354761D01*
X66773809Y-134354761D01*
X66773809Y-134545238D01*
X67202380Y-133926190D02*
X66202380Y-133926190D01*
X66202380Y-133545238D01*
X66250000Y-133450000D01*
X66297619Y-133402380D01*
X66392857Y-133354761D01*
X66535714Y-133354761D01*
X66630952Y-133402380D01*
X66678571Y-133450000D01*
X66726190Y-133545238D01*
X66726190Y-133926190D01*
X67202380Y-132926190D02*
X66202380Y-132926190D01*
X66202380Y-132259523D02*
X66202380Y-132069047D01*
X66250000Y-131973809D01*
X66345238Y-131878571D01*
X66535714Y-131830952D01*
X66869047Y-131830952D01*
X67059523Y-131878571D01*
X67154761Y-131973809D01*
X67202380Y-132069047D01*
X67202380Y-132259523D01*
X67154761Y-132354761D01*
X67059523Y-132450000D01*
X66869047Y-132497619D01*
X66535714Y-132497619D01*
X66345238Y-132450000D01*
X66250000Y-132354761D01*
X66202380Y-132259523D01*
X66202380Y-131497619D02*
X66202380Y-130878571D01*
X66583333Y-131211904D01*
X66583333Y-131069047D01*
X66630952Y-130973809D01*
X66678571Y-130926190D01*
X66773809Y-130878571D01*
X67011904Y-130878571D01*
X67107142Y-130926190D01*
X67154761Y-130973809D01*
X67202380Y-131069047D01*
X67202380Y-131354761D01*
X67154761Y-131450000D01*
X67107142Y-131497619D01*
X66535714Y-130021428D02*
X67202380Y-130021428D01*
X66154761Y-130259523D02*
X66869047Y-130497619D01*
X66869047Y-129878571D01*
X63750000Y-134402380D02*
X63702380Y-134497619D01*
X63702380Y-134640476D01*
X63750000Y-134783333D01*
X63845238Y-134878571D01*
X63940476Y-134926190D01*
X64130952Y-134973809D01*
X64273809Y-134973809D01*
X64464285Y-134926190D01*
X64559523Y-134878571D01*
X64654761Y-134783333D01*
X64702380Y-134640476D01*
X64702380Y-134545238D01*
X64654761Y-134402380D01*
X64607142Y-134354761D01*
X64273809Y-134354761D01*
X64273809Y-134545238D01*
X64702380Y-133926190D02*
X63702380Y-133926190D01*
X63702380Y-133545238D01*
X63750000Y-133450000D01*
X63797619Y-133402380D01*
X63892857Y-133354761D01*
X64035714Y-133354761D01*
X64130952Y-133402380D01*
X64178571Y-133450000D01*
X64226190Y-133545238D01*
X64226190Y-133926190D01*
X64702380Y-132926190D02*
X63702380Y-132926190D01*
X63702380Y-132259523D02*
X63702380Y-132069047D01*
X63750000Y-131973809D01*
X63845238Y-131878571D01*
X64035714Y-131830952D01*
X64369047Y-131830952D01*
X64559523Y-131878571D01*
X64654761Y-131973809D01*
X64702380Y-132069047D01*
X64702380Y-132259523D01*
X64654761Y-132354761D01*
X64559523Y-132450000D01*
X64369047Y-132497619D01*
X64035714Y-132497619D01*
X63845238Y-132450000D01*
X63750000Y-132354761D01*
X63702380Y-132259523D01*
X63702380Y-131497619D02*
X63702380Y-130878571D01*
X64083333Y-131211904D01*
X64083333Y-131069047D01*
X64130952Y-130973809D01*
X64178571Y-130926190D01*
X64273809Y-130878571D01*
X64511904Y-130878571D01*
X64607142Y-130926190D01*
X64654761Y-130973809D01*
X64702380Y-131069047D01*
X64702380Y-131354761D01*
X64654761Y-131450000D01*
X64607142Y-131497619D01*
X64702380Y-130402380D02*
X64702380Y-130211904D01*
X64654761Y-130116666D01*
X64607142Y-130069047D01*
X64464285Y-129973809D01*
X64273809Y-129926190D01*
X63892857Y-129926190D01*
X63797619Y-129973809D01*
X63750000Y-130021428D01*
X63702380Y-130116666D01*
X63702380Y-130307142D01*
X63750000Y-130402380D01*
X63797619Y-130450000D01*
X63892857Y-130497619D01*
X64130952Y-130497619D01*
X64226190Y-130450000D01*
X64273809Y-130402380D01*
X64321428Y-130307142D01*
X64321428Y-130116666D01*
X64273809Y-130021428D01*
X64226190Y-129973809D01*
X64130952Y-129926190D01*
X61250000Y-134402380D02*
X61202380Y-134497619D01*
X61202380Y-134640476D01*
X61250000Y-134783333D01*
X61345238Y-134878571D01*
X61440476Y-134926190D01*
X61630952Y-134973809D01*
X61773809Y-134973809D01*
X61964285Y-134926190D01*
X62059523Y-134878571D01*
X62154761Y-134783333D01*
X62202380Y-134640476D01*
X62202380Y-134545238D01*
X62154761Y-134402380D01*
X62107142Y-134354761D01*
X61773809Y-134354761D01*
X61773809Y-134545238D01*
X62202380Y-133926190D02*
X61202380Y-133926190D01*
X61202380Y-133545238D01*
X61250000Y-133450000D01*
X61297619Y-133402380D01*
X61392857Y-133354761D01*
X61535714Y-133354761D01*
X61630952Y-133402380D01*
X61678571Y-133450000D01*
X61726190Y-133545238D01*
X61726190Y-133926190D01*
X62202380Y-132926190D02*
X61202380Y-132926190D01*
X61202380Y-132259523D02*
X61202380Y-132069047D01*
X61250000Y-131973809D01*
X61345238Y-131878571D01*
X61535714Y-131830952D01*
X61869047Y-131830952D01*
X62059523Y-131878571D01*
X62154761Y-131973809D01*
X62202380Y-132069047D01*
X62202380Y-132259523D01*
X62154761Y-132354761D01*
X62059523Y-132450000D01*
X61869047Y-132497619D01*
X61535714Y-132497619D01*
X61345238Y-132450000D01*
X61250000Y-132354761D01*
X61202380Y-132259523D01*
X61202380Y-131497619D02*
X61202380Y-130878571D01*
X61583333Y-131211904D01*
X61583333Y-131069047D01*
X61630952Y-130973809D01*
X61678571Y-130926190D01*
X61773809Y-130878571D01*
X62011904Y-130878571D01*
X62107142Y-130926190D01*
X62154761Y-130973809D01*
X62202380Y-131069047D01*
X62202380Y-131354761D01*
X62154761Y-131450000D01*
X62107142Y-131497619D01*
X61202380Y-130021428D02*
X61202380Y-130211904D01*
X61250000Y-130307142D01*
X61297619Y-130354761D01*
X61440476Y-130450000D01*
X61630952Y-130497619D01*
X62011904Y-130497619D01*
X62107142Y-130450000D01*
X62154761Y-130402380D01*
X62202380Y-130307142D01*
X62202380Y-130116666D01*
X62154761Y-130021428D01*
X62107142Y-129973809D01*
X62011904Y-129926190D01*
X61773809Y-129926190D01*
X61678571Y-129973809D01*
X61630952Y-130021428D01*
X61583333Y-130116666D01*
X61583333Y-130307142D01*
X61630952Y-130402380D01*
X61678571Y-130450000D01*
X61773809Y-130497619D01*
X59178571Y-131438095D02*
X59178571Y-131104761D01*
X59702380Y-130961904D02*
X59702380Y-131438095D01*
X58702380Y-131438095D01*
X58702380Y-130961904D01*
X59702380Y-130533333D02*
X58702380Y-130533333D01*
X59702380Y-129961904D01*
X58702380Y-129961904D01*
%TD*%
M02*
