M48
; DRILL file {KiCad 5.1.9-73d0e3b20d~88~ubuntu18.04.1} date Sun Jan 24 01:49:02 2021
; FORMAT={-:-/ absolute / inch / decimal}
; #@! TF.CreationDate,2021-01-24T01:49:02+01:00
; #@! TF.GenerationSoftware,Kicad,Pcbnew,5.1.9-73d0e3b20d~88~ubuntu18.04.1
; #@! TF.FileFunction,Plated,1,2,PTH
FMAT,2
INCH
T1C0.0157
T2C0.0394
%
G90
G05
T1
X2.0394Y-4.4154
X2.0394Y-4.5157
X2.0394Y-4.6161
X2.0394Y-4.7165
X2.0394Y-4.815
X2.0394Y-4.9154
X2.0394Y-5.0157
X2.0394Y-5.1161
X2.0394Y-5.2165
X2.0394Y-5.315
X2.0394Y-5.4154
X2.0394Y-5.5157
X2.0394Y-5.6161
X2.0394Y-5.7165
X2.0394Y-5.815
X2.1161Y-4.6713
X2.3185Y-4.813
X2.4232Y-4.6673
X2.5512Y-4.9154
X2.565Y-4.6634
X2.8898Y-4.4783
X3.3169Y-5.2638
X3.3465Y-5.5925
X3.502Y-5.6988
X3.7008Y-5.2264
X3.7106Y-4.9902
X3.7264Y-4.9094
X3.7657Y-5.2067
X3.7657Y-5.6575
X3.8386Y-4.9843
X3.8406Y-5.2815
X3.9193Y-5.4272
X3.9783Y-5.1693
X3.9882Y-5.3425
X4.0Y-4.9449
X4.0217Y-5.313
X4.0217Y-5.5295
X4.0315Y-4.7854
X4.0689Y-4.6417
X4.0827Y-4.8159
X4.0906Y-4.9547
X4.1969Y-4.5925
X4.2067Y-5.565
X4.2283Y-4.8642
X4.2736Y-4.6161
X4.2835Y-5.5768
X4.3366Y-4.9016
X4.3794Y-5.0999
X4.4154Y-4.813
X4.4154Y-4.813
X4.4173Y-4.8839
X4.4331Y-5.3957
X4.4577Y-4.8415
X4.4598Y-5.013
X4.4611Y-5.0999
X4.5276Y-4.9232
X4.5522Y-4.6939
X4.5532Y-4.5433
X4.6555Y-5.4094
X4.6555Y-5.5098
X4.6555Y-5.6102
X4.6555Y-5.7106
X4.6555Y-5.8091
X4.6575Y-4.4094
X4.6575Y-4.5098
X4.6575Y-4.6102
X4.6575Y-4.7106
X4.6575Y-4.8091
X4.6575Y-4.9094
X4.6575Y-5.0098
X4.6575Y-5.1102
X4.6575Y-5.2106
X4.6575Y-5.3091
T2
X1.9665Y-4.4185
X1.9665Y-4.5185
X1.9665Y-4.6185
X1.9665Y-4.7185
X1.9665Y-4.8185
X1.9665Y-4.9185
X1.9665Y-5.0185
X1.9665Y-5.1185
X1.9665Y-5.2185
X1.9665Y-5.3185
X1.9665Y-5.4185
X1.9665Y-5.5185
X1.9665Y-5.6185
X1.9665Y-5.7185
X1.9665Y-5.8185
X2.315Y-4.4016
X2.315Y-4.4016
X2.3189Y-5.4134
X2.3189Y-5.4134
X2.3799Y-5.8189
X2.415Y-4.4016
X2.415Y-4.4016
X2.4189Y-5.4134
X2.4189Y-5.4134
X2.4799Y-5.8189
X2.515Y-4.4016
X2.515Y-4.4016
X2.5189Y-5.4134
X2.5189Y-5.4134
X2.615Y-4.4016
X2.615Y-4.4016
X2.6189Y-5.4134
X2.6189Y-5.4134
X2.715Y-4.4016
X2.715Y-4.4016
X2.7189Y-5.4134
X2.7189Y-5.4134
X2.815Y-4.4016
X2.815Y-4.4016
X2.8189Y-5.4134
X2.8189Y-5.4134
X2.8406Y-5.8189
X2.915Y-4.4016
X2.915Y-4.4016
X2.9189Y-5.4134
X2.9189Y-5.4134
X2.9406Y-5.8189
X3.015Y-4.4016
X3.015Y-4.4016
X3.0189Y-5.4134
X3.0189Y-5.4134
X3.115Y-4.4016
X3.115Y-4.4016
X3.1189Y-5.4134
X3.1189Y-5.4134
X3.215Y-4.4016
X3.215Y-4.4016
X3.2189Y-5.4134
X3.2189Y-5.4134
X3.315Y-4.4016
X3.315Y-4.4016
X3.3189Y-5.4134
X3.3189Y-5.4134
X3.3295Y-5.8228
X3.415Y-4.4016
X3.415Y-4.4016
X3.4189Y-5.4134
X3.4189Y-5.4134
X3.4295Y-5.8228
X3.515Y-4.4016
X3.515Y-4.4016
X3.5189Y-5.4134
X3.5189Y-5.4134
X3.5295Y-5.8228
X3.615Y-4.4016
X3.615Y-4.4016
X3.6189Y-5.4134
X3.6189Y-5.4134
X3.6295Y-5.8228
X3.715Y-4.4016
X3.715Y-4.4016
X3.7189Y-5.4134
X3.7189Y-5.4134
X3.7295Y-5.8228
X3.8295Y-5.8228
X3.9295Y-5.8228
X4.0295Y-5.8228
X4.4154Y-4.4205
X4.4154Y-4.5205
X4.4154Y-4.6205
X4.4154Y-4.7205
X4.4193Y-5.5157
X4.4193Y-5.6157
X4.4193Y-5.7157
X4.4193Y-5.8157
X4.7264Y-4.413
X4.7264Y-4.513
X4.7264Y-4.613
X4.7264Y-4.713
X4.7264Y-4.813
X4.7264Y-4.913
X4.7264Y-5.013
X4.7264Y-5.113
X4.7264Y-5.213
X4.7264Y-5.313
X4.7264Y-5.413
X4.7264Y-5.513
X4.7264Y-5.613
X4.7264Y-5.713
X4.7264Y-5.813
T0
M30
